<svg xmlns="http://www.w3.org/2000/svg" xmlns:xlink="http://www.w3.org/1999/xlink" width="564" height="243" viewBox="0 0 564 243">
  <defs>
    <clipPath id="clip-path">
      <rect id="Rectangle_115" data-name="Rectangle 115" width="564" height="243" transform="translate(675.547 2425)" fill="#fff" stroke="#707070" stroke-width="1"/>
    </clipPath>
  </defs>
  <g id="Mask_Group_7" data-name="Mask Group 7" transform="translate(-675.547 -2425)" clip-path="url(#clip-path)">
    <g id="ojFY2701" transform="translate(691.232 2425)">
      <path id="Path_1953" data-name="Path 1953" d="M196.847-264.7v11.574l-17.006-1.181-17.242-.945L134.964-227.62l-27.635,27.871-9.684,30.705L88.2-138.574V-32.76l266.9-.709L622-34.413V-86.376c0-51.254-.236-52.2-7.322-75.582-4.015-12.991-8.267-26.69-9.448-30.705s-13.7-18.659-29.76-34.957L547.595-255.49l-86.919.472-86.919.472-8.739-8.5-8.975-8.739-8.5,8.5-8.5,8.5-59.285.472-59.285.236v-22.438H196.847Zm18.9,2.6c0,9.212-.236,9.448-7.558,8.739-6.613-.708-7.322-1.417-7.558-9.684s0-8.739,7.558-8.739C215.506-271.788,215.742-271.552,215.742-262.1Zm196.986,49.837c.709-1.181-6.613-9.92-16.3-19.132s-17.715-17.242-17.715-17.951,37.555-1.181,83.376-1.181h83.14L572.4-223.368l27.162,26.926,7.322,24.328c4.251,13.463,8.267,25.981,8.975,27.871,1.417,3.071-28.579,3.543-260.758,3.543s-262.175-.472-260.758-3.543c.709-1.89,4.724-14.408,8.975-27.871l7.322-24.328L137.8-223.368l27.162-27.162h83.613c68.5,0,83.14.472,81.014,3.07-1.417,1.653-10.629,9.92-20.549,18.187-16.3,14.172-20.549,18.9-15.825,18.9.945,0,15.353-12.282,32.359-27.162L356.278-264.7l27.4,27.4C398.793-222.187,411.783-210.85,412.728-212.267ZM617.272-97v40.153h-73.22V-85.195c0-25.273-.472-28.816-4.724-33.067-5.669-5.669-15.825-6.141-21.73-.709-3.779,3.307-4.251,7.794-4.251,33.067v29.052H92.922v-80.306h524.35Zm-80.778-18.423c1.89,1.89,2.834,12.282,2.834,30.705v27.871H518.071V-84.722c0-29.288,1.417-33.54,10.629-33.54A12.054,12.054,0,0,1,536.494-115.427ZM617.272-45.75v6.613L355.1-38.192l-262.175.945v-14.88h524.35Z" transform="translate(-88.198 276.512)" fill="#fff"/>
      <path id="Path_1954" data-name="Path 1954" d="M202.7-223.96c-14.88,12.991-19.6,18.659-15.353,18.659.709,0,8.5-6.377,17.006-14.172,8.739-7.794,16.3-14.172,17.242-14.172.709,0,7.558,6.377,14.88,14.172,14.172,14.644,15.589,15.825,15.589,11.573,0-2.126-26.69-28.343-30.705-30C220.414-238.368,211.911-231.991,202.7-223.96Z" transform="translate(-89.09 276.159)" fill="#fff"/>
      <path id="Path_1955" data-name="Path 1955" d="M480.158-223.964c-8.975,7.794-16.77,15.116-17.242,16.534-1.89,4.96,4.015,1.181,19.132-12.282l16.061-14.644,15.353,15.116c8.267,8.267,15.116,13.463,15.116,11.573,0-3.779-25.745-30.705-29.524-30.705C497.872-238.372,489.369-231.995,480.158-223.964Z" transform="translate(-91.619 276.163)" fill="#fff"/>
      <path id="Path_1956" data-name="Path 1956" d="M314.651-192.1v22.438h33.067v-44.877H314.651Zm28.343,0v17.715H319.375v-35.429h23.619Z" transform="translate(-90.267 275.945)" fill="#fff"/>
      <path id="Path_1957" data-name="Path 1957" d="M362.326-192.1v22.438h30.705v-44.877H362.326Zm25.981,0v17.715H367.049v-35.429h21.257Z" transform="translate(-90.703 275.945)" fill="#fff"/>
      <path id="Path_1958" data-name="Path 1958" d="M481.512-190.41v20.785h30.705v-41.334H481.512Zm25.981,0v16.061H486.236v-31.886l10.629-.236,10.629-.236Z" transform="translate(-91.792 275.913)" fill="#fff"/>
      <path id="Path_1959" data-name="Path 1959" d="M202.616-189.691v20.077h33.067v-40.153H202.616Zm27.871-.472.709,15.825H207.34V-206.7l11.337.472,11.1.236Z" transform="translate(-89.243 275.902)" fill="#fff"/>
      <path id="Path_1960" data-name="Path 1960" d="M195.465-159.731c0,1.417,9.448,2.362,23.619,2.362s23.619-.945,23.619-2.362-9.448-2.362-23.619-2.362S195.465-161.148,195.465-159.731Z" transform="translate(-89.178 275.466)" fill="#fff"/>
      <path id="Path_1961" data-name="Path 1961" d="M305.116-159.731c0,1.417,18.9,2.362,51.963,2.362s51.963-.945,51.963-2.362-18.9-2.362-51.963-2.362S305.116-161.148,305.116-159.731Z" transform="translate(-90.18 275.466)" fill="#fff"/>
      <path id="Path_1962" data-name="Path 1962" d="M471.977-159.731c0,1.417,9.92,2.362,24.8,2.362s24.8-.945,24.8-2.362-9.92-2.362-24.8-2.362S471.977-161.148,471.977-159.731Z" transform="translate(-91.705 275.466)" fill="#fff"/>
      <path id="Path_1963" data-name="Path 1963" d="M109.651-99.131v22.438h33.067V-121.57H109.651Zm28.343,0v17.715H114.375v-35.429h23.619Z" transform="translate(-88.394 275.096)" fill="#fff"/>
      <path id="Path_1964" data-name="Path 1964" d="M169.244-99.131v22.438h33.067V-121.57H169.244Zm28.343,0v17.715H173.968v-35.429h23.619Z" transform="translate(-88.938 275.096)" fill="#fff"/>
      <path id="Path_1965" data-name="Path 1965" d="M226.453-99.131v22.438h33.067V-121.57H226.453Zm28.343,0v17.715H231.177v-35.429H254.8Z" transform="translate(-89.461 275.096)" fill="#fff"/>
      <path id="Path_1966" data-name="Path 1966" d="M283.663-99.131v22.438H316.73V-121.57H283.663Zm28.343,0v17.715H288.387v-35.429h23.619Z" transform="translate(-89.984 275.096)" fill="#fff"/>
      <path id="Path_1967" data-name="Path 1967" d="M340.872-99.131v22.438h33.067V-121.57H340.872Zm28.343,0v17.715H345.6v-35.429h23.619Z" transform="translate(-90.507 275.096)" fill="#fff"/>
      <path id="Path_1968" data-name="Path 1968" d="M400.465-99.131v22.438H431.17V-121.57H400.465Zm25.981,0v17.715H405.189v-35.429h21.257Z" transform="translate(-91.051 275.096)" fill="#fff"/>
      <path id="Path_1969" data-name="Path 1969" d="M457.674-99.131v22.438h33.067V-121.57H457.674Zm28.343,0v17.715H462.4v-35.429h23.619Z" transform="translate(-91.574 275.096)" fill="#fff"/>
      <path id="Path_1970" data-name="Path 1970" d="M573.994-99.131l-.709,22.438h31.886V-121.57H574.7Zm26.454,0v17.715H579.19v-35.429h21.258Z" transform="translate(-92.63 275.096)" fill="#fff"/>
    </g>
  </g>
</svg>
