<svg xmlns="http://www.w3.org/2000/svg" xmlns:xlink="http://www.w3.org/1999/xlink" width="496" height="469" viewBox="0 0 496 469">
  <defs>
    <clipPath id="clip-path">
      <rect id="Rectangle_198" data-name="Rectangle 198" width="496" height="469" transform="translate(1237 3512)" fill="#fff" stroke="#707070" stroke-width="1"/>
    </clipPath>
    <clipPath id="clip-path-2">
      <path id="Path_2691" data-name="Path 2691" d="M320.014,447.228h52.822v89.234H320.014Zm0,0" fill="#fff"/>
    </clipPath>
    <clipPath id="clip-path-3">
      <path id="Path_2736" data-name="Path 2736" d="M82.015,379.879h33.753v37.856H82.015Zm0,0" fill="#fff"/>
    </clipPath>
    <clipPath id="clip-path-4">
      <path id="Path_2739" data-name="Path 2739" d="M530.422,360.951h47.593v47.98H530.422Zm0,0" fill="#fff"/>
    </clipPath>
  </defs>
  <g id="Mask_Group_10" data-name="Mask Group 10" transform="translate(-1237 -3512)" opacity="0.5" clip-path="url(#clip-path)">
    <g id="surface1" transform="translate(1154.984 3416.296)">
      <g id="Group_106" data-name="Group 106" clip-path="url(#clip-path-2)">
        <path id="Path_2690" data-name="Path 2690" d="M342.617,471.741a12.651,12.651,0,0,0,.693,5.247c.762,1.585,4.453,3.165,6.366,3.2s3.688-.973,5.234-1.444c.544-.167,1.18-.031,1.651-.18,2.677-.841,2.88-3.319,5.336-4.3.708-1.329,2.311-3.389,3.071-4.714.3-.511.265-1.07.574-1.664.139-.26.607-.462.736-.762a49.159,49.159,0,0,0,2.407-8.606,15.83,15.83,0,0,0,.7-2.861c-.014-2.065-1.093-5.59-2.956-5.81-1.454-.172-2.134,1.034-3.607.211-2,1.563-3.74,3.376-6.538,4.173a3.041,3.041,0,0,1-2.672,1.849c-.323,1.457-1.9,1.708-3.116,2.307a10.8,10.8,0,0,0-2.894,6.361c-1.324.739-1.6,2.491-3.718,2.469A21.412,21.412,0,0,0,342.617,471.741Zm-9.885,2.126c-1.574.251-2.552,2-4.473,1.884-1.064.713-1.059,1.7-1.6,3.033-.361.88-1.18,1.655-1.309,2.276-.091.418.144.81.019,1.2-.4,1.285-1.5,2.249-1.738,3.636-.294,1.717.206,3.667.1,5.551-.038.656-.361,1.255-.419,1.809-.148,1.439.318,2.549.526,4.2.34,2.764-.569,5.366-.318,7.818.342,3.288,2.677,6.163,2.571,9.27,1.845,1.615,2.471,4.089,5.325,3.962a.851.851,0,0,0,.15,0c1.974-.458,4.2-1.5,5.21-2.949a23.7,23.7,0,0,0,3.183-7.267c.487-1.743,1.107-2.549.679-3.918.977-2.5.915-6.678,1.038-9.332.069-1.36.757-2.962.679-4.217-.086-1.413-.794-2.527-.674-4.045a10.892,10.892,0,0,0-.067-4.054c-.15-.59-.717-1.074-.781-1.642-.038-.348.227-.726.131-1.052-.1-.361-.577-.7-.77-1.189-.294-.744-.26-1.47-.482-1.8-.689-1.008-2.2-1.211-2.152-2.663C335.544,474.743,334.186,473.643,332.732,473.867Zm12.528,54.614c3.222.2,6.178-1.021,9.447-1.21a19.736,19.736,0,0,0,5.084-1.3,33.44,33.44,0,0,1,5.807-3.253c1.008-1.659,2.846-3.843,1.995-6.343.163-.379.586-.515.581-1.061-.832-2.571-1.891-4-4.294-5.031a20.868,20.868,0,0,0-3.332-1.444c-.666-.128-1.632.194-2.557.044a12.838,12.838,0,0,0-6.446.858c-.43.229-.689.819-1.185,1.074-.939.489-1.749.541-2.23,1.246-2.541.251-4.333,1.224-6.582,1.765a13.894,13.894,0,0,0-2.945,3.354,22.622,22.622,0,0,1-1.61,2.734c-.64.665-1.56.726-1.776,1.532-.2.753.535,1.51.04,2.1a9.683,9.683,0,0,1,2.455,2.967A23.742,23.742,0,0,0,345.26,528.481Zm4.482,7.281c-.192-1.263.695-1.488.709-2.566a1.168,1.168,0,0,0-1.358-.423c-.751.651-.1,1.475-.11,2.254-1.565,1.043-3.375-.273-4.522-.669-1.905-.656-4.558-.753-6.187-1.4-1.8-.7-2.936-2.447-4.56-2.927-1.284-1.5-3.558-3.266-2.209-6.123-.626-.96-1.7-.546-2.571-.85-.789-.286-1.083-1.052-1.83-1.624-.366-.282-.915-.321-1.214-.581-1.426-1.241-2.268-3.165-3.384-4.446-.569-1.937-.636-4.182-1.161-6.29a7.8,7.8,0,0,1-.347-2.7c.107-3.231-.9-6.594-.923-9.75-.011-1.246.677-2.395.837-3.614a39.451,39.451,0,0,0,.2-5.718,8.6,8.6,0,0,1,.848-3.015c.184-.559.077-1.321.27-1.814.125-.317.616-.555.736-.907.973-2.773.39-5.287,2.6-6.356.91-2.615,3.331-3.777,5.623-5.053,1.161.136,1.8-.533,2.846-.506.641.022,1.417.709,2.268.718.361,0,.829-.37,1.2-.326,1.52.176,2.7,1.541,3.606-.211a4.724,4.724,0,0,1,.982-3.922c.372-.519,1.093-.924,1.473-1.532.289-.453.332-1.114.578-1.51.588-.951,1.81-1.523,1.752-2.888a11.139,11.139,0,0,0,3.7-3.218c.313-.471.37-1.206.722-1.664,1.185-1.527,5.561-4.679,7.719-5.692.437-.207.923-.167,1.348-.326,1.878-.7,3.871-2.6,6.414-2.513.867.026,1.713.942,2.729,1.3.428.154.9,0,1.2.128,1.493.634,2.163,2.078,2.765,3.411a33.812,33.812,0,0,1-1.473,10.243c-.222.651-.356,1.439-.564,1.963-.356.858-1.289,1.519-1.613,2.43-.182.519-.059,1.158-.27,1.655-.77,1.778-2.774,3.006-2.922,5.009a12.338,12.338,0,0,0-4.011,2.624c-.939,1.078-1.383,2.641-2.345,3.5-.385.339-1.266.515-1.935.933-1.171.735-4.07,2.236-5.667,2.351-.77.062-1.295-.418-2.115-.559-.554-.1-1.078.119-1.5.022-.973-.216-2.017-1.3-3.164-.4.024.181-.029.273-.144.3.66,1.211-.077,2.307-.091,3.605-.011,1.263.607,2.571.669,3.9a27.342,27.342,0,0,1-.77,7.373c1.455,1.959-.516,3.825-.655,5.568-.033.418.457.775.473,1.193.009.2-.4.673-.433.911-.337,2.3.206,4.934-1.243,6.334,3.466-.841,6.745-3.134,9.832-4.833,2.089.511,4.084-1.017,6.148-.854,1.238.092,2.634.638,3.9-.374,1.431.317,2.474,1.633,4.228,1.131a10.564,10.564,0,0,1,3.058,2.949,12.4,12.4,0,0,1,2.273,9.724c-.121.634-.593,1.25-.719,1.968-.11.66.125,1.29-.115,1.954-.283.783-1.169,1.021-1.623,1.681-.664.968-.592,1.739-1.453,2.729-.714.81-1.893,1.519-2.519,2.293-.273.348-.342.977-.578,1.215-.217.216-.929.423-1.338.775a5.26,5.26,0,0,1-3.124,1.708c-.579-.779-2.051-.63-2.88-1.149a4.675,4.675,0,0,0-.853,2.712c-1.236,1.409-5.464,2.016-7.2.726" fill="#fff" fill-rule="evenodd"/>
      </g>
      <path id="Path_2692" data-name="Path 2692" d="M354.3,521.112c-1.228,1.475-6.138,4.283-6.754.572-.353-2.148,1.121-4.829,2.768-5.159,2.894-.568,4.978,1.479,3.986,4.587" fill="#fff" fill-rule="evenodd"/>
      <path id="Path_2693" data-name="Path 2693" d="M173.89,508.488c1.792.436,2.686-.933,3.721-1.866,1.88-1.69,1.58-2.628,1.4-5.881a3.876,3.876,0,0,0,.992-3.328c1.907-1.237,2.075-3.354,2.615-5.449.14-.55.616-1.052.717-1.668a24.638,24.638,0,0,0-.289-8.1c-.136-.621-.717-1.175-.786-1.792a5.907,5.907,0,0,0-.645-2.69,11.534,11.534,0,0,0-5.122-.515c-3.463.462-5.306,3.328-6.66,5.828a4.9,4.9,0,0,1-1.584,3.781c-.318,1.8-.949,3.139-.818,4.82.25,3.345,2.614,6.114,1.064,9.446C169.335,504,171.146,507.823,173.89,508.488Zm-.712,2.267c-3.977-.282-6.742-3.574-5.394-7.567-1.137-1.946.409-4.719-.567-6.752a4.728,4.728,0,0,0-2.581-1.3,7.938,7.938,0,0,1-1.455-5.987c.342-1.73,2.865-2.663,2.326-4.393a4.748,4.748,0,0,0,1.035-.92c.029-1.549.476-2.7,1.6-3.187.105-.568-.194-.713-.17-1.2,2.148-1.95,3.685-5.128,7.565-5.542,3.544-.374,6.36,1.021,8.763,2.553,2.2,2.694,1.093,8.051,3.191,10.613a12.871,12.871,0,0,1-1.078,7.228,8.2,8.2,0,0,1-.385,3.614c1.252,2.571-.471,5.075-1.987,6.642-.011,2.676-2.929,3.235-2.455,5.9-.564,1.325-.719,3.046-1.58,4.089-1.878,1.321-2.277.084-3.327-1.149-.963-1.136-2.859-1.668-3.5-2.641" fill="#fff" fill-rule="evenodd"/>
      <path id="Path_2694" data-name="Path 2694" d="M229.862,503.756c1.99.968,3.068.6,5.416.357,2.123-1.492,3.448-3.759,5.009-5.793-.15-1.783,1.276-2.993,1.873-4.543.12-.313-.121-.682-.019-1.052.26-.955,1.15-2.007,1.3-2.879.141-.788-.172-1.836-.051-2.852.217-1.8.944-3.706,1.112-5.273.086-.792-.12-1.646-.045-2.4.2-1.893.984-3.517-.091-5.256,1.426-2.535.232-6.5.131-9.768a38.339,38.339,0,0,0-.863-6.295c-.241-1.193-.923-2.3-1.111-3.433-.328-2,.177-4.635-.848-5.7-.01-.453-.019-.9-.024-1.351-.957-4.006-3.1-6.783-4.541-10.286-.193-.206-.736-.053-.755-.438-.743-4.029-4.68-4.741-7.184-6.935-2.851-.449-5.793.294-8.4.9a8.517,8.517,0,0,1-4,3.37c-1.661,2.232-1.67,6.069-3.307,8.319,0,.4.014.806.019,1.206-2.576,1.285-1.762,5.56-2.1,8.6-.158,1.4-1.019,2.685-1.281,4.076-.337,1.8.107,3.271-.669,4.67,1.132,5.714-.514,14.271,3.178,18.571a2.514,2.514,0,0,0,.8,2.535,5.653,5.653,0,0,0,.674,4.345c.717,1.576,2.209,2.954,2.48,4.164.163.753-.153,1.492.034,2.1.428,1.369,1.674,1.695,2.455,2.813,1.6,4.5,5.711,6.418,9.466,8.7C229.1,504.2,229.2,503.712,229.862,503.756Zm-5.181,4.6a2.435,2.435,0,0,0-1.819-.867c-2.672-3.53-6.034-6.053-7.988-10.076-.683-1.4-.53-2.892-1.137-4.789-.5-1.554-1.777-3.367-1.6-5.529a4.107,4.107,0,0,1-.795-2.69c-1.343-2.034-1.271-4.877-2.383-7.32a77.905,77.905,0,0,1-.65-11.405c.027-.493-.358-.968-.329-1.5.019-.343.289-.572.284-.907,0-1.162-.409-2.395-.356-3.3.077-1.259,1.339-2.764,1.426-4.529.015-.374-.222-.854-.174-1.206.088-.643.5-1.3.569-1.959.217-2.012-.155-4.261.635-6.62.414-1.246,1.155-2.117,1.3-3.332.182-1.611.072-3.47.669-4.668.246-.49,1.006-.813,1.627-1.531,1.224-1.415,2.672-4.061,3.963-5.324a14.369,14.369,0,0,1,4.015-2.474c1.439-.693,1.719-.567,3.592-.813.939-.124,1.744-.629,2.393-.645,3.164-.067,6.457,2.907,8.046,4.668,4.617,2.153,5.628,8.039,7.738,12.784-.059,3.654,2.715,6.11,3.472,9.4.173.757.019,1.554.192,2.553.236,1.321.867,2.663,1.121,4.032.27,1.439-.217,2.989.829,4.195a22.323,22.323,0,0,0-.043,6.158c.1.528.548.968.626,1.492.15.986-.4,1.756-.4,2.866,0,.321.256.907.323,1.343.757,4.688-.134,8.883-1.271,13.241a4.4,4.4,0,0,1,.49,2.245c-.188.933-1.242,1.356-1.916,2.289-.139.194.062.625-.136.9-.11.163-.616.251-.741.462-.442.757-.511,1.831-.856,2.421s-1.006.964-1.329,1.527c-.217.37-.107.828-.28,1.2-.519,1.136-1.685,1.959-2.049,3.042.563,3.306-1.9,6.387-5.475,4.75-3.466,1.043-7.684.585-11.576-.1" fill="#fff" fill-rule="evenodd"/>
      <path id="Path_2695" data-name="Path 2695" d="M413.891,491.233a33.41,33.41,0,0,0,12.047,1.593c.15-.5.309-.986.887-1.07a5.971,5.971,0,0,0,4.069.682c1.776-2.258,5.079-1.527,7.765-2.694,1.1-2.144,4.6-3.455,3.349-6.515-.92-.722-1.787-.546-2.871-.555-.78,0-1.537-.453-2.412-.555-.574-.07-1.228.136-1.8.031-.795-.145-1.424-.779-2.271-1.012-.722-.194-1.8-.057-2.712-.255-1.835-.4-3.962-1.268-6.018-.493-3.087-.678-7.636-.084-9.894,1.373-.246.273-.505-.123-1.056.022a12.636,12.636,0,0,1-3.716,2.166c-.906,1.646-.737,4.12-.5,6.017C410.935,489.463,413.063,489.6,413.891,491.233Zm1.888,4.926c-.5.009-1,.013-1.5.022-2.22-1.409-6.471-2.395-8.2-4.811-1.749-2.447-.9-4.675.019-7.664,1.738-1.457,2.8-2.751,5.339-3.847.476-.207,1-.4,1.492-.629A42.555,42.555,0,0,1,420.1,477a7.435,7.435,0,0,0,3.169.546c1.391-.088,2.889-.726,4.343-.678.712.022,1.405.449,2.113.418,1.078-.057,2.258-.7,3.308.088,2.137-.238,3.624-.308,5.272.66a23.28,23.28,0,0,1,6.636,1.237c1.571,1.919,4.076,4.076,3.737,7.443-.075.678-.585,1.193-.722,1.818-.286,1.285-.189,2.628-.836,3.772-2.1,1.263-4.82,4.5-8.641,4.353-1.171-.04-2.9-.845-4.218-.528-2.1.506-3.153,1.888-5.967,2.509a41.976,41.976,0,0,1-5.695.85c-3.188.26-4.98-1.66-6.823-3.332" fill="#fff" fill-rule="evenodd"/>
      <path id="Path_2696" data-name="Path 2696" d="M234.163,500.38c-.088-.819.038-1.439.567-1.668,2.316-.207,1.1,3.033-.567,1.668" fill="#fff" fill-rule="evenodd"/>
      <path id="Path_2697" data-name="Path 2697" d="M231.871,498.461a1.491,1.491,0,0,1,.332,1.651c-2.075,2.047-3.312-1.91-.332-1.651" fill="#fff" fill-rule="evenodd"/>
      <path id="Path_2698" data-name="Path 2698" d="M329.7,497.959c-2.605-1.95-.554-11.744,3.26-11.326,1.42.158,2.2,2.109,2.027,4.323-.034.44-.53,1.078-.574,1.664-.2,2.976-.953,5.96-4.713,5.339" fill="#fff" fill-rule="evenodd"/>
      <path id="Path_2699" data-name="Path 2699" d="M227.08,499.3c-.353-.044-.65-.145-.762-.44a.68.68,0,0,1,1.195-.475c.091.533-.232.665-.433.916" fill="#fff" fill-rule="evenodd"/>
      <path id="Path_2700" data-name="Path 2700" d="M172.989,499.94c-.583-.22-.736-1.184-1.236-1.928-.342-.506-.848-.647-.925-1.184-.115-.814.818-1.479,1.305-2.879.246-.717.067-1.589.26-2.258.227-.779,2.465-4.085,3.081-4.257.909-.26,1.628.383,2.11.264a8.716,8.716,0,0,0,1.078,1.479c-.014,1.5.39,3.191.082,4.8-.4,2.126-1.479,4.824-2.605,5.6a4.381,4.381,0,0,1-3.15.357" fill="#fff" fill-rule="evenodd"/>
      <path id="Path_2701" data-name="Path 2701" d="M221.494,497.9c.189-.9.815-1.378,2.08-1.241a2.1,2.1,0,0,1,.328,1.492c-.583.669-2.123.6-2.409-.251" fill="#fff" fill-rule="evenodd"/>
      <path id="Path_2702" data-name="Path 2702" d="M236.819,497.624c.12-1.664.695-3.645,2.65-3.05.741,1.919-1.248,4.1-2.65,3.05" fill="#fff" fill-rule="evenodd"/>
      <path id="Path_2703" data-name="Path 2703" d="M219.014,493.733a1.724,1.724,0,0,1,2.374-1.695c1.377,1.937-1.522,3.57-2.374,1.695" fill="#fff" fill-rule="evenodd"/>
      <path id="Path_2704" data-name="Path 2704" d="M427.435,483.785c.4,3.3-2.541,3.825-4.424,4.732a2.642,2.642,0,0,1-1.209-.277c-1.281-.823-1.888-3.4-.38-4.648,1.549-1.294,4.125-.911,6.013.194" fill="#fff" fill-rule="evenodd"/>
      <path id="Path_2705" data-name="Path 2705" d="M239.087,490.075c.131-1.5-.452-3.794,1.132-4.226,2.351.255,1.214,6.537-1.132,4.226" fill="#fff" fill-rule="evenodd"/>
      <path id="Path_2706" data-name="Path 2706" d="M216.481,486.263a1.706,1.706,0,0,1,2.562.409c.246,2.483-3.466,1.822-2.562-.409" fill="#fff" fill-rule="evenodd"/>
      <path id="Path_2707" data-name="Path 2707" d="M214.745,481.637a1.393,1.393,0,0,1,2.386-1.092c.482,1.765-1.723,2.113-2.386,1.092" fill="#fff" fill-rule="evenodd"/>
      <path id="Path_2708" data-name="Path 2708" d="M240.585,481.034c-1.218-1.431-.592-3.706-.25-5.551,3-1.307,2.546,5.4.25,5.551" fill="#fff" fill-rule="evenodd"/>
      <path id="Path_2709" data-name="Path 2709" d="M215.808,473.656c.289,2-1.94,1.761-2.089.634a1.128,1.128,0,0,1,2.089-.634" fill="#fff" fill-rule="evenodd"/>
      <path id="Path_2710" data-name="Path 2710" d="M354.4,466.732c.011.4.014.8.024,1.2C356.373,468.915,356.1,465.816,354.4,466.732Zm-2.244.638c.4-1.875.366-4.155,1.864-5.287a15.337,15.337,0,0,0,2.552-.2c1.093.955,2.153,1.673,1.57,3.878-.072.282-.588.651-.732,1.065-.153.431-.008.854-.134,1.052-.733,1.219-2.635,2.073-3.424,1.862-.92-.247-.973-1.6-1.7-2.373" fill="#fff" fill-rule="evenodd"/>
      <path id="Path_2711" data-name="Path 2711" d="M240.1,470.676c.034-1.747-1.089-5.115.66-5.269,2.1-.18,2.378,7.809-.66,5.269" fill="#fff" fill-rule="evenodd"/>
      <path id="Path_2712" data-name="Path 2712" d="M225.337,451.11c-2.932-.6-1.829,3.627-1.42,4.824C225,454.944,225.39,452.739,225.337,451.11Zm5.176,3.962c-.225.277-.875.136-.891.621.356.035.569.224,1.054.128C230.59,455.6,230.841,455.041,230.512,455.072Zm-3.624-.99a1.411,1.411,0,0,0-.409,2.117C226.9,455.705,227.923,454.675,226.888,454.081Zm-.709,2.417c-.034.216-.241.26-.294.458C226.265,457.431,226.81,456.59,226.179,456.5Zm3.226,4c-.057.26-.192-.031-.447.009C228.784,461.269,229.964,460.816,229.4,460.5Zm-6.3.563c-.829-.062-1.69,2.1-.7,3.015C223.762,464,223.6,461.846,223.1,461.063Zm1.266-13.694c1.343-1.285,4.084-2.122,5.994-.854.353,1.149,1.575,1.681,1.854,2.822.313,1.268-.3,3.389-.211,5.106.034.6.356,1.373.331,1.8-.048.96-1.231,2.923-1.718,4.838-.163.651.024,1.4-.115,1.954-.173.7-.824,1.2-1.171,1.972-.548,1.232-.592,2.852-.987,3.627a4.837,4.837,0,0,1-5.821,2.2,5,5,0,0,1-2.287-1.765c-.376-.77-.077-1.959-.2-3a32.814,32.814,0,0,1-.674-4.345c.059-1.875-.158-5.163.476-6.92,1.078-2.993,2.851-4.789,4.531-7.439" fill="#fff" fill-rule="evenodd"/>
      <path id="Path_2713" data-name="Path 2713" d="M213.328,469.347A2.845,2.845,0,0,1,213,467.7a2.082,2.082,0,0,1,1.5-.326c.741.845.009,2.522-1.171,1.976" fill="#fff" fill-rule="evenodd"/>
      <path id="Path_2714" data-name="Path 2714" d="M416.755,431.542c-1.968,1.174-1.862,3.523-2.608,5.454-.251.64-.92,1.155-1.171,1.824-1.608,4.212,1.228,8.046,1.118,12.448.971.788.851,2.042,1.4,2.98.925,1.576,3.926,4.534,6.678,3.79,1.137-.313,3.535-3.8,4.257-5.634a16.2,16.2,0,0,0,.669-4.82c.083-1.409.679-2.782.684-3.768.014-1.087-.482-2.452-.516-3.743a8.827,8.827,0,0,0-.038-2.252,11.949,11.949,0,0,0-2.8-5.511c-1.166-1.6-2.375-3.528-5.007-2.768-.449.453-.088,1.69-.867,1.819C417.959,431.427,417.113,431.25,416.755,431.542Zm-5.184,21.575c-.583-4.208-1.744-8.029-1.412-12,.091-1.127.736-2.32.987-3.625.144-.736-.067-1.594.112-2.253.364-1.343,1.867-2.887,2.937-4.11,2.1-2.417,5.542-5.858,9.712-3.172a16.65,16.65,0,0,1,2.6,2.959c.773,1.1,1.078,2.523,2.166,3.568a15.533,15.533,0,0,0,1.151,5.538c.241,3.114-.8,5.865-.011,8.26-.674,3.191-2.493,5.269-3.154,8.469-1.9,1.4-3.25,3.728-5.941,4.01-4.565.484-7.271-4.609-9.153-7.65" fill="#fff" fill-rule="evenodd"/>
      <path id="Path_2715" data-name="Path 2715" d="M213.362,462.731c1.744-1.294,2.233,1.739.631,1.492-.54-.079-.767-.907-.631-1.492" fill="#fff" fill-rule="evenodd"/>
      <path id="Path_2716" data-name="Path 2716" d="M214.2,458.963c-.2,0-.4,0-.6.009-.005-.251-.005-.5-.01-.748.2-.009.4-.009.6-.013,0,.251,0,.5.008.753" fill="#fff" fill-rule="evenodd"/>
      <path id="Path_2717" data-name="Path 2717" d="M239.728,457.766c-.548-.128-.1-.44-.168-.9.61.031.457.665.168.9" fill="#fff" fill-rule="evenodd"/>
      <path id="Path_2718" data-name="Path 2718" d="M213.226,454.772c-.265-1.109.732-1.479,1.335-.924.38,1.14-.8,1.549-1.335.924" fill="#fff" fill-rule="evenodd"/>
      <path id="Path_2719" data-name="Path 2719" d="M213.905,450.555c-.289-.317-.124-1.1-.182-1.651,1.936-1.4,2.469,2.535.182,1.651" fill="#fff" fill-rule="evenodd"/>
      <path id="Path_2720" data-name="Path 2720" d="M237.629,449.538c.057-.361-.28-.321-.163-.748.177.022.268-.035.3-.154.424.022.644.251.617.74a.964.964,0,0,1-.751.163" fill="#fff" fill-rule="evenodd"/>
      <path id="Path_2721" data-name="Path 2721" d="M419.836,444.705a2.409,2.409,0,0,1-2.1-.26c-2.615-1.981.169-7.781,2.873-7.411s1.807,6.487.131,7.508a2.955,2.955,0,0,1-.9.163" fill="#fff" fill-rule="evenodd"/>
      <path id="Path_2722" data-name="Path 2722" d="M215.326,445.872c-.375.035-.471-.224-.755-.286.1-.541.279-1.008,1.035-.916.134.572.129.867-.28,1.2" fill="#fff" fill-rule="evenodd"/>
      <path id="Path_2723" data-name="Path 2723" d="M236.912,442.94c.2.995-.689,1.778-1.329,1.078-.232-1.03.567-1.439,1.329-1.078" fill="#fff" fill-rule="evenodd"/>
      <path id="Path_2724" data-name="Path 2724" d="M151.019,429.57c1.118.241,2.375-.66,3.437-.963,1.941-2.311,2.957-5.516,4.214-8.485-.077-4.4.8-9.925.038-15.021-.182-1.218-.987-2.344-1.118-3.59-.105-1.03.28-2.1.1-3-.206-1.054-1.116-2.063-1.554-3.128a7.421,7.421,0,0,0-1.7-2.825c-1.228-1.5-1.709-3.63-3.827-3.836,0-.562-.385-.727-.616-1.044-2.73-1.035-6.866-.861-8.855.755-1.531,2.849-3.886,5.2-4.969,8.047.438,3.9-2.748,8.346-1.728,12.8-1.723,2.863,1.107,5.289-.008,8.109.567,1.5,1.64,2.484,1.583,4.63a31.9,31.9,0,0,0,3.876,6.844c2.075,1.517,3.587,4.438,7.425,3.625C149.008,431.957,149.661,430.421,151.019,429.57Zm-3.65,6.222c-.875-1-1.915-.187-3-.1a10.306,10.306,0,0,1-5.893-1.7c-.26-.236-.428-.918-.776-1.338-.588-.712-1.5-1.228-1.835-1.771-.39-.64-.505-1.733-.944-2.536-.246-.447-.765-.92-.924-1.332-.689-1.816.076-4.053-.559-6-1.2-1.011-.839-1.964-.815-3.59.034-1.854-.5-4.187-.4-6.151.067-1.516.144-3.105.217-4.665a27.314,27.314,0,0,1,7.055-17.7c.076-3.773,8.888-5.425,12.705-3.981,2.3.877,4.285,4.245,5.817,6.059.067,2.715,3.332,4.861,4.175,6.686,1,2.161.076,3.047-1.128,4.379-.284,1.9.261,3.4.545,5.246.543,3.587-.738,7.6.193,10.965a2.037,2.037,0,0,0-.714,2.416,5.559,5.559,0,0,0,4.624-2.185c1.969-.741,3.4-2.012,5.96-2.806,1.42-.437,3.5-1.635,3.621.837-1.723.9-4.935.353-5.975,1.907-1.926-.034-2.191,1.525-4.031,1.573-1.035.564-1.482,1.95-2.661,2.6-.468.26-1.041.153-1.493.476-1.131.808-1.941,2.753-3.087,3.96-.237.251-.762.2-1.045.467a20.328,20.328,0,0,0-2.34,3.649c-.832,1.328-2.239,2.416-2.5,3.349-.342,1.247.322,2.531-.535,3.614.038.827.795.91,1.078,1.483,2.495.817,5.023,1.512,7.978.914,1.46-.3,2.837-1.241,4.333-1.578.762-.174,1.513-.04,2.249-.193a36.437,36.437,0,0,0,5.224-2.041,17.736,17.736,0,0,0,7.28-4.938c4.228-2.263,8.147-4.832,8.676-10.666a19.626,19.626,0,0,0-2.635-4.759c-3.5-.452-6.513.524-9.768.019,1.03-2.089,3.948-1.482,6.577-1.916.081-1.236-1.1-1.881-.949-2.691,2.639-.578,3.549,1.926,4.868,3.22a4.15,4.15,0,0,1,3.193,2.2c.2.453.129,1.166.332,1.8.23.722.832,1.361.934,1.939.361,2.065-1.03,3.889-1.1,5.728-1.286,1.623-1.893,3.668-3.217,5.16-.918,1.049-2.362,1.622-2.8,3.056-1.709.511-3.105,1.786-5.234,1.444-3.544,3.119-9.048,4.361-13.41,6.69-2.768.357-6.754.088-10.052.629-1.719.286-2.981,1.356-4.5.678-2.629-1.162-2.811-4.854-3.308-8.5" fill="#fff" fill-rule="evenodd"/>
      <path id="Path_2725" data-name="Path 2725" d="M232.2,439.72a3.563,3.563,0,0,1-1.233-1.78c.28-.27.457-.646.738-.915,2.012-.232,3.394,2.81.5,2.694" fill="#fff" fill-rule="evenodd"/>
      <path id="Path_2726" data-name="Path 2726" d="M456.15,432.81c.07-2.311,3.874-1.487,4.05-.376.3,1.843-3.306,1.594-4.05.376" fill="#fff" fill-rule="evenodd"/>
      <path id="Path_2727" data-name="Path 2727" d="M449.512,431.119c1.439-1.231,3.816.655,3.79,1.886-1.092,1.752-4.582.169-3.79-1.886" fill="#fff" fill-rule="evenodd"/>
      <path id="Path_2728" data-name="Path 2728" d="M228.071,435.737a3.8,3.8,0,0,1,.125-1.508c.695-.067.93-.573,1.8-.482,1.405.983-.2,2.806-1.922,1.99" fill="#fff" fill-rule="evenodd"/>
      <path id="Path_2729" data-name="Path 2729" d="M219.915,433.324a1.91,1.91,0,0,1,1.647-.332c.177.227.2.616.461.746a1.083,1.083,0,1,1-2.108-.414" fill="#fff" fill-rule="evenodd"/>
      <path id="Path_2730" data-name="Path 2730" d="M465.715,429.937c-.5-2.282,1.514-2.729,2.646-3.649a8.052,8.052,0,0,0,2.056-2.595c.22-.49.1-1.2.418-1.805.423-.8,1.382-1.25,1.924-1.988a17.618,17.618,0,0,0,1.448-3.032,17.047,17.047,0,0,0,1.431-4.23c.427-2.2,2.113-4.144,2.593-6.2.313-1.324.246-3.351.511-5.267a70.094,70.094,0,0,0,.423-10.377,59.913,59.913,0,0,0-.136-7.657c-.154-1.14-.916-2.219.092-3.307,1.919.2.788,2.228.81,3.293.018.88.709,1.756.8,2.839.084.968-.467,2.017-.4,3.012.088,1.271.88,2.48.968,3.74.048.674-.229,1.4-.26,2.258-.092,2.758.449,6.536-1.356,8.283.207,2.33.22,6.465-1.056,8.582-.453.757-1.818,1.613-1.444,3.33-1.241.66-1.171,2.34-1.734,3.937-.475,1.357-1.862,2.32-1.589,3.783-.779,1.02-2.425,1.2-2.659,2.753a12.766,12.766,0,0,1-2.082.934c-.4,1.6-.854,4.9-3.4,3.365" fill="#fff" fill-rule="evenodd"/>
      <path id="Path_2731" data-name="Path 2731" d="M225.486,433.979c-2.971.548.659-4.231,1.03-1.217.107.837-.385,1.1-1.03,1.217" fill="#fff" fill-rule="evenodd"/>
      <path id="Path_2732" data-name="Path 2732" d="M173.066,427.082c.789,3.176-.832,6.006-2.884,6.809-2.6,1.016-5.089-.019-5.151-2.314-.1-3.393,4.863-7.271,8.035-4.495" fill="#fff" fill-rule="evenodd"/>
      <path id="Path_2733" data-name="Path 2733" d="M386.681,413.436c.7.958,1.912,1.078,2.741,1.907,5.339.755,5.585-4.36,9.522-5.42a19.792,19.792,0,0,1,5.177-4.6c-.15-3.446,3.183-3.523,3.649-6.373.3-.3.987-.227,1.035-.77.283-.2-.182-.664.136-1.054,1.02-2.17,2.368-4.23,2.581-6.955.12-1.531-.545-2.9-.53-4.495.014-1.035.586-2.167-.053-3.157a5.379,5.379,0,0,1-1.377-1.479,19.571,19.571,0,0,1-3.314-.389c-3.143-.188-6.221,1.664-8.516,3-.5.294-1.1.4-1.487.626-2.278,1.324-3.8,4.1-5.009,5.944.048.511.39.717.323,1.348-.505,1.236-1.733,1.771-2.966,2.306-.188,1-1.415,1.819-1.6,3.032-.091.6.261,1.222.184,1.8-.067.476-.511.842-.578,1.362-.067.5.12,1.121.024,1.5-.232.949-1.2,1.565-1.31,2.426-.053.428.351,1.155.332,1.8a13.783,13.783,0,0,0,.058,3.451c-.179.612-.756.842-.872,1.516C385.879,411.3,386.037,412.556,386.681,413.436Zm.674,4.2a54.511,54.511,0,0,0-3.249-5.353c-.009-.548-.019-1.1-.03-1.651-1.728-1.621-.693-3.879-.418-6.752.289-3,.611-5.731,2.287-6.951-.347-4.513,2.734-5.727,3.75-8.927,3.539-2.651,6.36-7.316,11.417-8.914.838-.265,1.833-.351,2.691-.65a23.921,23.921,0,0,1,2.239-.939c2.565-.562,4.526.78,6.346,1.993a8.152,8.152,0,0,0,1.242,2.383c.824,6.429-1.2,10.511-3.049,14.776a28.279,28.279,0,0,1-2.9,5.757,30.813,30.813,0,0,1-1.907,2.737c-.423.467-1.1.6-1.482,1.078s-.5,1.171-.872,1.666c-.473.634-1.31.963-1.777,1.535-.564.683-.911,1.5-1.47,2.127a22.9,22.9,0,0,0-1.616,1.983c-.987.179-1.58.738-2.693.8a7.039,7.039,0,0,1-8.508,3.3" fill="#fff" fill-rule="evenodd"/>
      <path id="Path_2734" data-name="Path 2734" d="M290.958,387.918c-.679,1.511-.794,3.683-1.406,5.583-.158.492-.684.824-.88,1.367-.246.7-.1,2.027-.4,3.014-.163.544-.559.986-.578,1.362-.034.616.516,1.352.636,2.093.423,2.561.231,4.655.87,6.744a14.363,14.363,0,0,0,1.714,3.577c.815,1.068,2.437,1.472,2.9,2.652a3.817,3.817,0,0,0,2.4-.193,4.075,4.075,0,0,0,1.214.583c2.595-.409,4.964.669,7.054-.728a11.635,11.635,0,0,0,6.881-1.771c.544-.342.915-1.016,1.477-1.377.526-.337,1.425-.385,2.091-.789,1.169-.712,1.728-1.881,3.423-2.012a64.689,64.689,0,0,1,6.374-4.918,1.246,1.246,0,0,0,.134-.906c1.936-.985,2.3-3.484,4.132-4.577a13.407,13.407,0,0,1,3.193-6.367,12.547,12.547,0,0,1,1.718-4.986c-.081-2.065,1.078-5.14,1.372-7.384-.765-2.044.125-4.489.039-6.463-.16-3.547-2.307-5.65-3.3-8.35a39.9,39.9,0,0,0-4.565-3.226c-.957-.485-5.237-.206-5.435-1.558-.136-.9,1.289-1.589,2.223-1.69a41.216,41.216,0,0,1,6.173.64c1.364.2,2.091,1.487,3.332,1.594a14.2,14.2,0,0,1,3.718,6.4c.457,1.424,1.266,2.309,1.42,3.73.038.39-.139.776-.131,1.2.048,1.758.949,3.85.848,5.4-.062.9-1.006,2.483-1.137,3.922-.053.573.107,1.116.029,1.656a16.654,16.654,0,0,1-1.006,2.719,37.57,37.57,0,0,0-.794,5.872c-.188,1.391-.973,1.955-1.455,3.033-.447,1.015-.54,1.887-1,2.719a17.166,17.166,0,0,1-1.315,2.277c-.751.968-2.209,2.247-2.484,3.952a26.891,26.891,0,0,1-2.817,2.3c-2.522,1.763-4.275,4.4-7.256,5.987-1.1.583-2.528.636-3.736,1.266-.918.478-1.343,1.575-2.22,2.142-1.328.861-2.841.784-3.876,1.873-.5.01-1,.019-1.5.024-1.589.525-4.695,1.728-6.725,2.219-.473.115-1.642-.49-2.263-.557-1.835-.193-3.592.254-5.114-.213-2.49-.765-3.65-2.82-5.782-3.955-.588-1.353-2.043-3.793-2.351-5.666-.091-.535.192-1.078.12-1.656s-.583-1.092-.631-1.64c-.038-.428.285-.915.28-1.358-.029-1.584-.834-3.941.659-5.121-.712-2.046.535-3.269.666-4.967,1.386-1.376.92-5.308,3.062-5.463" fill="#fff" fill-rule="evenodd"/>
      <g id="Group_107" data-name="Group 107" clip-path="url(#clip-path-3)">
        <path id="Path_2735" data-name="Path 2735" d="M92.558,412.114c3.79-.088,6.135-3.86,8.165-5.556,1.561-3.411,5.451-4.577,7.382-7.638,3.736-1.781,6.047-8.336,4-12.084-.928-1.7-2.244-4-3.982-4.438-2.209-.564-4.531,1.231-7.347,1.179-3.793,1.651-6.417,4.433-9.648,6.627-.931.848-1.118,2.07-1.9,3.036-.43.525-1.19.65-1.637,1.078-.265.26-.419.736-.732,1.069-1.244,1.314-1.233,2.016-1.137,3.623.115,1.993-1.185,4.357-1.242,6.329a7.633,7.633,0,0,1,.971,4.039C86.673,411.449,89.8,412.176,92.558,412.114ZM87.989,417.3c-2.841-2.619-4.036-6.936-5.6-10.873a22.169,22.169,0,0,1,.6-8.571c.636-2.493,3.3-5.3,4.98-7.447,1.945-2.478,4.194-3.647,6.668-5.375a9.262,9.262,0,0,1,2.827-1.551c.736-.244,1.111-.976,1.632-1.231.578-.284,1.367-.236,2.094-.487,1.112-.385,2.148-1.108,2.835-1.252a17.132,17.132,0,0,1,5.408-.244c4.136.6,6.1,5.664,5.893,10.559a13.343,13.343,0,0,1-2.576,7.407c.067,1.939-.781,2.983-1.431,4.235-.918.337-1.386,1.121-2.378,1.391-.033,1.689-1.848,2.113-1.9,3.339-1.773,1.7-4.729,2.846-6.833,4.625-.939.789-1.53,2.282-2.5,2.749-.385.177-1.14.14-1.646.327-2.639.977-4.888,3.172-8.074,2.4" fill="#fff" fill-rule="evenodd"/>
      </g>
      <path id="Path_2737" data-name="Path 2737" d="M145.622,404.576c.819.222,1.843.231,2.715.4,1.661,1.878.695,5.054,1.2,8.24-.765.618-1.126,2.344-2.206,2.894-1.738.889-4.015.081-4.381-1.575-.481-2.151.53-6.718,1.06-7.98a4.082,4.082,0,0,1,1.618-1.983" fill="#fff" fill-rule="evenodd"/>
      <g id="Group_108" data-name="Group 108" clip-path="url(#clip-path-4)">
        <path id="Path_2738" data-name="Path 2738" d="M537.228,385.574c3.627,1.348,7.73.289,11.414-.346,3.416-1.728,7.056-3.234,8.143-7.206,2.839-1.068,1.8-5.471,2.566-8-1.065-2.143-3.878-3.938-6.391-4.55-.308-.076-.647.227-1.052.168-.88-.124-1.466-.754-2.267-.712-3.552.2-5.8,2.624-8.958,3.462-.876,1.319-1.91,2.483-2.786,3.807-3.565,1.755-2.465,7.426-4.626,10.295C535.234,382.851,536.167,384.274,537.228,385.574Zm14.583,8.761c-.673-1.147.418-1.792.7-2.715.194-.645-.026-1.565.26-2.263.489-1.207,1.505-1.833.1-3.152-2.456.177-4.138,2.595-6.713,2.969-.59.086-1.3-.211-1.954-.115-.607.092-1.056.592-1.642.779a30.789,30.789,0,0,1-4.05.521,12.15,12.15,0,0,1-4.952.086c-1.338-1.26-1.7-3.537-2.351-5.516a10.854,10.854,0,0,0,1.158-2.122c-.326-.786-1.14-1.059-1.527-1.776-.643-6.867,3.5-9.872,6.37-13.785a12.778,12.778,0,0,0,5.357-2.946c.665-.607,1.118-1.463,1.924-1.838a20.055,20.055,0,0,1,9-.9c1.937.321,3.033,1.79,5.59,1.7.449.5,1.074.822,1.527,1.322,1.915-.364,3.363,1.96,3.508,3.245.092.789-.528,1.694-.4,2.411.449,2.632,3.3,1.674,5.744,2.156,1.312.251,2.091,1.161,3.332,1.29a18.757,18.757,0,0,1,3.315.4c.44.053.515.482.907.583.211,2.665.291,5.225.594,7.951.339,3.109.7,7.113.018,9.765-.291,1.747.955,9.069-1.5,8.592-1.919-.376.321-2.466-.665-3.6-.665.144-.361,1.222-.418,1.958-1.5,1.063-2.5,2.614-4.912,2.791-1.109-1-.141-3.368.048-5.857.044-.53-.106-1.319-.026-1.805.189-1.236.836-2.21.832-3.922-.009-1.94.079-4.625-.1-5.853-.15-.987-.907-1.969-1.1-2.839-.088-.4.088-.738-.018-1.049-.357-1.075-1.558-1.893-1.409-3.432-1.717-1.083-3.244-3.2-6.044-1.843-1.8,1.988.528,7.055-2.421,7.855a4.872,4.872,0,0,0-.343-2.4c-1.3.872-3.319,2.344-3.988,3.975-.537,1.31-.057,2.94-.977,4.227.185,3.339-.312,6.666.607,9,.145.366.59.64.77,1.041,1.03,2.29.836,4.735,3.1,5.655,0,1.1,1,1.515.946,2.387-.088,1.29-1.919,1.6-2.839,1.247a12.281,12.281,0,0,1-2.9-2.5,20.157,20.157,0,0,1-.942-2.387c-.709-1.5-2.3-2.667-2.615-3.413-.863-2.074.291-3.388.066-4.808-.057-.747.942-.468,1.034-1.068" fill="#fff" fill-rule="evenodd"/>
      </g>
      <path id="Path_2740" data-name="Path 2740" d="M305.177,410.352c.409-.115.308.294.607.294.192,2.357-2.49.225-.607-.294" fill="#fff" fill-rule="evenodd"/>
      <path id="Path_2741" data-name="Path 2741" d="M301.9,411.916c-.3-.294-.112-.856-.024-1.2.3-.005.6-.011.9-.014.347.644.01,1.338-.88,1.217" fill="#fff" fill-rule="evenodd"/>
      <path id="Path_2742" data-name="Path 2742" d="M297.223,410.943c-.246-1.712,2.084-1.645,1.8.121-.372.524-1.506.318-1.8-.121" fill="#fff" fill-rule="evenodd"/>
      <path id="Path_2743" data-name="Path 2743" d="M308.162,409.1c.385-1.386,2.851-1.7,3.721-1.718,1.551,2.3-2.691,2.946-3.721,1.718" fill="#fff" fill-rule="evenodd"/>
      <path id="Path_2744" data-name="Path 2744" d="M293.582,409.052a1.568,1.568,0,0,1,.11-2.252c2.23-.5,2.094,3.317-.11,2.252" fill="#fff" fill-rule="evenodd"/>
      <path id="Path_2745" data-name="Path 2745" d="M313.819,406.3c.1-.3.4-.409.746-.466.067.134.134.268.3.3-.219.505-.666.457-1.051.169" fill="#fff" fill-rule="evenodd"/>
      <path id="Path_2746" data-name="Path 2746" d="M392.806,402.666a4.215,4.215,0,0,1-.538-4.949c.244-.509.321-1.241.572-1.659a21.152,21.152,0,0,1,1.921-1.84c1.027-1.188,1.714-2.612,2.663-2.6a3.064,3.064,0,0,1,2.282,1.613c1.632,3.484-1.19,7.065-2.851,9.062a3.1,3.1,0,0,1-4.049.372" fill="#fff" fill-rule="evenodd"/>
      <path id="Path_2747" data-name="Path 2747" d="M292.451,404.721c-.043-.586.144-.948.583-1.064.977.136.254,1.835-.583,1.064" fill="#fff" fill-rule="evenodd"/>
      <path id="Path_2748" data-name="Path 2748" d="M317.382,403.68c-.005-.351-.27-.437-.169-.894.313-.1.425-.38.9-.318.361.492.23,1.536-.732,1.212" fill="#fff" fill-rule="evenodd"/>
      <path id="Path_2749" data-name="Path 2749" d="M102.577,392.106c2.813,4.976-3.153,9.39-6.567,11.383-2.186,1.274-5.017-.912-4.57-3.523.16-.939,1.725-2.619,2.495-3.654,1.762-2.368,4.421-5.1,8.642-4.206" fill="#fff" fill-rule="evenodd"/>
      <path id="Path_2750" data-name="Path 2750" d="M291.609,399.475c.1-1.978,1.217-4.235,1.083-6.931,1.8-2.2,1.848-6.084,4.376-7.585.428-2.739,2.619-3.774,3.043-6.512,2.051-1.118,4.1-2.247,4.569-4.885a27.37,27.37,0,0,0,5.306-6.1c2.07-1.943,5.841-3.017,9.722-2.723-.671,2.849-4.574,2.571-7,3.726a6.278,6.278,0,0,1-2.522,1.847c-1.5,1.652-2.595,3.7-4.569,4.886-.27.629-.818.986-.872,1.819-2.586,2.724-5.638,4.99-7.059,8.837-1.393.578-1.131,2.742-2.5,3.344-.346,2.084-1.281,3.59-1.549,5.741-.01.578-.6.6-.732,1.064.03,1.021.3,4.047-1.295,3.475" fill="#fff" fill-rule="evenodd"/>
      <path id="Path_2751" data-name="Path 2751" d="M562.525,388.439a6.175,6.175,0,0,0,.031,1.5c.15,0,.3,0,.449-.01C563.119,389.353,563.1,388.679,562.525,388.439Zm-1.285-4.785c2.4-1.774,4.424.968,4.723,3.523.264,2.292-1.615,6.262-3.191,6.667a2.259,2.259,0,0,1-2.425-1.011c-.176-.413.163-1.083.123-1.656-.1-1.592-.581-3.716-.238-5.1.251-1.006,1.056-1.395,1.008-2.421" fill="#fff" fill-rule="evenodd"/>
      <path id="Path_2752" data-name="Path 2752" d="M308.965,386.551a4.745,4.745,0,0,1-.779-1.785c.463-.246.658-.741,1.03-1.073a2.023,2.023,0,0,0-1.367-.877,2.434,2.434,0,0,0-.882,1.219c.647.2.671,1.044.786,1.79a11.8,11.8,0,0,0-1.936.934c.015.856-.15.958.174,1.5C307.844,388.656,308.753,388.072,308.965,386.551Zm-1.728,4.237c-.659.009-1.45.658-1.03,1.223a.886.886,0,0,1,.751-.016C307.333,391.625,307.1,391.1,307.237,390.788Zm6.119-11.07c.16,1.087.818,2.469.813,3.59,0,.631-.457,1.2-.567,1.964-.14.968.182,2.4.058,3.3a21.128,21.128,0,0,1-.858,2.571c-.731,2.237-1.252,6.252-4.087,6.68-3.341.505-3.934-2.474-4.753-5.174-.535-1.776-1.247-3.081-.241-5.107.294-.583,1.011-.947,1.474-1.675,1.2-1.891.626-4.732,2.306-5.9.877-.61,2.249-.53,2.832-1.1.861.438,2.388.179,3.023.848" fill="#fff" fill-rule="evenodd"/>
      <path id="Path_2753" data-name="Path 2753" d="M243.3,343.985a24.638,24.638,0,0,0-1.3,2.724c-.107.478.091,1.021.027,1.5-.081.586-.466,1.131-.573,1.664-.505,2.445-.177,4.481-.182,6.912,0,1.092-.457,2.3-.385,3.609.091,1.709.736,3.889.851,5.843.064,1.059-.2,2.084-.1,2.859.182,1.361,1.421,1.733,1.4,2.83,3.294,3.4,8.191.255,11.249-1.551-.184-3.417,2.123-4.942,1.656-8.441,1.8-1.776,1.3-4.885,1.522-7.538.2-2.406.505-6.241-.289-7.954-.241-.511-1.074-1.1-1.233-1.632.029.086.323-.406.289-.607-.222-1.332-.65-3.986-.838-5.093-2.268-1.828-5.812-.311-8.74-1.049C244.918,339.5,244.254,341.607,243.3,343.985Zm-12.162,52.188c6.312-3.7,12.306-7.707,14.763-15.128a12.522,12.522,0,0,0-5.876-9.515c-2.9-.3-5.8-.364-7.958.444a11.866,11.866,0,0,0-5.346,3.7c-.293.211-.857.158-1.2.321a14.1,14.1,0,0,1-3.375,4.717c-.987,3.226-4.073,4.433-4.208,8.485,2.046,1.4,2.009,4.588,4.015,6.089,1.7,1.271,4.349,1.338,7.232,1.228C229.857,396.419,230.234,396.037,231.138,396.173Zm8.253-26.434c1.228-2.117-.107-6.613-.457-9.155.693-4.375-.382-10.68,1.56-14-.284-1.6.684-2.249,1.141-3.322.26-.6.158-1.159.423-1.659.227-.433.612-.621.88-1.07,1.161-1.915,1.542-3.339,3.68-4.572.428-.246,1.2-.356,1.79-.631,1.152-.533,1.931-1.183,3.747-.664,1.209.347,5.628,3.408,6.7,4.986.506.755.4,1.886,1.238,2.233-.131.413-.449.65-.583,1.063,1.709,2.753.963,7.378,1.546,10.792-.834,1.892-.722,3.965-1.1,5.877-.148.75-.586,1.511-.712,2.261-.139.861.077,1.843-.1,2.71a35.569,35.569,0,0,1-4.8,8.793c-2.067.275-3.062,1.573-4.772,2.191.124,3.788.019,7.036-1.329,10.088a22.52,22.52,0,0,1-1.152,2.873c-.476.669-1.723,1-2.522,1.848-1.334,1.41-2,2.988-4.3,3.379-1.8,2.156-5.143,2.81-7.743,4.192-5,.937-11.006,1.365-13.707-2.017a23.906,23.906,0,0,1-1.4-2.68c-1.04-1.907-1.661-3.183-.853-5.845,3.3-3.454,4.44-9,8.513-11.715.7-1.438,1.993-2.309,2.942-3.5a2.931,2.931,0,0,0,1.781-1.238c1.787-.187,3.52-1.418,5.387-1.442,1.46-.021,2.846.672,4.209.225" fill="#fff" fill-rule="evenodd"/>
      <path id="Path_2754" data-name="Path 2754" d="M326.05,392.265c-.16-1.041.268-1.517,1.174-1.525.645.985-.372,2.344-1.174,1.525" fill="#fff" fill-rule="evenodd"/>
      <path id="Path_2755" data-name="Path 2755" d="M328.393,388.771c-.158-1.006.738-1.482,1.334-.928.134,1.006-.834,1.79-1.334.928" fill="#fff" fill-rule="evenodd"/>
      <path id="Path_2756" data-name="Path 2756" d="M228.769,381.04c.968-.972,3.675-1.713,4.8-.533,2.6,2.734-3.64,8.09-5.036,4.144-.447-1.262.425-1.661.235-3.611" fill="#fff" fill-rule="evenodd"/>
      <path id="Path_2757" data-name="Path 2757" d="M545.631,376.112a1.127,1.127,0,0,0-1.783,1.238A1.127,1.127,0,0,0,545.631,376.112Zm3.992-3.97c1.268,1.805-1.875,6.324-3.926,7.729-1.585,1.078-4.2.834-4.684-1.27a6.608,6.608,0,0,1,2.465-5.453c.317-.192.973-.241,1.492-.476a18.6,18.6,0,0,1,1.637-.928c.85-.165,2.06.567,3.015.4" fill="#fff" fill-rule="evenodd"/>
      <path id="Path_2758" data-name="Path 2758" d="M181.709,276.407a2.185,2.185,0,0,1-2.127-1.164c-.819-.117-1.132,1.034-2.081,1.237-.428,2.07-1.233,4.452-1.53,6.935a19.2,19.2,0,0,1-.107,2.557c-.3,1.111-1.7,4.192.535,4.8,1.464-3.345,5.122,1.685.626,1.343-1.382,1.436-.757,3.437-.66,5.27a10.8,10.8,0,0,0-.125,1.656c.125.559.911,1.222,1.393,2.075a14.459,14.459,0,0,1,.634,2.093,27.113,27.113,0,0,0,2.014,3.274,8.345,8.345,0,0,0,2.594,2.357c2.619-.289,4.324.795,6.173.492a13.271,13.271,0,0,0,2.99-.953c.789-.358,1.439-1.252,2.528-1.546.757-.206,1.651.091,2.4-.193,1.276-.486,1.792-2.493,3.26-2.613.1-.645.564-.934.728-1.512,1.554-.461,2.5-2.349,3.394-3.518.588-.765,1.613-1.309,2.07-1.988.978-1.448,1.714-3.865,2.744-6.209,1.137-2.574,2.837-5.511,3.314-8.465.236-1.508.717-2.726.976-4.077.939-4.866-.081-10.008-.717-15.31-1.262-1.7-2.672-3.25-3.841-5.04a6.8,6.8,0,0,1-3.183-1.448,87.137,87.137,0,0,0-11.561.8,5.543,5.543,0,0,0-3.341,6.516c-1.578.131-2.493-.92-3.3.361,1.819.01,1.979,2.57.5,2.694-.982.077-.987-.91-1.531-1.627a2.845,2.845,0,0,0-1.166,1.974c.462.909,1.281,1.934.192,2.552-1.415-.217-3.071-.478-4.2.22a14.62,14.62,0,0,0-.7,2.715C182.7,272.632,183.853,276.032,181.709,276.407Zm-12.724,45.887a10.035,10.035,0,0,0-3.231,4.412c-.125.468.033.906-.125,1.358-.5,1.419-1.652,2.815-2.177,4.393-.645,1.945-.206,3.889-.8,5.872-.009.468.482.42.318,1.045-.519,2.844-1.541,6.031-.283,9.621a2.965,2.965,0,0,0-.578,1.362c-.1.853.375,1.228.49,2.094.1.8-.188,1.78-.105,2.7.471,5.174,1.354,10.612,4,13.75-.182,2.242.928,3.724,1.9,5.227.65,1.011.535.626,1.377,1.328.26.217.28.607.463.741a9.22,9.22,0,0,0,2.725,1.155c.434.164.872.781,1.372,1.03.559.28,1.257.482,1.816.717,2.547,1.083,4.655,2.619,8.3,2.258,4.041-1.713,4.907-6.487,8.57-8.558.617-1.231,2.067-1.78,2.5-3.2.144-.467-.1-.856-.024-1.353a14.8,14.8,0,0,1,2.022-4.692c-.449-1.56.717-2.579.982-3.922-.567-4.982,1.006-9.072.347-14.579a13.617,13.617,0,0,1,.727-1.362c-.9-1.4.033-2.951-.232-4.655-.072-.48-.511-1.009-.626-1.491a27.575,27.575,0,0,1-.053-3,24.044,24.044,0,0,0-3.312-9.107c-.284-3.146-3.193-5.88-5.109-8.32-2.808-.666-4.839-2.129-7.267-3.183-1.444,1.642-5.141-.34-6.59,1.319,3.384,1.223.283,3.518-.968,4.978-.332.383-.433.886-.727,1.212-.158.179-.586.019-.751.163-.273.246-.659,1.07-1.025,1.522-.944,1.178-1.348,1.568-1.3,3.176-1.064.987-1.128,2.945-2.032,4.091.048,2.884-2.182,5.54-1.647,8.89-1.025,1.6-1.116,3.659-1.107,5.578a122.642,122.642,0,0,0,1.022,15.46,3,3,0,0,0-.434,1.054c.808,1.372.832,2.926,1.281,4.486.717,2.488,2.7,4.741,2.233,7.172-.669-.024-.91-.486-1.517-.574-.2-1.833-1.984-2.02-2.465-3.561.583-1.7-.741-3.013-.827-4.495a25.317,25.317,0,0,0,.1-2.7c-.26-1.6-1.02-3.178-.693-5.246-1.666-1.551-.5-3.63-.39-5.251.12-1.907-.819-3.812-.554-5.848.059-.457.4-.9.43-1.357.043-.7-.246-1.412-.189-2.1.241-3.013,1.5-5.578,1.8-8.591,1.255-1.693,1.183-4.668,2.75-6.059-.169-2.268.982-3.585,1.266-4.976,1.651-.626,2.605-1.921,4.011-2.777-.347-1.468.567-2.5.394-3.311C172.743,317.375,170.071,319.449,168.985,322.294Zm6.056-14.526a15,15,0,0,0-1.921-6.723c.736-1.2-.222-2.277-.361-3.451-.131-1.137-.059-2.484-.217-3.75-.275-2.258.3-4.9.476-7.22.072-.91-.145-1.809-.043-2.555.091-.693.6-1.314.717-1.964.192-1.068-.129-2.233.241-3.312.371-1.059,1.676-2.237,2.2-3.339.375-.795.366-1.8.708-2.571.163-.372.731-.684.88-1.064.838-2.122,1.613-4.337,3.217-5.314a4.206,4.206,0,0,1,.428-1.361,10.83,10.83,0,0,0,3.967-5.024c1.209-.626,1.95-1.728,3.116-2.461.428-.269,1.049-.265,1.493-.624.934-.762,1.3-2.172,2.2-2.894.918-.736,2.364-.5,2.825-1.7,2.62.42,5.509.294,8.283.757a20.794,20.794,0,0,1,5.59,1.857c2.878,1.565,4.178,2.247,5.657,5.457.583,1.276.294,2.162.511,3.448.294,1.751,1.116,2.946,1.137,4.789a49.865,49.865,0,0,1-1.008,11.287,40.75,40.75,0,0,1-2.426,7.253c.206.559-.428,1.044.024,1.348a17.551,17.551,0,0,0-2.6,6.054,4.9,4.9,0,0,0-1.6,2.884c-.557.1-.726.576-1.343.624-.385,1.945-1.9,2.878-3.379,4.264-1.1,1.035-1.917,2.5-2.8,3.355-1.859,1.806-4.56,2.726-6.381,4.622-1.931,0-2.8,1.034-3.726,2.015.192,2.148,2.61,1.988,3.076,3.852,2.11.413,1.829,3.307,3.231,4.452.063.538.246.717.024,1.2a8.971,8.971,0,0,0,1.383,1.781c.856,2.781,1.594,5.279,2.249,8.219-.01.438.1.982-.13,1.209a30.568,30.568,0,0,1,1.045,8.09c.024,1.137-.506,2.3-.54,3.614-.034,1.358.366,2.7.217,3.9-.091.747-.53,1.517-.564,2.263-.028.789.39,1.613.347,2.4s-.645,1.5-.712,2.261c-.1,1.131.437,2.252.206,3.3-.324,1.472-1.8,2.973-1.864,5.139a27.139,27.139,0,0,1-.519,4.515c-1.281.346-1.382,1.823-2.519,2.3a23.926,23.926,0,0,1-9.263,11.574c-3.872,2.493-9.663.486-12.942-.977-2.359-1.049-4.8-2.248-6.384-4.24-.353-.442-.428-1.1-.781-1.493-.423-.476-1.236-.765-1.522-1.174a13.776,13.776,0,0,1-.64-2.242c-.361-.971-1.1-1.415-.949-2.536-1.7-1.733-1.589-4.144-2.06-6.271-.38-1.715-1.431-2.98-1.436-4.636a27.629,27.629,0,0,0,.232-3.908c-.256-1.954-.867-4.856.024-7.21-1.137-1.622-.091-4.447.188-6.613.115-.909-.12-1.824-.048-2.7.067-.795.492-1.444.564-2.113.1-.958-.289-1.64-.045-2.406.217-.66.848-.968,1.032-1.516.188-.586-.072-1.26.11-2.1.091-.428.511-.829.728-1.367.891-2.209,1.945-5.179,3.336-6.969.54-.693,1.492-.982,2.225-1.69.934-.909,1.532-2.344,2.495-3.349.886-.924,2.335-1.685,3.558-2.767.968-.858,3-2.461,3.105-3.058.308-1.819-1.979-2.237-2.316-3.416" fill="#fff" fill-rule="evenodd"/>
      <path id="Path_2759" data-name="Path 2759" d="M331.966,378.34a.962.962,0,0,1-.751-.139c-.072-.559.1-.88.583-.91.01.144.187.115.3.144a1.245,1.245,0,0,1-.134.9" fill="#fff" fill-rule="evenodd"/>
      <path id="Path_2760" data-name="Path 2760" d="M476.561,371.01c1.844.107,3.46,3.1,2.179,4.467-1.29-.77-2.839-2.662-2.179-4.467" fill="#fff" fill-rule="evenodd"/>
      <path id="Path_2761" data-name="Path 2761" d="M456.181,374.221a1.2,1.2,0,0,1,1.62-1.68,1.668,1.668,0,0,1-1.62,1.68" fill="#fff" fill-rule="evenodd"/>
      <path id="Path_2762" data-name="Path 2762" d="M177.3,376.834a2.107,2.107,0,0,1,.882-1.218c1.094.857,4-.163,4.973.813-1.685.538-4.14,1.493-5.855.4" fill="#fff" fill-rule="evenodd"/>
      <path id="Path_2763" data-name="Path 2763" d="M331.426,373.094c-.509.015-.659-.342-.915-.586a.719.719,0,0,1,.9-.468.953.953,0,0,1,.019,1.054" fill="#fff" fill-rule="evenodd"/>
      <path id="Path_2764" data-name="Path 2764" d="M461.362,369.774c.436-1.2,4.389-3.552,4.644-.832-1.087.567-3.557,1.684-4.644.832" fill="#fff" fill-rule="evenodd"/>
      <path id="Path_2765" data-name="Path 2765" d="M388.516,363.53c2.677-2.675,5.542,7.528,2.388,7.624-1.049.029-1.334-1.1-2.138-1.921.294-1.905-.762-3.936-.251-5.7" fill="#fff" fill-rule="evenodd"/>
      <path id="Path_2766" data-name="Path 2766" d="M469.29,367.829c.946-2.258,5.722-1.935,5.436,1.26-1.73.626-3.275-1.332-5.436-1.26" fill="#fff" fill-rule="evenodd"/>
      <path id="Path_2767" data-name="Path 2767" d="M328.952,369.229c-.332-1.03,1.179-1.2,1.343-.476.107.669-.928.77-1.343.476" fill="#fff" fill-rule="evenodd"/>
      <path id="Path_2768" data-name="Path 2768" d="M190.554,369.991c-.707.121-.361-1.57.12-1.651,1.128-1.723,1.074-4.582,2.3-6.2.067-2.6.909-4.914,1.233-7.081.452-3.079-.019-6.18-.169-9.611a34.43,34.43,0,0,0-.083-4.653,47.126,47.126,0,0,0-.843-5.246c-.077-.27-.433-.4-.463-.593-.048-.332.2-.717.131-1.054-.188-.987-.612-1.921-.8-2.839-.217-1.07-.11-2.079-.351-3-.125-.481-.607-1.064-.78-1.637-.423-1.4-.318-2.165-1.555-2.83.081-1.608-1.465-1.539-1.257-3.282,2.533-1.405,3.456,1.535,3.967,3.539,2.075,1.8,1.15,4.6,1.628,7.18.153.824.89,1.525,1.092,2.387.131.535-.086,1.126.034,1.8.182,1.025.977,2.027,1.1,2.985a15.336,15.336,0,0,1-.115,1.959c0,1.073.452,2.113.505,3.143.062,1.154-.795,2.545.217,3.754-.505,3.042-.1,6.618-.877,10.227-.1.505-.471.973-.573,1.512-.129.693.034,1.4-.11,2.108-.184.88-.693,1.905-1.006,2.868-.607,1.883-1.642,5.43-3.193,6.369-.125.028-.144-.059-.155-.15" fill="#fff" fill-rule="evenodd"/>
      <path id="Path_2769" data-name="Path 2769" d="M521.76,248.39c.11,1.768.92,3.374,1.14,4.938a10.128,10.128,0,0,0,.973,4.039c.26.442.784.717,1.07,1.183a8.522,8.522,0,0,0,3.825,3.836c3.557,1.421,5.916-2.161,6.541-4.318.682-2.405-.77-4.484-.577-6.747.075-.824.537-1.343.563-2.266a35.918,35.918,0,0,0-.563-6.3c-.18-.433-.537-.718-.77-1.185a22.25,22.25,0,0,0-.942-2.541,11.588,11.588,0,0,0-3.957-2.633c-1.849-.15-3.332,1.493-4.763,2.483.194,1.479-1.136,1.714-1.611,2.436-.709,1.063-.643,2.06-1.3,3.026C522.217,245.444,521.676,246.99,521.76,248.39ZM511.01,287.033c.819,2.108,3.363,2.436,4.877,3.823.22.225.77.12,1.2.129a2.323,2.323,0,0,0,2.421.708c3.667-.535,8.064-1.926,8.923-5.415.709,0,.81-.591,1.338-.775a4.861,4.861,0,0,1,1.312-2.271c1.387-2.8,3.944-5.661,3.891-9.535a19.752,19.752,0,0,0-1.77-6.728,49.79,49.79,0,0,1-5.278-1.112,17.95,17.95,0,0,0-2.87-.851c-1.968.053-2.685,2.536-5.071,2.194-.784.832-3.051.976-3.887,1.27-1.232,2.162-3.4,3.35-4.565,5.337-.841,1.436-1.611,2.373-2.342,3.644-.563,2.937,1.351,5.583.6,8.552C509.98,286.572,510.825,286.465,511.01,287.033Zm4.824,35.222c1.255-2.777,2.976-5.76,2.835-9.813-.075-2.22-.77-4.572-1.021-6.744a12.462,12.462,0,0,0-2.21-6.122c.128-.318.449-.452.436-.909-2.056-2.1-3.218-5.131-5.973-6.508a15.851,15.851,0,0,0-8.513,3.159,19.544,19.544,0,0,0-.678,4.364c-.053,2.041-.55,4.154-.335,6.315.185,1.9.717,3.5.392,5.1,1.109,1.049.5,3.013,1.122,4.337.643,1.38,2.078,2,2.32,3.566a11.394,11.394,0,0,1,3.064,3.7C509.989,322.64,514.122,324.56,515.835,322.255Zm.9,34.384c.2-.741-.031-1.589.11-2.407s.687-1.6.858-2.416c.22-1.054.229-2.132.546-3.167a29.072,29.072,0,0,0,1-3.021c.286-1.589-.277-3.352-.088-4.954.092-.779.722-1.616.709-2.416-.013-.875-.718-1.164-1.092-2.237-.088-.265.1-.829-.018-1.2-.15-.457-.555-.824-.625-1.19-.11-.581.106-1.17-.031-1.656-.427-1.535-1.611-1.857-2.751-2.8-1.034-.863-1.422-1.776-2.139-1.917-.8-.153-2.012.358-2.844.353-2.478-.015-3.926-.28-5.238,1.295a14.739,14.739,0,0,0-3.042,6.809c-.216,1.883-.3,4.1-.493,6.016a15.662,15.662,0,0,0-.1,2.859c.1,1.054.832,2.368,1.114,3.735.128.6-.119,1.121.031,1.651.233.824.924,1.406,1.241,2.084a26.839,26.839,0,0,0,1.721,3.876,16.139,16.139,0,0,0,1.233,1.63c2.108,2.373,4.327,3.788,7.857,2.72C515.3,359.046,516.354,358.059,516.737,356.639Zm-19.1-61.11c2.223-1.974,4.565-5.791,9.68-4.973.3-.053.291-.412.594-.461-.528-2.763-.515-5.435-1.792-7.932a4.945,4.945,0,0,0-.057-3.3c.277-1.467.7-1.954.99-3.473,1.88-2.782,3.966-5.917,6.3-8.972.66-.861,1.211-1.974,1.915-2.137,1.307-.308,2.826.867,4.076.679,1.3-.2,1.122-1.2,2.368-1.843-.515-.8.264-1.473.568-1.964,0-.655-.427-.88-.475-1.492-2.02-.779-2.122-3.369-2.509-5.968-.343-2.306-1.505-4.831-1.765-6.276a20.181,20.181,0,0,1,.5-6.021,13.7,13.7,0,0,1,2.166-4.99c.894-1.551,1.712-3.2,3.09-3.962,1.822-1.02,4.529-.717,6.118-2.512a8.8,8.8,0,0,0,2.694-.347c.717-1.3.431-4.244,2.483-4.4,2.337-.179,1.642,2.06,2.012,3.416.176.645.836.843,1.074,1.339.365.75-.128,1.563.484,1.939-.123.279-.379.423-.436.76.59,1.689,1.862,3.272,1.444,5.236,1.981,1.251,1.836,4.4,2.685,7.61.665,2.507,1.6,4.495-.489,6.319.2.707.224,1.6.788,1.939-.687,2.488.568,6.555-.3,8.871-.775,1.761-2.456,2.646-3.992,3.671.555,1.463-.436,2.7-.387,3.616.066,1.338,1.294,2.093,1.563,3.426.352,1.776-1.285,3.3-1.721,4.986-.383,1.506-.343,2.937-.973,4.226-.5,1.011-1.435,1.549-1.457,2.729-1.51.853-2.161,2.536-2.782,4.254-3.746,2.883-8.817,4.481-14.328,5.655-.88,1.565,1.083,3.191,1.9,5.527a22.783,22.783,0,0,1,.8,2.994,31.638,31.638,0,0,1,.88,7.344c-.04.781-.423,1.546-.409,2.263.018,1.771.678,3.339-.062,5.4-1.532,2.373-3.3,4.925-4.683,6.993.387.4.365.915.629,1.343.651,1.083,2.065,1.805,2.6,2.806.519.977.3,2.18,1.255,2.985-.084.313.2.985-.132,1.054a9.285,9.285,0,0,1,1.4,2.83c.044.236-.2.648-.132.9.264,1.044.876,1.766.651,2.994-.128.7-.779,1.212-1.017,1.819-.533,1.319-.352,2.642-.528,4.365-.057.568-.423.977-.572,1.659-.119.569.048,1.271-.119,1.806s-.735.939-.876,1.522c-.471,2.012-.211,4.24-.946,6.025a13.88,13.88,0,0,1-2.06,2.59,13.1,13.1,0,0,1-3.112,2.454c-3.447.65-6.105.463-8.28-.755-4.349-2.435-4.3-9.692-6.123-15.064.775-1.531-.246-3.885.968-4.976-.088-.626-.467-.944-.625-1.493-.013-2.961.15-6.618,2.1-8.448.308-2.9,2.835-3.658,3.345-6.367a35.635,35.635,0,0,0-4.789-7.576c-.123-2.632-2.086-4.158-1.479-7.036-1.505-2.277-.233-6.108-.9-8.7.3-2.084,1.18-4.9.18-6.916" fill="#fff" fill-rule="evenodd"/>
      <path id="Path_2770" data-name="Path 2770" d="M326.16,364.172c1.675,1.381-1.479,2.521-1.339.774.048-.577.521-.669,1.339-.774" fill="#fff" fill-rule="evenodd"/>
      <path id="Path_2771" data-name="Path 2771" d="M294.925,365.615a1.454,1.454,0,0,1,1.185-1.073c.005.15.182.115.3.15a.883.883,0,1,1-1.487.924" fill="#fff" fill-rule="evenodd"/>
      <path id="Path_2772" data-name="Path 2772" d="M298.672,365.1c.144-.65.283-1.305,1.185-1.223.875.91-.526,2.242-1.185,1.223" fill="#fff" fill-rule="evenodd"/>
      <path id="Path_2773" data-name="Path 2773" d="M289.354,364.961a1.008,1.008,0,0,1,1.045-.467c.732,1.059-.939,1.642-1.045.467" fill="#fff" fill-rule="evenodd"/>
      <path id="Path_2774" data-name="Path 2774" d="M284.676,363.691a1.486,1.486,0,0,1,.9.437c-.1,1.04-1.45.376-.9-.437" fill="#fff" fill-rule="evenodd"/>
      <path id="Path_2775" data-name="Path 2775" d="M302.409,363.685c-.217-1.343.808-1.482,1.616-1.835a5.882,5.882,0,0,1,2.364-2.445c1.152-3.213,1.224-6.776,1.468-10.54.208-3.186-1.351-6.483-.616-9.3-1.16-3.076-3.009-5.444-4.055-8.644-.784-.92-2.344-2.325-1.573-3.875,2.71.2,2.555,3.365,4.582,4.275a5.384,5.384,0,0,0,1.262,3.282c.014,3.066,1.42,5.65,1.792,7.782a10.6,10.6,0,0,1-.121,1.806c.014.7.385,1.477.337,2.247-.029.487-.444,1.107-.419,1.661.029.741.684,1.434.789,2.237a12.3,12.3,0,0,1-.11,2.258c-.222,2.571-1.021,5.193-2.889,6.656.105.693-.323.872-.275,1.506-1.477.886-2.388,2.325-4.154,2.932" fill="#fff" fill-rule="evenodd"/>
      <path id="Path_2776" data-name="Path 2776" d="M185.07,357.168a2.259,2.259,0,0,0-2.1.188,4.6,4.6,0,0,0,.188,2.1A2.4,2.4,0,0,0,185.07,357.168Zm-12.962,6.386c-1.965-5.254,4.121-10.054,8.228-10.809a6.333,6.333,0,0,1,3.915.38c.409.26.361.706.77,1.188.843.992,2.161,1.236,2.3,2.512.23,2.215-1.781,3.643-3.525,4.721a15.155,15.155,0,0,1-4.02,2.17c-1.907.641-6.1,1.1-7.665-.163" fill="#fff" fill-rule="evenodd"/>
      <path id="Path_2777" data-name="Path 2777" d="M278.988,356.73c.676.019.882.519.925,1.19-.746,1.328-2.268-.717-.925-1.19" fill="#fff" fill-rule="evenodd"/>
      <path id="Path_2778" data-name="Path 2778" d="M247.764,358.627a6.753,6.753,0,0,1-1.45-5.68c.286-1.174,1.878-3.614,3.246-3.513.987.072,1.642,1.819,1.7,2.67.029.473-.438,1.335-.415,2.113a4.4,4.4,0,0,1-.26,2.561c-.5,1.276-.928,2.079-2.822,1.848" fill="#fff" fill-rule="evenodd"/>
      <path id="Path_2779" data-name="Path 2779" d="M295.364,347.73a8.946,8.946,0,0,0-2.11-.26,3.755,3.755,0,0,0-.124,1.5C293.968,349.56,295.586,349.068,295.364,347.73Zm1.45-3.028c-.332-1.713-2.123-1.044-3.779-1.284.629-1.661,2.06-2.541,3.547-3.37,1.57.366,2.244,1.652,2.022,3.871-.856.8-1.589,1.535-1.453,2.734,2.4,2.234,2.4-2.874,2.778-4.256,1.838.526,1.338,3.8.846,5.39-.313.141-.433.467-.891.467a10.7,10.7,0,0,1-.434,1.209c-2.244,1.525-3.745,3.768-5.609,5.654-1.68.824-3.817-.4-4.544-2.17-.574-1.376.351-3.339.659-4.971.275-1.412,1.685-2.9,3.279-1.709,1.222-.492,2.11-1.309,3.578-1.565" fill="#fff" fill-rule="evenodd"/>
      <path id="Path_2780" data-name="Path 2780" d="M273.432,339.7c3.129,1.926.751,8.774,3.65,11.051,0,1.169.505,1.825.356,3.152.029.125-.058.144-.149.155-1.479.3-1.252-1.174-1.69-2.229-.361-.872-1.305-1.527-1.551-2.677-.086-.418.1-.9-.024-1.346-.471-1.819-1.709-6.806-.592-8.106" fill="#fff" fill-rule="evenodd"/>
      <path id="Path_2781" data-name="Path 2781" d="M504.61,341.829c.572-2.213,2.161-3.946,4.441-3.682,2.39.27,3.4,4.3,2.83,7.311a9.552,9.552,0,0,1-1.3,2.873,3.16,3.16,0,0,1-3.6.364c-1.862-1.245-1.211-4.837-2.373-6.867" fill="#fff" fill-rule="evenodd"/>
      <path id="Path_2782" data-name="Path 2782" d="M270.605,349.967a5.241,5.241,0,0,1-1.29-5.086c.944,1.054,2.22,3.547,1.29,5.086" fill="#fff" fill-rule="evenodd"/>
      <path id="Path_2783" data-name="Path 2783" d="M93.068,329.48c-1.508,2.8-.254,5.231.289,8.109a46.683,46.683,0,0,0,5.2,5.165,4.767,4.767,0,0,0,.626,1.491c1.209.139,2.639-.722,4.507-.231,1.112.294,1.84,1.276,3.033,1.6.525.139,1.176.019,1.806.115,1.907.3,3.949,1.454,6.333,1.093.557-.082.928-.607,1.487-.776a17.709,17.709,0,0,1,3.3-.206c1.078-.112,2.215-.554,3.293-.66.915-.091,1.786.067,2.557-.048,1.354-.2,2.691-1.083,4.036-1.27.635-.086,1.223.24,1.806.12a11.781,11.781,0,0,0,3.124-1.709c.3-.206.515-.648.736-.765.337-.172.631.015.9-.163,1.825-1.188,2.947-3.051,4.136-4.278.117-1.645,1.321-3.384,1.869-4.687.217-.516.077-1.262.27-1.811a4.6,4.6,0,0,0,.707-2.565c-.1-.928-.953-1.544-.65-2.691-1.161-2.16-2.2-4.457-4.453-5.482a8.116,8.116,0,0,0-.468-1.044c-3.774-1.343-7.077-4.593-11.809-5.054-1.748-.169-3.829.434-5.557.1-.39.024-.206.592-.591.611-.684.2-.6-.4-1.209-.273-3.886,1.343-7.839.88-10.612,3.186-.6.5-.886,1.37-1.474,1.828-.457.356-1.217.4-1.79.786-1.03.7-1.4,2.031-3.116,2.156.573-2.6,3.819-4.189,4.386-6.99.27-1.338-.067-2.44.54-3.465,1.015-1.7,3.168-1.025,5.373-2.194,2.83.552,6.249.024,8.733,1.2,1.45-.2,3.009-.982,4.646-.834,1.155.107,2.412.607,3.621.689a16.028,16.028,0,0,1,1.8-.029c1.811.375,2.9,2.368,4.113,3.08,2.859.3,3.8,2.594,5.478,4.111a11.986,11.986,0,0,1,4.44,4.433,10.639,10.639,0,0,0,1.426,4.326,19.873,19.873,0,0,0,.043,2.407,74.7,74.7,0,0,0-3.592,9.375c-2.846,2.469-4.1,6.479-7.823,8.1-1.84-.418-3.365.842-5.09,1.142-1.083.193-2-.072-3,.206a50.01,50.01,0,0,0-6.871,2.373c-2.407.077-4.43.712-6.446.712-1.99,0-3.637-1.121-5.731-1.1-.254-.351-.784-.413-1.067-.731-1.623.206-2.351-.525-3.915-.385-1.6-1.6-4.405-1.964-6.216-3.345-1.719.244-2.393-.583-3.327-1.142A10.165,10.165,0,0,0,91,340.029a25.636,25.636,0,0,0-2.062-5.972c-.254-.516-.693-.828-.774-1.339-.438-2.844,2.017-4.133,4.906-3.238" fill="#fff" fill-rule="evenodd"/>
      <path id="Path_2784" data-name="Path 2784" d="M179.215,331.732c.077-.554-1.2-.666-1.051.019A1.234,1.234,0,0,0,179.215,331.732Zm4.055,8.339c-.69-1.678-2.9-1.784-4.7-2.319-.727,1.358.442,1.824.813,3.442C180.838,342.637,182.142,340.689,183.27,340.072Zm2.632,4.462c-.485-.26-.423-1.087-1.217-1.03-.862.717-.183,1.487-.265,2.258a.887.887,0,0,1,.607.14C185.22,345.353,185.773,345.146,185.9,344.534Zm.516,3.745c-3.871,1.271-6.077-1.314-8.016-3.013a36.922,36.922,0,0,1-3.222-12.413c1.19-2.739,2.682-5.189,4.073-7.734,4.166-1.744,6.167,1.395,7.449,4.981a21.726,21.726,0,0,1,1.112,3.282c.275,1.656-.019,4.168.1,6.011.231,3.417-.954,6.141-1.5,8.885" fill="#fff" fill-rule="evenodd"/>
      <path id="Path_2785" data-name="Path 2785" d="M288.624,331.626c-1.821-1.4-2.923,1.092-1.465,2.277-.851.588-.38,1.549-.259,2.41.818.2.684-.519,1.04-.769C286.586,333.975,287.765,332.91,288.624,331.626Zm-5.071,11.056a15.569,15.569,0,0,1-2.268-1.016c-.231-4.756,2.533-7.879,4.463-11.041.324-.13.506-.4,1.045-.318.172-1.541,2.151-2.012,3.726-1.718.492,2.574,2.4,4.331,1.776,6.878-.562,2.282-2.822,4.192-2.888,6.809-1.161,1.223-2.614,3.472-5.219,2.345-.486-.356-.406-1.315-.636-1.939" fill="#fff" fill-rule="evenodd"/>
      <path id="Path_2786" data-name="Path 2786" d="M269.594,343.672c-.963-1.266-1.9-4.225-1.15-5.838.885,1.271,2,4.246,1.15,5.838" fill="#fff" fill-rule="evenodd"/>
      <path id="Path_2787" data-name="Path 2787" d="M273.576,339.4c-.928-.979-1.589-4.526.062-5.107,1.205.894.679,4.23-.062,5.107" fill="#fff" fill-rule="evenodd"/>
      <path id="Path_2788" data-name="Path 2788" d="M260.779,320.845c1.054-.442,2.281-.077,3.458-.062,3.062.038,6-1.936,8.676-2.252a48.311,48.311,0,0,1,6.355-6.123c.486-1.844,1.747-2.94,2.629-4.4a19.3,19.3,0,0,1,2.595-6.354c.5-3.186,2-6.377,1.026-10.083,1.174-.973.795-2.218.832-3.922.038-1.9.476-4.213.188-6.465-.49-3.807.473-8.845-1.247-11.094.043-.356.231-.567.134-1.054a33.444,33.444,0,0,1-2.493-5.062c-1.252-1.458-2.822-2.335-3.972-3.687-.318-.376-.405-.978-.775-1.338-1.391-1.358-3.718-1.021-4.7-2.624-1.025.2-1.95-.53-2.859-.4-.765.1-1.372.91-2.091,1.087-.361.088-.843-.172-1.2-.129-1.714.2-3.332,1.592-5.387,1.442-.708,2.619-2.658,4.034-4.868,5.195-1.565,3.326-4.787,5.631-4.787,10-.592,1.377-2.065,2.744-2.33,4.245-.246,1.4.251,2.836-.077,4.206-.11.463-.485.757-.578,1.214-.861,4.206.107,8.582.377,12.913.043.7-.14,1.391-.115,2.1a24.27,24.27,0,0,0,.813,3.6,29.765,29.765,0,0,0,3.948,10.9c.005.3.011.6.014.9a5.605,5.605,0,0,1,1.714,3.575C259.257,316.88,259.417,319.015,260.779,320.845Zm7.652,16.238c-1.4-3.575,1.112-7.7,1-11.579.308-1.1,1.348-2.22.987-3.475-2.744-.765-5.214,1.073-8.1.741-2.426-.28-4.073-2.263-6.211-2.894-1.078-1.515-1.926-2.526-3.076-4.3-.428-.658-1.147-1.26-1.387-1.781-.557-1.217-.284-2.657-1.41-3.43-.434-2-.592-4.279-1.749-5.526-.332-4.1-1.332-9.241-1.592-13.644-.144-2.474.586-4.9.177-7.062.265-1.365.982-2.584,1.286-3.93.5-2.258.236-4.818,1.083-6.778.222-.509.784-.87,1.025-1.37,1.008-2.079,1.594-4.283,2.749-6.2,2.672-1.81,4.565-6.032,7.526-7.8.717-.423,1.56-.5,2.239-.938,1.324-.867,2.393-2.223,4.309-2.782,4.194-.3,8.007-.982,11.878.246a10.427,10.427,0,0,1,4.859,2.922c.968,3.635,2.961,6.209,4.521,9.237,1.07,3.687.693,6.56,1.527,10.035-.328,2.643-.163,5.626-.3,8.269a19.757,19.757,0,0,1-.706,2.565c-.347,1.713.115,3.778-.208,5.415a28.1,28.1,0,0,1-1.14,3.47c.2,5.372-3.626,8.9-3.819,13.89.8.289,2.086.086,2.273,1.011-1,1.549-3.352,1.78-5.523,2.2-2.956,3.4-6.424,6.3-8.989,10.074-.519,3.513-2.277,6.421-2.533,9.957-.077,1.116.621,2.579-.235,3.609-.241.048-.26-.139-.452-.144" fill="#fff" fill-rule="evenodd"/>
      <path id="Path_2789" data-name="Path 2789" d="M120.21,326.153c-.117-1.054-.81-1.506-1.979-1.467C118.119,325.941,119.275,326.923,120.21,326.153Zm-2.187,3.943c-.428-.019-.818,0-.741.463a.7.7,0,0,1,.452.144C117.806,330.476,117.951,330.321,118.023,330.1Zm-6.09,4.163c.059.808,1.46,1.035,2.119.712C113.93,334.586,112.515,333.3,111.932,334.258ZM112.9,338a3.246,3.246,0,0,1-2.4-.11c-1.7-.786-3.153-4.64-2.971-6.406a4.332,4.332,0,0,1,1.458-2.729c-.22-1.343.347-1.929.4-3.013a8.543,8.543,0,0,0,2.667-2.3c2.2-.192,3.241-1.5,4.613-2.484,1.888.088,4.194.39,4.7,2.171.225.808.077,3.071.231,4.8a4.7,4.7,0,0,1,.034,1.806c-.621,1.878-3.4,3.585-4.285,4.13-.5,2.325-2.461,3.234-4.44,4.133" fill="#fff" fill-rule="evenodd"/>
      <path id="Path_2790" data-name="Path 2790" d="M273.918,332.934c-1.527-.624-.053-2.17-.217-3.6,1.228-1.915,1.81-4.452,3.659-5.77-.255-2.59,3.485-4.251,2.691-.645A25.193,25.193,0,0,1,277.669,324c-1.035,3.09-3.111,5.17-3.453,8.929-.1,0-.2,0-.3,0" fill="#fff" fill-rule="evenodd"/>
      <path id="Path_2791" data-name="Path 2791" d="M446.985,321.051c-.3-1.415,1.241-1.207,1.919-1.838.462-.423.48-1.29,1.021-1.969.889-1.129,3.381-1.362,4.164-2.478.158-.227.022-.88.273-1.506.15-.376.643-.765.735-1.064a19.28,19.28,0,0,0-.634-10.353c-1.492-1.006-3.108-1.881-3.821-3.692-1.8-.423-2.549-2.464-4.116-3.382-.942-.545-2.483-.526-3.777-.983-1.818-.648-3.529-2.165-5-2.617-.939-.289-2.089-.024-2.87-.7a2.564,2.564,0,0,1-2.715-.554c-2.447.535-4.761-.086-7.366-.321-1.112-.1-2.23.3-3.3.206-.578-.048-1.083-.457-1.666-.567a11.507,11.507,0,0,0-3.453.056,70.743,70.743,0,0,0-8.685,1.806c-.487.158-.935.6-1.489.776-.751.241-1.645.124-2.248.34-1.628.578-4.214,2.87-5.34,4.149-2.576.169-2.681,2.723-3.986,4.125.067,3.914.249,8.986,2.918,11.969a1.868,1.868,0,0,0,.321,1.348c1.223,1.358,2.9,1.637,4.405,2.624,1.661,1.092,2.774,3.32,4.878,3.97,1.1.346,2.142.091,3.611.39,1.276-2.209-2.209-1.487-2.306-2.966-.139-2.218,2.576-.576,3.606-.212,1.942.69,5,.824,8.575.751,2.952-.062,5.325-.125,6.78.784-.414,1.1-1.805.457-2.7.5-.717.034-1.406.352-2.1.337-.428,0-.92-.292-1.358-.279-1.718.062-3.793.66-5.7.4-1.517-.2-2.461-1.1-3.3.356.789,1,2.4.818,3.624,1.137a10.845,10.845,0,0,0,3.164.4c1.372.03,2.509.953,3.929,1.132,1.011.13,2.215-.217,3.453-.212a25.026,25.026,0,0,0,3.159.246c.554-.088,1-.506,1.492-.626,1.233-.289,2.49.048,3.756-.067,1.313-.117,2.7-.92,4.059-.069.332,1.5-.526,1.859-1.16,2.421-2.605-.423-5.325.906-6.919-.327a19.968,19.968,0,0,1-7.646,1.185c-1.709-.111-3.317-.9-5.277-1.112-.562-.059-1.107.236-1.651.182-1.228-.124-2.509-.99-3.779-1.284-1.252-.294-2.533-.014-3.613-.241-.4-.082-.808-.559-1.362-.727-1.343-.409-3.009-.332-3.924-.832-.65-.356-1.484-1.067-2.282-1.613-1.422-.961-4.56-2.887-5.48-4.11-.39-.515-.511-1.473-.939-2.089a6.482,6.482,0,0,1-1.556-2.975c-.418-1.535-1.448-3.427-1.314-6.29a26.44,26.44,0,0,1,.371-4.813c.241-.861,1.1-1.434,1.464-2.127.265-.511.177-1.022.423-1.512,1.166-2.321,3.8-3.456,5.614-5.508a17.532,17.532,0,0,0,5.946-3.705c1.6-.342,2.664-.294,3.891-.972,1.763.4,3.466-.674,5.095-.837.861-.088,1.752.158,2.71.1.867-.053,1.594-.452,2.394-.5,1.362-.072,2.595.471,4.068.53.453.019.741-.279,1.193-.324,1.209-.1,2.736.3,4.065.083a15.476,15.476,0,0,1,1.79-.482c.887.034,1.35.851,2.123,1.164a11.054,11.054,0,0,0,1.209.126,6.4,6.4,0,0,1,3.343,2.2c2.6.27,4.43,1.276,6.653,2.287,1.624.736,2.984,1.29,4.547,2.175,1.836,1.035,3.033,1.983,4.868,3.221a13.4,13.4,0,0,1,3.051,2.646,30.089,30.089,0,0,1,2.945,5.208c-.176,4.36.55,12.49-4.569,13.75a18.516,18.516,0,0,1-3.865,2.622c-1.321.655-3.068,1.781-4.336,1.126" fill="#fff" fill-rule="evenodd"/>
      <path id="Path_2792" data-name="Path 2792" d="M279.7,319.762c-.024-2.694,5.379-3.807,8.955-3.609,2.952.163,4.792,2.7,7.411,2.723.4,1.675,1.864,2.252,2.027,4.173-1.685,1.626-2.99-.982-4.237-1.733-.574-.34-1.358-.265-1.965-.562-1.464-.728-2.456-2.282-3.649-2.488a3.406,3.406,0,0,1-2.557.043c-1.763.611-4.055,1.5-5.986,1.453" fill="#fff" fill-rule="evenodd"/>
      <path id="Path_2793" data-name="Path 2793" d="M331.707,320.358c2.6.511-.356,3.21-.583,1.06-.059-.544.134-.728.583-1.06" fill="#fff" fill-rule="evenodd"/>
      <path id="Path_2794" data-name="Path 2794" d="M430.719,318.929c1.19-1.222,4.419-.712,5.705-.251-1.247,1.238-4.665,2.008-5.705.251" fill="#fff" fill-rule="evenodd"/>
      <path id="Path_2795" data-name="Path 2795" d="M437.33,318.814c.134-.8,1.5-.877,2.089-.784-.112,1.193-1.247,1.381-2.089.784" fill="#fff" fill-rule="evenodd"/>
      <path id="Path_2796" data-name="Path 2796" d="M324.576,316.426c.755.136,1.742-.432,2.846-.5a15.446,15.446,0,0,0,3.3-.509c3.207-.738,7.208-1.2,8.969-2.71a6.044,6.044,0,0,0,1.8-.331c.925-.525,3.876-4.144,3.963-5.479.048-.725-.55-1.442-.641-2.242-.179-1.6.3-3.643-1.425-4.178-1.329-.182-2.994.318-4.507.077-.693-.11-1.218-.634-1.814-.717-1.369-.188-2.509.482-4.05.669-.954.115-1.893-.2-2.851.2-.69.283-1.035.982-1.781,1.231-1.286.428-2.749.347-4.044.824-.674.246-1.251.846-1.936,1.083-.308.1-.751-.064-1.049.019a15.661,15.661,0,0,0-2.385,1.241,24.607,24.607,0,0,0-5.045,3.7c-1.27,4.87,2.469,8.008,7.794,7.523.43-.227.3-.987,1.035-.92C323.445,315.459,323.849,316.3,324.576,316.426Zm-.112,2.258c-5.3.612-9.792-.375-11.642-3.855-1.212-2.285-2.729-5.877-.292-8.408,2.277-.6,3.4-2.325,5.353-3.248,1.358-.131,3.068.062,4.343-.674,1.324-.765,2.22-2.151,4.007-2.926.9-.39,2.132-.327,3.3-.655a40.109,40.109,0,0,1,7.483-1.635,20.269,20.269,0,0,1,2.7-.048c1.537.188,2.668,1.506,4.1,2.184,1.489.7,3.054.939,3.944,2.186-.15,1.377,1.054,2.306,1.261,3.432.208,1.1-.544,2.271.063,3.456a3.761,3.761,0,0,1-2.22,1.988c-.492,1.828-1.474,2.45-3.1,3.36-1.444.813-2.21,1.964-4.02,2.175-.645-.029-.645.557-1.04.77-1.415-.449-2.311.418-3.742.813-.9.249-1.964.148-2.7.346-.516.139-.925.592-1.493.631-.844.056-1.545-.53-2.412-.559-1.372-.048-2.476.505-3.9.669" fill="#fff" fill-rule="evenodd"/>
      <path id="Path_2797" data-name="Path 2797" d="M179.879,318.2c.636-3.962,6.119-1.873,6.038,1.4-1.185.535-2.249-.3-3.019-.7-1.45.063-2.445.318-3.019-.7" fill="#fff" fill-rule="evenodd"/>
      <path id="Path_2798" data-name="Path 2798" d="M509.7,306.738a1.767,1.767,0,0,0,.5,2.994C511.1,309.188,511.4,306.607,509.7,306.738Zm2.333-4.25c1.312,3.359,1.708,8.239-.264,10.824-.762.569-1.523.342-2.7.348-1.351-.752-2.232-2.874-2.337-4.919-.04-.722-.779-1.212-.779-1.487a9.665,9.665,0,0,1,1.9-2.887c.563-.27,1.18-.01,1.651-.332.511-.784.968-2.239,2.527-1.546" fill="#fff" fill-rule="evenodd"/>
      <path id="Path_2799" data-name="Path 2799" d="M450.894,312.571c-.119-.942,1.127-5.062,2.469-4.851.709.11,1.048,1.689.5,2.694-.079.155-.638.246-.894.468-.836.736-.986,1.752-2.073,1.689" fill="#fff" fill-rule="evenodd"/>
      <path id="Path_2800" data-name="Path 2800" d="M399.712,307.455c1.247.765,2.937,2.565,2.022,4.168-1.46-.4-3.006-2.724-2.022-4.168" fill="#fff" fill-rule="evenodd"/>
      <path id="Path_2801" data-name="Path 2801" d="M419.75,310.559c.03.13-.059.144-.15.154-4.073-.144-6.486-2.584-5.676-6.811a11.442,11.442,0,0,1,3.664-5.173c2.036-1.483,7.62-2.036,8.584.9.776,2.37-1.806,7.485-3.3,8.769-.963.824-2.278,1.319-3.121,2.156" fill="#fff" fill-rule="evenodd"/>
      <path id="Path_2802" data-name="Path 2802" d="M267.254,312.768c.641-1.742,3.217-1.616,4.763-2.483-.212,1.405-2.837,3.21-4.763,2.483" fill="#fff" fill-rule="evenodd"/>
      <path id="Path_2803" data-name="Path 2803" d="M256.985,292.669c1.5.861.976,2.937,1.289,5.083.163,1.137.877,2.218.954,3.138a28.779,28.779,0,0,0,2.71,8.668c1.078.564,2.547.722,3.183,1.747-.808,1.522-2.846.612-4.2.222-1.155-.621-1.068-2.156-1.565-3.577-.249-.722-1.059-1.362-1.236-2.084-.165-.659.081-1.314-.034-1.948-.086-.478-.492-.77-.621-1.2-.337-1.068-.059-2.349-1.108-2.984,1.016-2.887-2.326-5.949.631-7.07" fill="#fff" fill-rule="evenodd"/>
      <path id="Path_2804" data-name="Path 2804" d="M273.779,308c-.366-.795.583-1.207.567-2.113,4.373-3.542,6-11.185,5.692-18.274.76-1.255.163-2.734.38-4.067.107-.659.578-1.088.722-1.661.674-2.734-.418-4.808-1.185-7.643,1.2-1.659,2.6.548,1.84,2.22.091.418.524.481.615.894.372,5.275-.543,9.847-.64,14.733-.029,1.257-.808,2.273-.992,3.471-.1.683.1,1.3.034,1.954-.27,2.5-2.206,3.956-2.442,6.5-.934,1.116-1.343,2.737-2.185,3.941-.842.073-1.792.6-2.407.043" fill="#fff" fill-rule="evenodd"/>
      <path id="Path_2805" data-name="Path 2805" d="M447.65,298.956c2.892-1.209,5.348,2.473,3.838,4.741-.92-.053-1.008-1.083-1.532-1.776-.722-.953-2.337-1.646-2.307-2.965" fill="#fff" fill-rule="evenodd"/>
      <path id="Path_2806" data-name="Path 2806" d="M183.727,305.968a1.077,1.077,0,0,1,1.934-.939c.406,1.421-1.361,1.747-1.934.939" fill="#fff" fill-rule="evenodd"/>
      <path id="Path_2807" data-name="Path 2807" d="M398.407,301.765c.217-2.1,1.883-3.157,3.539-4.115.693-.4,1.31-1.757,2.233-1.092-.1,1.5-1.613,2.185-2.5,3.05a26.3,26.3,0,0,1-2.21,2.441,5.325,5.325,0,0,1-1.059-.285" fill="#fff" fill-rule="evenodd"/>
      <path id="Path_2808" data-name="Path 2808" d="M188.648,303.774c1.015-1.083,3.384-.861,4.625-1.728.454.442.286,1.255.034,1.8-2.167-.121-3.991,3.19-4.66-.073" fill="#fff" fill-rule="evenodd"/>
      <path id="Path_2809" data-name="Path 2809" d="M187.323,305.3a.876.876,0,0,1-.774-1.332c.8-.125.8.6.774,1.332" fill="#fff" fill-rule="evenodd"/>
      <path id="Path_2810" data-name="Path 2810" d="M180.665,302.864c-.473-.021-.9-.093-.91-.588a.555.555,0,0,1,.91.588" fill="#fff" fill-rule="evenodd"/>
      <path id="Path_2811" data-name="Path 2811" d="M194.324,301.722c-.083-1.5.631-2.242,2.215-2.141a1.529,1.529,0,0,0,.279-1.209c.526-.265,1.2-.717,1.8-.482.949.925-.005,2.258-1.463,2.132a1.751,1.751,0,0,1-2.827,1.7" fill="#fff" fill-rule="evenodd"/>
      <path id="Path_2812" data-name="Path 2812" d="M232.737,298.5c-.329-2.041,3.153-2.6,2.706-.043-.684.741-2.148,1.025-2.706.043" fill="#fff" fill-rule="evenodd"/>
      <path id="Path_2813" data-name="Path 2813" d="M178.483,298.242a.977.977,0,0,1,1.666.727c-.4,1.006-2,.934-1.666-.727" fill="#fff" fill-rule="evenodd"/>
      <path id="Path_2814" data-name="Path 2814" d="M431.909,292.319c1.271-.12,2.493,1.03,3.927,1.284.916.163,1.88-.366,2.562.4a.74.74,0,0,0-.144.457c-.634.423-1.372-.153-2.252.04-.554-1.57-3.8-.347-4.092-2.186" fill="#fff" fill-rule="evenodd"/>
      <path id="Path_2815" data-name="Path 2815" d="M420.338,292.52c.177-.909,1.531-.683,2.079-1.236,2.832.9,5.894-.029,8.74,1.049-.328,1.271-1.618.592-2.548.645-2.594.155-6.071.308-8.271-.457" fill="#fff" fill-rule="evenodd"/>
      <path id="Path_2816" data-name="Path 2816" d="M185.528,280.093a8.651,8.651,0,0,1-.029-1.651c1.391-1.2,2.37-4.452,4.911-2.787.324.208.684,1.035,1.228,1.479,1.267,1.025,2.316.985,3.049,2.2.829,2.43,1.945,6.223.91,9.149-.284.538.208.544.168,1.2-.77,2.306-1.222,4.919-2.586,6.656-1.626-.005-3.239,1.713-4.8.683-.545-.36-.54-1.328-.935-1.935-.64-.987-2.031-1.867-2.609-3.258-.1-.236.077-.712-.019-1.054-.136-.466-.67-.827-.775-1.188-.906-3.167.308-6.825,1.487-9.491" fill="#fff" fill-rule="evenodd"/>
      <path id="Path_2817" data-name="Path 2817" d="M201.436,296.043c-1.7.256-1.415-3.08.1-3.007,1.56.072,1.458,2.772-.1,3.007" fill="#fff" fill-rule="evenodd"/>
      <path id="Path_2818" data-name="Path 2818" d="M178.426,294.941c-.473.029-.526-.375-.618-.741.3,0,.188-.414.6-.313a.742.742,0,0,1,.019,1.054" fill="#fff" fill-rule="evenodd"/>
      <path id="Path_2819" data-name="Path 2819" d="M202.707,291.366c-.294-1.059-.034-2.349.708-2.571,2.662-.784,1.94,4.6-.708,2.571" fill="#fff" fill-rule="evenodd"/>
      <path id="Path_2820" data-name="Path 2820" d="M205.042,287.265c-1.116-1.5.511-3.74,1.762-2.132.361,1.583-.324,2.758-1.762,2.132" fill="#fff" fill-rule="evenodd"/>
      <path id="Path_2821" data-name="Path 2821" d="M161.536,239.952a138.036,138.036,0,0,0-15.149,1.917c-1.723.278-2.552,2.012-3.707,2.767.39,1.771-1.468,2.922-1.575,4.385-.129,1.712,1.348,3.047,2.326,4.317,1.353.688,2.629.482,4.526.822,1.5.27,2.907,1.107,4.675.973.163-.015.246-.111.449-.16,2.916-.717,7.168-1.13,9.276-2.416a15.292,15.292,0,0,0,1.326-1.376c1.95-1.873,3.624-3.446,2.878-7.263C165.2,242.277,162.82,241.68,161.536,239.952Zm-25,14.108c-.586-.708-.631-1.728-1.535-1.926a8.445,8.445,0,0,0-2.249.337,7.307,7.307,0,0,0-4.9,3.542c-.323.568-.256,1.333-.719,1.814a15.533,15.533,0,0,1-2.233,1.391,7.551,7.551,0,0,1-2.228,1.391,31.687,31.687,0,0,0-2.375,10.107c-.034,1,.438,2.129.506,3.3.043.76-.279,1.357-.115,1.954.375,1.382,1.762,1.824,1.112,3.437,1.377,2.344,1.188,5.1,4,5.637,1.744.332,3.42-.877,4.488-1.126a7.325,7.325,0,0,0,2.394-.794c.107-.073.038-.511.139-.607a.922.922,0,0,1,.746-.163,22.079,22.079,0,0,0,2.046-3.491,14.152,14.152,0,0,0,1.984-6.79c2.383-4.342,2.479-10.27,1.527-15.8C138.563,255.417,137.288,254.965,136.531,254.06Zm-.578-7.351a4.02,4.02,0,0,0,.188,2.1c.655.091.824-.283,1.041-.621.16-.861-.664-.925-.631-1.792.048-1.284,2.364-2.084,2.34-3.642a3.006,3.006,0,0,1,1.19-.626c.857-2.272,3.1-3.21,4.729-4.737,2.364.093,3.889-2.28,6.119-2.362,1.535-.059,3.239,1.112,4.536,1.425a15,15,0,0,1,8.733,1.2c2.88,3.748,8.257,5.9,5.317,11.627-1.056,2.051-1.952,2.493-3.843,3.822-1.516,1.058-2.629,2.978-4.14,3.826-3.073,1.718-6.871,1.284-10.337,1.833-.714.112-1.4.6-2.094.636-1.883.091-3.515-1.91-5.263-.356-.607,1.242.139,2.06-.091,3.455-.169,1.021-1.094,1.608-1.151,3.023a22.377,22.377,0,0,1-.655,5.574c-.188.629-.689,1.2-.867,1.814s-.1,1.237-.27,1.809c-.254.853-1.049,1.7-1.458,2.73a34.288,34.288,0,0,1-.992,3.32c-.318.583-1,.958-1.324,1.525-.8,1.4-1.051,2.782-2.639,3.8-.284.182-.848.158-1.2.322-.877.4-1.551,1.319-2.075,1.535-1.454.607-7.16,1.42-8.711.3-.23-.164-.244-.645-.621-1.039-1.04-1.1-2.4-1.642-2.763-3.408-.115-.559.059-1.233-.034-1.8-.255-1.664-1.352-3.341-1.742-5.078-.891-4-.165-9.048.679-12.932.476-2.2.168-4.467,1.857-5.438a9.7,9.7,0,0,1,2.032-4.091c.554-.641,1.613-.882,2.075-1.541.347-.492.511-1.405.867-2.119.722-1.448,1.314-2.2,2.041-3.489,1.69-.313,3.236-1.824,4.926-1.891,1.541-.059,2.629,1.169,4.231,1.279" fill="#fff" fill-rule="evenodd"/>
      <path id="Path_2822" data-name="Path 2822" d="M525.844,275.81c-.665,2.849-3.834,5.5-6.691,4.024a3.144,3.144,0,0,1-.678-4.495,18.216,18.216,0,0,1,3.57-2.017c2.161-.425,3.108,1.044,3.8,2.488" fill="#fff" fill-rule="evenodd"/>
      <path id="Path_2823" data-name="Path 2823" d="M177.482,283.991c.337-.755,1.829-.389,2.1.112.827,1.5-2.211,2.569-2.1-.112" fill="#fff" fill-rule="evenodd"/>
      <path id="Path_2824" data-name="Path 2824" d="M255.472,283.684c-.076-.322.213-.294.449-.308a3.59,3.59,0,0,0-.915-.736c-.16-1.286.308-1.969,1.314-2.127,1.319.688.246,4.018-.848,3.171" fill="#fff" fill-rule="evenodd"/>
      <path id="Path_2825" data-name="Path 2825" d="M207.791,281.209a.817.817,0,0,1,1.185-1.073c.169.9-.313,1.174-1.185,1.073" fill="#fff" fill-rule="evenodd"/>
      <path id="Path_2826" data-name="Path 2826" d="M178,279.323a1.922,1.922,0,0,1,2.407.259c.646,2.619-3.52,1.792-2.407-.259" fill="#fff" fill-rule="evenodd"/>
      <path id="Path_2827" data-name="Path 2827" d="M230.873,251.812c-.283,1.551-1.554,2.148-2.349,3.2-2.326,7.132-2.484,16.129,1.728,21.6,1.626.877,3.694.815,4.646-.677.428-1.844,2.215-3.331,2.913-5.458.169-.53.107-1.2.265-1.81.559-2.117,1.758-4.553,1.845-6.493.139-3.1-1.821-5.7-2.11-8.826-.217-1.508-3.312-1.752-3.062-3.25.265-1.6,3.394-.875,4.507.072,1.541,3.365,3.4,8.472,1.874,12.432.674,1.8-.516,3.014-.973,4.524-.4,1.334-.139,3.009-1.291,3.63.27.279.126.992.179,1.5-.861,2.368-2.455,4.029-3.191,6.512a6.259,6.259,0,0,1-7.377-.621c-1.3-1.338-1.083-3.62-2.485-4.615a5.083,5.083,0,0,0-1.415-3.432c.471-.832-.121-1.718-.193-2.7-.131-1.69.894-4.283.939-6.324.008-.356-.222-.717-.169-1.049.2-1.233,1.3-2.691,1.579-4.082.471-2.349,1.671-4.374,4.14-4.13" fill="#fff" fill-rule="evenodd"/>
      <path id="Path_2828" data-name="Path 2828" d="M207.537,275.2c1.53-1.068,2.474.808,2.137,1.916-.612,2.012-3.525.217-2.137-1.916" fill="#fff" fill-rule="evenodd"/>
      <path id="Path_2829" data-name="Path 2829" d="M196.429,276a1.079,1.079,0,0,0-.457-.289c.115-1.025.886-1.41,1.926-1.541A2.317,2.317,0,0,1,196.429,276" fill="#fff" fill-rule="evenodd"/>
      <path id="Path_2830" data-name="Path 2830" d="M258.141,272.822c.1-3.793,1.656-6.18,3.306-8.472a4.3,4.3,0,0,1,1.8-.033c1.044,1.362-.337,2.877-1.441,3.478a3.32,3.32,0,0,1-1.309,2.581c-.179,1.41-.818,2.786-2.359,2.445" fill="#fff" fill-rule="evenodd"/>
      <path id="Path_2831" data-name="Path 2831" d="M209.005,273.374a3.59,3.59,0,0,1-.786-1.939c.308-.048.294-.4.444-.605,2.239-.7,2.451,2.863.342,2.545" fill="#fff" fill-rule="evenodd"/>
      <path id="Path_2832" data-name="Path 2832" d="M198.037,273.418c-.15-.69.3-.789.885-.766.163.7-.246.841-.885.766" fill="#fff" fill-rule="evenodd"/>
      <path id="Path_2833" data-name="Path 2833" d="M276.36,266.193c1.905-1.848,3.384.877,3.948,2.335-.714,3.133-4.983.453-3.948-2.335" fill="#fff" fill-rule="evenodd"/>
      <path id="Path_2834" data-name="Path 2834" d="M208.427,265.875c2.533-.308,1.642,5.05-.4,3.162-.463-1.279-.924-2.5.4-3.162" fill="#fff" fill-rule="evenodd"/>
      <path id="Path_2835" data-name="Path 2835" d="M125.159,265.227c1.075-1.431,3.963-2.292,5.248-.545,1.516,4.256-3.3,7.244-5.2,3.4-.019-.953-.033-1.905-.048-2.853" fill="#fff" fill-rule="evenodd"/>
      <path id="Path_2836" data-name="Path 2836" d="M233.382,266.492c-2.642.37-4.71-3.683-2.661-6.267a6.436,6.436,0,0,1,2.974-1.7c1.816.059,2.832,4.357,2.21,6.273a3.189,3.189,0,0,1-2.523,1.7" fill="#fff" fill-rule="evenodd"/>
      <path id="Path_2837" data-name="Path 2837" d="M206.419,263.055a1.448,1.448,0,0,1,2.273.861c.1,1.838-2.5,1.286-2.273-.861" fill="#fff" fill-rule="evenodd"/>
      <path id="Path_2838" data-name="Path 2838" d="M270.524,259.234a3.7,3.7,0,0,1,2.758,2.954c-1.525.7-5.719.81-5.874-.65-.139-1.308,2.268-1.544,3.116-2.3" fill="#fff" fill-rule="evenodd"/>
      <path id="Path_2839" data-name="Path 2839" d="M205.659,262.319c-1.806,1.926-3.375-1.883-1.393-2.079.944-.1,1.248,1.006,1.393,2.079" fill="#fff" fill-rule="evenodd"/>
      <path id="Path_2840" data-name="Path 2840" d="M195.726,261.592c-.618,1.358-2.682.607-2.712-.4-.043-1.573,2.648-1.357,2.712.4" fill="#fff" fill-rule="evenodd"/>
      <path id="Path_2841" data-name="Path 2841" d="M196.905,260.369a1.825,1.825,0,0,1-.184-2.1c1.42-.1,2.49.173,2.284,1.762-.545.822-1.3-.03-2.1.34" fill="#fff" fill-rule="evenodd"/>
      <path id="Path_2842" data-name="Path 2842" d="M200.048,259.561c-.124-1.193.357-1.854,1.171-1.824,1.958.067.795,3.552-1.171,1.824" fill="#fff" fill-rule="evenodd"/>
      <path id="Path_2843" data-name="Path 2843" d="M531.452,252.876c-3.852.847-3.979-3.826-4.173-6.835a3.3,3.3,0,0,1,5.392-.846c.792,2.017.4,3.047.99,4.789a3.752,3.752,0,0,1-2.21,2.892" fill="#fff" fill-rule="evenodd"/>
      <path id="Path_2844" data-name="Path 2844" d="M408.894,222.419c2.167,1.219,3.231,3.59,4.314,5.931,1.362.578,1.857,2.049,3.643,2.189,1.128,1.844,3.549,2.34,5.028,3.823,3.282.2,6.053,1.8,9.177.741.751-1.988,1.8-3.678,1.69-6.493.953-.751.88-2.5,1.439-3.63-.034-2.088-.944-2.756-1.723-4.024-1.142-1.862-2.385-4.639-3.565-6.1-.61-.76-1.164-.712-1.67-1.025a16.911,16.911,0,0,1-2.6-2.509c-.573-.172-.875-.621-1.516-.721-.26-1.166-1.087-1.03-1.983-1.773-1.383-1.14-3.7-4.018-5.764-2.9-.131,1.006.853,1.774.193,2.4-2.134-.449-5.576-3.432-8.281-1.054C405.412,212.467,407.116,217.929,408.894,222.419Zm-17.778,23.3c1.31-.169,1.725,1.867,2.455,2.806,7.079,2.56,11.051-5.612,14.267-9.111a31.924,31.924,0,0,1,2.292-6.348c1.069-3.673-.891-5.567-2.546-8.369-.781-1.315-1.685-4.178-3.978-3.836-.356.052-.736.538-1.19.774-1.241.65-2.277.765-3.274,1.709-.463.438-.65,1.193-1.174,1.675-1.155,1.054-2.726,1.41-3.413,2.459-.3,1.291-1.431,1.771-1.749,3.038.829,3.43-1.814,4.457-2.586,6.806.473.615.088,1.4.189,2.247.217,1.8,1.67,3.74.693,5.246a4.277,4.277,0,0,1-2.744-2.2,7.946,7.946,0,0,1-.861-6.445c.265-.8,1.038-2,1.592-3.181.545-1.155.979-2.589,1.444-3.33.363-.569,1.123-.92,1.479-1.527.24-.412.192-1.006.428-1.362.77-1.169,2.307-2.141,3.549-3.363,1.19-1.18,2.447-2.811,3.549-3.221,2.234-.827,4.911-.139,5.06-2.792.1-1.659-1.03-3.282-1.137-4.937a26.254,26.254,0,0,1,.091-3.159,11.759,11.759,0,0,1,3.337-7.119c1.8.208,2.855-1.173,4.347-.375,2.741-1.9,6.713-.674,9.77-.019,1.083,2.651,1.888,5.588,5.065,6.07.442.423-.285.476-.13,1.054,2.562,2.954,6.558,4.423,7.665,8.879a8.815,8.815,0,0,1,1.68,10.035c.236,1.262,1.176,2.079.813,3.59a14.442,14.442,0,0,1-.707,2.571c-.2.361-.786.361-1.19.77-1.222,1.241-1.728,3.436-4.14,3.676a6.642,6.642,0,0,1-1.209-.279c-1.613-.235-4.055-.067-5.571-.506a18,18,0,0,1-2.878-1.448c-1.68-.909-2.936-1.3-3.8-2.643a5.748,5.748,0,0,1-2.73-1.6c-2.225,1.444-2.273,4.99-2.715,8.157-1.955,1.314-2.335,4.144-3.953,5.781-.144,1.7-1.773,2.932-2.784,4.254-2.167.366-4.857,2.008-7.328,2.228-1.426.131-4.636-.24-4.988-1.862-.169-.77.409-1.207.265-1.958-.217-1.137-2.012-1.429-1.252-2.83" fill="#fff" fill-rule="evenodd"/>
      <path id="Path_2845" data-name="Path 2845" d="M150.72,248.857c-.244-1.6-1.27-3.908.064-4.963,1.723-.39,3.043,1.121,4.381,1.429,1,.227,1.848.169,2.421.858.28,2.338-.939,3.229-2.031,4.24-1.589-.545-3.664-.588-4.835-1.564" fill="#fff" fill-rule="evenodd"/>
      <path id="Path_2846" data-name="Path 2846" d="M400.073,233.537c-1.516-.177-2.142,1.107-1.613,2.431a3.971,3.971,0,0,0,1.964.418C400.226,235.482,400.472,234.481,400.073,233.537Zm-.96,5.425c-2.723,1.352-4.438.024-3.664-3.389.136-.611,1.941-4.5,2.616-5.005,2-1.5,3.833.564,3.659,2.94a13.47,13.47,0,0,1-1.145,3.327c-.478.7-1.185,1.183-1.465,2.127" fill="#fff" fill-rule="evenodd"/>
      <path id="Path_2847" data-name="Path 2847" d="M465.346,227.892a5.754,5.754,0,0,0,4.8-.385c.361-.284.392-1.064.726-1.517.858-1.159,2.566-2.185,2.94-3.5.255-.887-.207-1.9-.048-2.706.277-1.376,1.466-1.664,1.761-2.732.167-.43.018-.641-.172-1.051,2.707-4.3,1.532-12.451,1.646-17.606-1.259-.934-1.034-2.565-2.166-3.566-1.642-1.453-4.7-.322-6.906.12-1.012,2.21-2.575,4-3.5,6.075-.251.562-.9,1.049-1.021,1.515-.167.588.119,1.262.031,1.955-.128,1.063-.933,1.977-1.149,3.023-.194.942.185,2.285.062,3.454-.114,1.041-.682,1.955-.709,2.715-.009.519.339.968.326,1.5-.013,1.18-.638,2.186-.541,3.317.2,2.306,1.818,4.024,1.62,6.431C464.175,225.725,464.223,227.376,465.346,227.892Zm2.8-37.753a2.265,2.265,0,0,0,3.134-1.262c-.453-1.26-2.32-1.063-2.157-2.964a1.124,1.124,0,0,0,.295-.457c2.078-.322,4.151.058,4.543,2.175,1.792.208,2.447,2.421,3.821,3.389.229.163.726.11.9.284.37.375.709,1.439,1.246,2.233.546.824,1.378,1.391,1.532,2.074.48,2.108-.581,4.8-.176,6.917a5.406,5.406,0,0,0,2.161,3.267c-.326,1.4.176,2.844-.233,4.058-.264.789-1.246,1.512-1.761,2.435-.924,1.671-1.158,3.306-2.32,4.7-1.373,3.518-2.716,8.187-5.511,11.215a20.756,20.756,0,0,1-2.232,1.541c-1.2.971-2.205,2.758-4.618,2.483a11.605,11.605,0,0,1-5.766-3.5c-.832-1.29-.5-3.114-1.73-4.177a3.593,3.593,0,0,1,.286-.9c-1.844-3.5-.453-7.528-.656-11.859a11.078,11.078,0,0,1-.062-3.6c.224-.9.9-1.667,1-2.576a22.116,22.116,0,0,1,1.4-6.03c2.469-2.984,3.882-6.988,6.9-9.433" fill="#fff" fill-rule="evenodd"/>
      <path id="Path_2848" data-name="Path 2848" d="M326.443,199.669a23.437,23.437,0,0,0-1.613,2.281c-2.894.755-3.226,3.97-5.007,5.8-2.591.206-2.273,3.214-3.678,4.567.11,2.362-.791,4.379-.791,6.324a10.311,10.311,0,0,1,.169,1.2c-.144,1.131-.982,2.215-1.145,3.176-.467,2.72,1.377,3.5,1.9,5.372a3.6,3.6,0,0,1,2.273,1.166c6.056,1.415,7.636-3.649,10.563-6.2-.027-.664.406-.891.27-1.656a6,6,0,0,0,1.045-.621,53.483,53.483,0,0,1,2.445-6.049c.3-.655.136-1.228.414-2.113.251-.784.944-1.357,1.011-2.271.1-1.193-.019-2.629.083-4.058a30.809,30.809,0,0,0-.4-6c-.5-.208-.92-1.112-1.516-.722-.458.846-.313,2.483-1.45,3.026-1.561-.457-.5-2.767-.666-3.743C329.1,197.964,327.638,199.447,326.443,199.669Zm-6.884,1.621c-.246-1.092.053-1.8-.2-2.849.695-.7.96-1.536,2.07-1.988.511-.206,1.281-.057,1.95-.337,1.527-.634,2.115-2.56,3.251-3.21a6.7,6.7,0,0,1,2.994-.505c2.918.04,7.045,1.07,8.321,3.162-.091,2.806.636,5.872,1.214,8.991.22,1.218.038,2.536.361,3.6.364,1.212,2.247,2.651.679,4.345a6.505,6.505,0,0,0-4.263,5.781c-1.453,2.142-3.616,3.6-5.31,5.5-1.045,3.274-3.536,5.637-6.178,7.774-3.654,2.951-10.059-.222-12.225-2.8-.413-2.451-2.33-4.8-2.387-7.769-.01-.535.279-1.126.273-1.656a23.646,23.646,0,0,1-.346-2.4,5.96,5.96,0,0,1,1.9-3.191c.091-2.569.611-4.433,2.3-5.747,1.006-.784,3.11-1.241,2.8-3.355,1-.163.958-1.338,1.314-2.127.43-.466,1.2-.61,1.484-1.228" fill="#fff" fill-rule="evenodd"/>
      <path id="Path_2849" data-name="Path 2849" d="M424.1,223.8a5.978,5.978,0,0,1-4.338,1.126c-3.025-.34-4.9-4.765-4.194-7.738.163-.695,1.054-2.4,1.608-2.581,1.334-.442,3.7,1.241,4.247,2.18.241.414.2,1.174.482,1.79.928,2.081,2.729,2.951,2.2,5.222" fill="#fff" fill-rule="evenodd"/>
      <path id="Path_2850" data-name="Path 2850" d="M323.213,221.356c-6.538-.034-4.569-15.479,2.34-12.359,2.354,3.566,2.595,11.247-2.34,12.359" fill="#fff" fill-rule="evenodd"/>
      <path id="Path_2851" data-name="Path 2851" d="M471.847,204.192c1.083,1.878.044,5.2.581,7.653.123.538.7,1.006.784,1.487.361,2.435-2.17,5.717-5.185,4.446-2.029-1.444-2.637-4.029-2.527-6.867,1.277-2.884,1.831-9.28,6.348-6.72" fill="#fff" fill-rule="evenodd"/>
      <path id="Path_2852" data-name="Path 2852" d="M219,200.343c1.112.26,1.578.9,2.576,1.006,4.782.514,6.443-4.9,9.048-6.916-.034-1.364.712-1.969,1.15-2.875-.211-.191-.16-.648-.169-1.049,1.622-1.924,1.752-5.043,2.421-7.555-1.353-2.2-.837-5.439-1.939-7.779a18.016,18.016,0,0,1-4.935-7.271c-.117-.035-.294,0-.3-.145-2.051.217-3.124.519-5.1.688-1.541.872-1.728,3.057-3.694,3.518-1.45,4.087-3.785,8.785-3.212,14.179-.53.323-.351,1.334-.562,1.965,1.4,1.53-.275,4.1.1,6.006.3,1.487,1.689,1.742,2.012,3.267.251.353,1.035.155,1.358.43A15.449,15.449,0,0,0,219,200.343Zm-10.135-3.879a6.088,6.088,0,0,0,.947-6.027c-.062-1.626,1.372-3.6,1.56-5.134a4.879,4.879,0,0,0-.505-3.3c-1.1-1.333-3.884.366-4.983-1.261.877-2.156,3.433-2.691,5.191-4,.621-2.127,2.089-2.661,2.319-5,1.8-1.169,2.76-3.142,3.969-4.875,2.123-.8,2.99-2.686,4.9-3.394a8.847,8.847,0,0,1,8.143,1.363c.481.423.548,1.1,1.078,1.483,1.329.966,2.576,2.632,3.817,3.691.256,2.435,2.042,3.286,2.8,5.207a71.467,71.467,0,0,1,.789,10.8c-.241.313-.3.794-.581,1.064.64,3.336-.419,6.267-1.647,8.89a12.292,12.292,0,0,0-4.411,5.786c-2.3,1.082-3.105,4.225-5.315,5.351a7.955,7.955,0,0,1-2.841.8c-.8.009-1.219-.583-2.12-.861-.837-.26-1.934-.067-2.71-.256-4.6-1.121-9.34-6.049-10.4-10.332" fill="#fff" fill-rule="evenodd"/>
      <path id="Path_2853" data-name="Path 2853" d="M387.187,192.753a21.414,21.414,0,0,1,3.226-4.564c.724-2.306,2.244-4.13,2.134-6.8a22.758,22.758,0,0,1,2.937-3.956c-.107-2.536.819-4.88.931-7.223.033-.722-.238-1.4-.189-2.1.04-.576.409-1.183.419-1.809a30.094,30.094,0,0,0-.212-3.451c-.067-.486-.462-.9-.625-1.492-.27-.967-.117-2.189-.358-3.147a19.437,19.437,0,0,1-.789-2.239,32.755,32.755,0,0,0-.688-5.1,23.513,23.513,0,0,0-1.407-2.83c-1.367-2.855-2.942-4.625-4.328-6.985-.462-.283-1.088-.4-1.516-.72-.795-1.4-2.447-3.451-4.426-3.981a12.82,12.82,0,0,0-4.665-.222c-2.124,1.26-4.469,3.643-6.221,5.067-.385,1.7-1.709,3.033-2.172,4.695-.265.937-.053,1.967-.4,2.863-.283.728-.968,1.17-1.319,1.825-.578,1.073-.732,2.306-1.6,3.181-1.059,3.028-.8,6.324-1.487,9.342-.107.457-.53.88-.578,1.362-.077.765.418,1.5.49,2.244.16,1.712-.134,3.5.093,5.254.265,2.032,1.405,4.117,1.752,5.829.125.607-.1,1.233.034,1.954.225,1.238,1.107,2.325,1.415,3.432.192.7.019,1.454.187,2.1.434,1.689,2.292,3.735,3.087,4.754.877,1.121,1.455,2.247,2.755,2.651.626,2.21,3.654,1.926,6.2,2.148C382.56,197.411,385.084,193.845,387.187,192.753ZM374.14,134.091c.674-2.189-1.632-3.272-.4-5.7.27-.53,1.021-.891,1.479-1.525,1.027-1.429,1.021-2.627,2.952-2.907.485-.067,1.108.283,1.661.27,1.458-.029,3.158-.683,4.357.227,1,1.63.611,3.6,1.594,4.928,2.151,2.926,5.4,4.489,8.522,6.309a29.82,29.82,0,0,1,2.4,8.073c1.087,2.247,3.4,4,2.835,7.464.554.693.356,1.044.337,2.1-.034,2,1.747,3.37.538,5.1.863,1.659.411,3.075.39,5.1-.033,3.055,1.161,6.276.449,8.558-.332,1.063-1.305,1.891-1.6,2.882-.134.452-.019.939-.125,1.353-.428,1.733-1.554,3.128-1.713,5.14-2.235,3.451-2.928,8.394-4.744,12.249-1.945.958-5.4-.351-5.055,3.245-.573.231-.861.741-1.333,1.073-1.4-.463-2.2.8-2.987,1.1a13.45,13.45,0,0,1-6.157.409,20.8,20.8,0,0,1-3.028-1.6c-2.2-1.063-3.872-1.461-5.317-3.065a32.469,32.469,0,0,1-3.4-5.5c-.486-.872-1.253-1.69-1.542-2.378a17.952,17.952,0,0,1-.5-2.546c-.2-.7-.76-1.343-.938-2.084s.1-1.525-.038-2.252a17.531,17.531,0,0,0-1.421-3.73c-.457-.934-1.358-1.613-1.546-2.526-.333-1.608.655-2.421.838-3.774.077-.592-.308-1.126-.332-1.8a43.7,43.7,0,0,1,.222-4.51c.086-1.111.7-2.122.846-3.171.165-1.219-.327-2.181-.206-3.149.227-1.881,2.027-3.494,2.461-5.452a8.383,8.383,0,0,0-.024-1.2c.086-.88.679-1.3,1.016-2.271.2-.578.027-1.372.265-1.955.519-1.29,2.248-3.1,2.32-4.846.714-.251.963-.939,1.479-1.383-.01-1.993.005-3.374.819-4.823,1.209-1.073,3.442-.592,4.632-1.429" fill="#fff" fill-rule="evenodd"/>
      <path id="Path_2854" data-name="Path 2854" d="M311.715,191.063c1.556-.482,3.554.077,3.482,1.444-.121,2.282-5.195,1.573-3.482-1.444" fill="#fff" fill-rule="evenodd"/>
      <path id="Path_2855" data-name="Path 2855" d="M202.659,185.158c.221-1.671,2.562-2.046,3.41-2.614-.144,1.857,1.011,2.536.982,4.634-.708-.158-1.016.607-1.792.786-1.429-.358-1.979-1.618-2.6-2.806" fill="#fff" fill-rule="evenodd"/>
      <path id="Path_2856" data-name="Path 2856" d="M221.3,177.018c4.964-.22,5.5,6.128,2.856,8.664-5.079,2.248-6.114-6.709-2.856-8.664" fill="#fff" fill-rule="evenodd"/>
      <path id="Path_2857" data-name="Path 2857" d="M376.691,168.3c-.107-.115-.843-.316-.9.015.3.038.3.4.607.442C376.432,168.537,376.643,168.494,376.691,168.3Zm-1.816,8c-.231-.813.767-.444.732-1.064-.04-.573-1.107-.072-1.358-.428-.5-1.367-1.675-2.94-2.036-4.62-.564-2.661.463-9.318,1.763-11a16.636,16.636,0,0,1,4.9-3.692c1.093-.567,2.273-1.236,3.289-.957,1.752.481,2.923,3.71,4.589,4.577-.385,1.565.351,3.681.1,5.857-.12,1.069-.818,2.123-1.14,3.475-.107.444.1.91.024,1.353-.077.418-.5.8-.578,1.207a14.856,14.856,0,0,1-.265,2.108,11.974,11.974,0,0,1-3.087,3.962c-.693.342-3.592,1.121-4.8.832a4.065,4.065,0,0,1-2.134-1.611" fill="#fff" fill-rule="evenodd"/>
      <path id="Path_2858" data-name="Path 2858" d="M220.07,175.386a2.907,2.907,0,0,1,2.937-3.955c.843,1.929-.762,4.471-2.937,3.955" fill="#fff" fill-rule="evenodd"/>
      <path id="Path_2859" data-name="Path 2859" d="M400.9,151.5c-.112-.647.543-.554,1.038-.622.083.622-.7.414-1.038.622" fill="#fff" fill-rule="evenodd"/>
      <path id="Path_2860" data-name="Path 2860" d="M405.671,149.763c-.37.034-.466-.227-.755-.284a1.291,1.291,0,0,1,.134-.9.814.814,0,0,1,.621,1.188" fill="#fff" fill-rule="evenodd"/>
      <path id="Path_2861" data-name="Path 2861" d="M404.411,146.48c-.044-.635,0-1.188.428-1.357,1.56-.04.514,2.873-.428,1.357" fill="#fff" fill-rule="evenodd"/>
      <path id="Path_2862" data-name="Path 2862" d="M455.934,403.07a3.869,3.869,0,0,1-1.206-.279c-.106.592-.295,1.092-.427,1.656C455.19,404.321,455.943,404.062,455.934,403.07Zm-1.439,3.778c-.462.294-.612.885-1.03,1.222C454.094,410.863,458.008,406.775,454.495,406.848Zm3.667,3.542a6.758,6.758,0,0,1-.612-.741c-1.99-.033-3.812,1.281-2.954,3.057C456.471,412.6,457.959,412.1,458.162,410.39Zm1.127,4.188c-.009-.554-.018-1.1-.026-1.656a2.42,2.42,0,0,0-1.664-.27c-.348.891-1.162,1.332-1.153,2.576C457.365,416.344,458.567,415.252,459.289,414.578Zm.493,2.392c-.753.225-.669.514-.731,1.217C460.257,418.236,460.332,417.591,459.782,416.97Zm3.244,5.2c-3.31-.241-6.215-2.228-8.337-4.213a14.423,14.423,0,0,0-2.329-4.163c.528-3.508-2.293-6.916-1.673-10.035.519-2.638,3.777-5.853,6.84-4.029.66.4,1.457,1.541,2.447,2.365a15.712,15.712,0,0,1,3.825,4.139c.207,3.879,1.514,6.329.634,10.353-.273,1.247-1.219,2.641-.379,4.211-.4.4-.44,1.15-1.03,1.372" fill="#fff" fill-rule="evenodd"/>
      <path id="Path_2863" data-name="Path 2863" d="M330.011,309.269c-.1.467.612,1.089.029,1.805-1.719.126-3.375,1.806-5.089.99-2.605-1.241-1.19-5.048.486-6.469a3.828,3.828,0,0,0,1.8-.485c1.2.918,3.993.514,4.094,2.036.072,1.083-1.214.923-1.315,2.122" fill="#fff" fill-rule="evenodd"/>
      <path id="Path_2864" data-name="Path 2864" d="M441.267,415.343a5.058,5.058,0,0,0-.524-4.347c-.07,1.555-.973,3.181.079,4.8a8.972,8.972,0,0,0,1.321,6.589C443.653,420.363,441.972,417.032,441.267,415.343Zm7.184-36.179c.475.6-.048,1.26-.423,1.506-1.008,3.705-3.755,7.364-5.366,11.364.6,2.165-.986,3.9-.048,5.857A7.292,7.292,0,0,1,441,400.173c-.238,2.079-.881,5.192.119,6.757.885-.669.308-2.753,1.144-3.475-.445-2.253.92-4.308.5-5.564,1.259-1.448,1.527-3.845,2.61-5.457.031-4.158,2.082-7.4,2.967-10.864,2.522-2.29,3.918-5.669,7.4-7.041-.4,3.017-2.993,3.9-4.257,6.083-.621.088-.867.54-1.492.626-1.712,3.264-1.4,8.847-4,11.637.665,1.527-.687,3.138-.968,4.823-.031.2.207.564.167.752-.176.693-.634,1.078-.726,1.664-.084.548.216,1.064.18,1.647-.136,2.266-1.88,4.379-1.527,7.387.106.877.581,1.671.8,2.691-.784,4.361.524,9.8,1.431,12.894.894,1.659,3.293,3.272,2.65,5.516-1.325.043-1.07-1.546-2.28-1.618-.5,1.137.8,1.723,1.391,2.233.009,1.159.792,1.516,1.092,2.381,4.041,1.276,6.409,4.275,11.8,4.149,1.021-.634,2.615-.722,3.125-1.852.841-.169,1.321-.7,2.39-.647,1.994-1.413,4.384-2.464,5.018-5.2,3.363-2.267,4-7.248,5.533-10.159.524-.992,1.347-1.849,1.9-2.889a14.793,14.793,0,0,1,.872-1.964c.374-.486,1.056-.776,1.479-1.381a11.1,11.1,0,0,0,1.431-4.082c.132-1.089-.189-2.122.1-3.152a21.377,21.377,0,0,0,.854-2.421c.1-.53.313-1.166.423-1.81.119-.707.128-1.464.264-2.108.053-.249.414-.663.436-.909.062-.736-.238-1.5-.189-2.247.079-1.233.722-2.435.841-3.625.141-1.487-.55-3.215.216-4.5-.563-3.4-.026-7.079-1.078-10.353-.92-2.849-2.584-5.562-3.451-8.2a6.008,6.008,0,0,1-3.2-2.5,3.21,3.21,0,0,1-1.356-.126c-1.593-4.312-7.043-3.668-11.467-2.651-1.541,1.429-3.764,1.809-5.357,3.095a17.38,17.38,0,0,0-3.821,4.725c-2.355.481-2.606,2.995-4.6,3.836-.26,1.222-.524,2.445-2.06,2.436-.665-2,1.351-2.787,2.025-4.39.806-1.91,2.227-4.423,4.279-4.732,1.263-2.632,3.491-3.859,6.515-5.519a24,24,0,0,1,4.926-2.191,15.66,15.66,0,0,1,2.549-.043,21.37,21.37,0,0,1,3.6-.514c1.726.124,3.112,1.38,4.978,1.116-.053.631.594.476.916.731.475.385.77,1.31,1.673,1.174a1.289,1.289,0,0,0,.163.9,15.065,15.065,0,0,1,1.99,2.065c.7,1.17.828,2.729,1.422,3.885.4.769,1.017.64,1.523,1.173.7.743.647,1.757,1.4,2.228,0,.353.009.7.018,1.051.176,1.247,1.14,1.838,1.549,2.978.471,1.29.07,2.729.374,4.048.216.93.88,1.786.951,2.841.167,2.512-.629,5.766-.6,8.572.009.947.436,1.762.348,2.551-.053.5-.519.948-.577,1.512-.158,1.635.436,3.719.247,5.4a19.21,19.21,0,0,1-1.153,3.023,16.147,16.147,0,0,0-1.118,4.826c-.916.987-.894,2.874-1.73,3.938-.546,5.38-4.12,7.835-5.652,12.263.013.506.022,1.006.031,1.506a5.409,5.409,0,0,0-1.307,2.426c-.585-.011-.907.824-1.941.784-.423,1.07-.709,2.271-1.144,3.326-1.413.072-1.567,1.579-2.672,2-.533.2-1.193-.107-2.1.187-.841.27-1.1.992-1.778,1.531-1.07.852-2.417,1.1-3.121,2.005-4.5.8-10.093-.04-13.417-2.163-.4,0-.8.014-1.2.019a6.244,6.244,0,0,1-2-2.368c-2.94-.476-4.719-2.836-6.1-5.3-1.149-2.055-1.655-5.324-2.545-8.066-.318-.977-1.17-1.426-1.252-2.83-.125-2.223-.227-5.005.337-6.618-.626-1.078-.067-2.068.091-3.157.5-3.355-.572-7.445,1.166-10.834-.492-1.092.11-1.833.4-2.71.55-1.654.731-3.989,1.246-5.88.167-.592.748-1.092,1.026-1.819.546-1.463.722-3.322,1.281-4.232.7-1.135,1.919-2.074,2.8-3.355a25.269,25.269,0,0,1,1.752-2.882" fill="#fff" fill-rule="evenodd"/>
      <path id="Path_2865" data-name="Path 2865" d="M472.1,382.355a3.165,3.165,0,0,0,.044,2.7c-1.008,2.83-.282,7.907-4.688,6.993-.7-.982-2.117-1.353-2.747-2.657-.832-1.714-.418-4.328-.568-6.6.2-.447.55-.746.731-1.212-.423-2.493,1.9-4.254,4.45-3.234,1.774.717.9,3.461,2.778,4.01" fill="#fff" fill-rule="evenodd"/>
      <path id="Path_2866" data-name="Path 2866" d="M291.676,386.1c-.173.024-.27-.029-.3-.144.717-4.033,3.721-5.857,5.1-9.256,2.252-.822,3.1-3.007,4.121-5.024-.308-.192-.39-.615-.765-.741-.795.018-1.132.481-1.637.78a22.777,22.777,0,0,1-16.141-3.327,15.533,15.533,0,0,0-2.119-.712,32.592,32.592,0,0,1-8.016-11.576c-.751-1.953-1.834-3.518-1.155-5.992,1.527.222,1.3,1.945,1.859,3.124.482,1.006,1.57,1.771,2,2.82a24.863,24.863,0,0,0,.645,2.541c.3.559,1.011.813,1.377,1.329.3.428.346,1.049.626,1.493.615.982,1.613,1.611,2,2.665,2.725,1.5,5.528,3.914,9.254,4.8,4.521,1.073,8.6,1.174,12.153-.963a4.382,4.382,0,0,0,5.358-2.951c2.461-1.415,3.217-4.476,5.151-6.4a12.4,12.4,0,0,1,1.538-6.637c.019-.635-.583-.621-.622-1.193.029-4.414,0-9.409-2.186-13.184a5.2,5.2,0,0,1,.125-1.5c-3.381-4.8-5.074-11.358-9.433-15.155.048-1.022-.923-.979-.789-2.094-1.979-1-3.105-2.9-5.176-3.812-1.9.227-2.961-.827-4.536-1.574-1.132-.534-2.413-.443-2.292-2.215,2.567-.87,4.622.506,6.785,1.233a11.274,11.274,0,0,1,2.118.867c.578.332.91.961,1.525,1.322.385.227,1,.2,1.358.43.982.624,1.527,1.862,2.595,2.208a17.448,17.448,0,0,0,4,5.04,4.723,4.723,0,0,0,1.544,2.373c1.257,4.558,4.363,7.209,6.5,10.853a4.619,4.619,0,0,0,.795,2.392c-.444,1.766.9,2.512,1.116,3.735.069.4-.26.688-.284,1.059-.029.452.3,1.266.337,1.945.024.567-.182,1.266-.125,1.656.208,1.361,1.093,1.915.824,4.042a50.3,50.3,0,0,1-2.258,8.3c.125.478.559.646.77,1.035.727-.241,2.07-.578,2.7-.043.187,2.049-2.5,1.319-3.111,2.6a9.84,9.84,0,0,0-1.343.328,20.193,20.193,0,0,1-4.6,3.382c-.184.366-.179.912-.43,1.209-4.049,3.08-8.113,6.147-10.635,10.7.033.473-.6.3-.738.612-1.535,2.849-4.049,4.754-5.58,7.609" fill="#fff" fill-rule="evenodd"/>
      <path id="Path_2867" data-name="Path 2867" d="M268.69,283.149a1.63,1.63,0,0,0-2.426-1.309C266.258,283.544,267.567,283.67,268.69,283.149Zm4.17,6.388a3.911,3.911,0,0,0,.5,2.546c.15,0,.3-.005.449-.011C274.039,291.072,274.029,289.753,272.859,289.537Zm-8.152-10.671c1.171-.6,4.927-.5,6.467.184,1.319.586,1.4,2.068,2.171,3.869.784,1.854,2.055,3.191,2.34,4.919.062.4-.169,1.083-.125,1.651.144,1.806,1.332,4.048.4,5.7a5.373,5.373,0,0,1-2.822,2c-2.052.155-3.742-2.314-5.171-3.363-1.387-1.026-2.548-.882-3.5-2.643-.179-.332-.1-.924-.323-1.348-.206-.385-.664-.621-.77-.885a10.673,10.673,0,0,1,1.329-10.088" fill="#fff" fill-rule="evenodd"/>
    </g>
  </g>
</svg>
