<svg xmlns="http://www.w3.org/2000/svg" xmlns:xlink="http://www.w3.org/1999/xlink" width="496" height="469" viewBox="0 0 496 469">
  <defs>
    <clipPath id="clip-path">
      <rect id="Rectangle_194" data-name="Rectangle 194" width="496" height="469" fill="#fff" stroke="#252525" stroke-width="1"/>
    </clipPath>
  </defs>
  <g id="Mask_Group_9" data-name="Mask Group 9" opacity="0.5" clip-path="url(#clip-path)">
    <g id="surface1" transform="translate(57.557 0)">
      <path id="Path_2601" data-name="Path 2601" d="M416.057,394.476a48.386,48.386,0,0,0,5.147-9.335c2.868-6.951,5.467-14.01,8.41-20.927,3.682-8.661,5.836-17.757,7.691-26.907,1.655-8.15,2.834-16.4,4.062-24.623,1.016-6.729,1.095-13.534,1.485-20.317a141.145,141.145,0,0,0-5.492-49.819c-4.027-12.871-7.305-25.959-12.533-38.468a140.422,140.422,0,0,0-12.343-23.545c-7.161-10.837-15.617-20.381-26.945-27.047a147.307,147.307,0,0,0-30.5-13.727,167.615,167.615,0,0,0-34.011-6.725,196.1,196.1,0,0,0-27.9-1.283c-9.14.4-18.146,2.084-27.141,3.726a1.009,1.009,0,0,1-1.165-.477,8.7,8.7,0,0,1,.209-1.522,90.6,90.6,0,0,1,7.561-18.614c.155-.271.41-.594.365-.852-.7-4.328,1.689-7.681,4.178-10.487,2.458-2.769,5.856-4.753,8.99-6.86,5.033-3.382,10.255-6.467,13.358-12.031,1.789-3.209,1.195-5.312-2.313-6.505A40.44,40.44,0,0,0,284.147,75.5c-4.029-.012-7.291,2.138-8.1,6.1-.935,4.586-1.854,9-4.832,13.024-3.628,4.9-7.891,7.764-13.962,7.661a19.6,19.6,0,0,0-4.813.335c-1.425-2.694-3.984-2.112-6.152-1.944-2.628.2-4.6-.286-5.777-2.823a8.131,8.131,0,0,0-1.344-2.017c-5.7-6.2-8.121-13.975-10-21.846A64,64,0,0,0,218.352,50.08c-3.778-5.052-8.885-8.716-13.363-13.033a67.332,67.332,0,0,0-26.967-15.468c-12.058-3.79-24.6-2.711-36.921-1.58-11.986,1.1-23.143,5.571-33.6,11.38-9.97,5.537-20.178,10.686-29.507,17.347-4.54,3.238-9.42,5.988-14.087,9.047-2.155,1.412-2.159,2.54-.007,3.715,7.214,3.93,11.679,10.578,16.5,16.8,3.558,4.6,6.246,9.862,10.233,14.164a169.491,169.491,0,0,0,27.247,23.351c10.641,7.47,22.529,10.994,35.581,11.206a97.576,97.576,0,0,0,18.087-1.111c5.587-.95,11.228-1.612,16.715-3.039,8.476-2.2,15.833-6.923,23.6-10.714,8-3.9,16.25-7.294,25.351-5.9,4.892.748,9.759,1.129,14.667,1.457a48.539,48.539,0,0,0,8.84-.268,5.708,5.708,0,0,1-.984,2.962c-3.328,7.018-6.911,13.956-7.141,21.966-.086,2.8-2.079,3.568-4.163,3.854-8.951,1.238-17.95.515-26.922.252-9.375-.277-18.584-2.655-28.08-1.926-9.734.749-19.449,1.809-28.676,4.88A114.011,114.011,0,0,0,133.7,155.69c-10.023,7.3-18.074,16.453-25.069,26.555-4.283,6.189-7.362,13.1-10.715,19.83a255.917,255.917,0,0,0-10.9,24.391c-5.184,13.866-7.315,28.526-10.293,42.946-1.454,7.04-1.852,14.292-2.961,21.413-1.828,11.739-.965,23.417.341,35.118.607,5.4,1.717,10.723,2.344,16.1a74.091,74.091,0,0,0,5.508,21.281c5.018,11.386,9.73,22.924,15.558,33.962A211.8,211.8,0,0,0,111.739,421.2,126.408,126.408,0,0,0,133.56,445.17c12.765,10.711,27.173,18.661,41.839,26.28,3.564,1.852,7.451,2.688,11.164,4.061,7.967,2.941,15.847,6.209,24.219,7.841,5.4,1.052,10.953,1.356,16.32,2.536,8.946,1.959,17.957,1.946,27.015,1.848,4.928-.054,9.855.277,14.783.185a91.444,91.444,0,0,0,14.713-1.187c4.852-.887,9.754-1.349,14.617-2.118,4.548-.715,9.114-1.393,13.587-2.459a108.4,108.4,0,0,0,18.2-6.641C339.308,471.453,349,468.2,357.244,462c2.179-1.639,4.5-3.423,7.047-4.179,5.976-1.771,9.615-6.4,13.817-10.347,5.428-5.1,10.065-10.931,15-16.492,6.228-7.012,10.92-15.028,15.707-22.991a4.1,4.1,0,0,1,2.295-1.905c.755-.283,2.009,0,2.088-1.265.08-1.292-1.354-.874-2.074-1.612A51.855,51.855,0,0,1,416.057,394.476Zm-308.951-183.8-.152-.05c0-.011.061.1.061.1l0-.163ZM213.074,66.723l-.06.084.166-.053-.115.088A1.139,1.139,0,0,1,213.074,66.723Zm-32.243,391.3c-.125.051-.25.1-.374.155.114.04.224.078.335.115.179-.037.365-.074.549-.115-.179.047-.36.088-.539.128C180.812,458.212,180.822,458.118,180.832,458.024ZM333.84,334.238l-.11-.063c-.009-.007-.05.136-.05.136l.08-.165ZM174.69,73.257l-.14.07.095-.093c.354.279.709.568,1.064.859.14-.007.281-.011.421-.017-.175.4-.251.012-.365-.045A.87.87,0,0,1,174.69,73.257ZM322.3,458.442l.03.118c.14-1.565,1.438-1.868,2.573-2.091,2.564-.506,5.192-.708,7.646-1.744.084.26.17.526.249.789q-5.245,1.492-10.488,2.981ZM110.62,205.4l.108.148a2.21,2.21,0,0,1,.621-2.208c2.1-2.534,3.909-5.326,6.553-7.424-2.3,3.27-4.344,6.718-7.187,9.582Zm-6.732,59.972.1.1c-.32,2.029-.651,4.043-.978,6.055a2.715,2.715,0,0,1-2.755-1.283c1.221-1.574,1.605-3.782,3.72-4.72Zm80.3-233.227c3.5,1.228,7.146,2.2,9.55,5.395,3.473,1.279,5.911,3.82,8.164,6.588a34.365,34.365,0,0,1-8.11-6.636C190.036,36.72,187.288,34.11,184.186,32.149Zm61.2,129.288c.959,1.85,1.68,3.84,3.169,5.382a.871.871,0,0,1,.134,1.109c-.314.522-.779.482-1.258.263a6.433,6.433,0,0,1-2.824-1.586c2.788-2.46.215-4.181-.871-6.139-.084-.349-.165-.7-.27-1.125.631.3.281.76.27,1.136C244.668,160.121,245.042,160.773,245.387,161.437ZM113.382,379.957c.03.307.155.857.081.884-1.511.61-2.5-.668-3.649-1.184-.843-.381-.634-1.346.061-2,.894.071.513,1.157,1.228,1.4,1.062-.307.115-1.511.85-1.98a5.253,5.253,0,0,1,3.568.513c-.283,1.191-.182,2.637-2.138,2.4ZM219.806,95.63c-5.158-2.109-10.665-3.284-15.7-5.743a3.529,3.529,0,0,1-2.114-2.183c6.9,2.467,13.518,4.674,19.719,7.965l-.1.107.061-.151A2.115,2.115,0,0,1,219.806,95.63ZM128.768,409.569c-.752-1.44-2.357-2.543-1.693-4.553.31-.927.681-1.464,1.713-1,1.6.715,3.184,1.433,4.934,2.223-1.025,1.848-1.558,3.676-2.435,5.2-1.245,2.175-3.319.823-4.867.054-2.125-1.056-.469-2.388-.142-3.585,1.4-.142,1.147,1.926,2.516,1.6Zm4.7,7.494c1.717-.85,3.083.277,4.533.836a.88.88,0,0,1,.395,1.417c-1.363,1.521-1.649,3.5-2.192,5.332-6.212-1.649-6.951-1.7-4.378-8.33.762-.26,1.13.476,1.7.688Zm14.816,19.21c-4.037-1.086-4.32-1.818-3.524-6.273,6.094-.1,9.214,4.027,12.081,8.513.051.02.1.037.145.057-.03-.034-.064-.067-.1-.1C153.746,438.837,151.139,437.042,148.282,436.273Zm134.425,41.959c2.788-.459,5.534-1.271,8.411-1.029-.084-1.248-.895-1.12-1.859-1.187-2.594-.189-5.177,1.541-7.766.027a1.7,1.7,0,0,1-1.389.83c-4.2.236-8.391.492-12.584.735-.4.02-.909-.172-1.2,0-4.523,2.776-9.275.769-13.813.4a312.686,312.686,0,0,1-41.677-6.361c-4.977-1.089-10.031-1.882-14.867-3.464-4.512-1.474-9.11-2.843-13.258-5.261-.949-.55-2.043-1.029-2.339-2.145,35.921,12.641,72.542,18.937,110.671,11.99-3.258,2-7.066,1.6-10.524,2.523-.005.9.464.857.974.755,7.007-.432,13.583-2.9,20.39-4.27,6.631-1.332,13.329-2.341,20-3.477a1.181,1.181,0,0,1,.925.3,99.706,99.706,0,0,1-32.1,10.273c1.419-1.528,3.583-.55,4.373-2.489-1.514-.189-2.664.722-3.952.816C288.34,477.726,285.661,479.008,282.707,478.232ZM361.93,317.7c.256-1.2,1.165-1.125,1.839-1.369,1.769-2.037,4.118-3.378,6.122-5.127,2.249-1.961,4.637-3.786,6.276-6.359a2.018,2.018,0,0,1,.7-.661c7.316-3.838,14.277-8.262,21.228-12.711.12-.076.311-.039.47-.054,1.3,3.073.63,5.118-2.059,6.765-4.752,2.909-9.4,5.978-14.347,8.579-5.673,2.98-11.21,6.21-16.8,9.338a2.159,2.159,0,0,1-1.643.161C363.386,316.972,363.066,317.68,361.93,317.7ZM188.442,58.59a42.5,42.5,0,0,1,10.11,9.293c6.216,7.893,13.1,15.2,20.064,22.439a2.631,2.631,0,0,1,1.134,2.069c-9.07-4.2-16.776-9.927-24.378-15.811-.2-.27-.4-.543-.6-.814-2.233-.111-3.716-2.05-6.552-2.752,2.864,3.556,6.612,5.026,9.331,8.076-5.383.067-9.09-3.042-13-5.5-5.1-3.208-10.76-5.225-16.122-7.86-.311-.153-.76-.02-1.171-.02-.28,1.864,1.389,2.322,2.55,4.018-2.065-.776-3.528-1.331-5.208-1.966.954-1.791-.01-2.316-1.514-3.008-6.543-3-13.433-5.294-19.43-9.4-2.465-1.689-5.052-3.286-7.356-5.1a67.25,67.25,0,0,1-11.544-12.485c4.253.977,7.147,4.511,11.329,5.515a57.251,57.251,0,0,0-19.059-11.322,167.075,167.075,0,0,1,11,13.034c-6.931-4.316-13.271-9.7-22-10.926,1.234-2.079,2.948-2.416,4.381-3.151,9.572-4.893,19.561-8.654,30.236-10.028a157.752,157.752,0,0,1,18.165-.838,60.511,60.511,0,0,1,25.972,5.062c.83.375,1.939.532,2,1.8-.659,1-1.489.482-2.163.195-5.018-2.136-10.435-2.966-15.533-4.822-1.116-.4-2.239-.559-2.657.717-.5,1.511,1.059,1.225,1.818,1.624,6,3.166,12.419,5.554,18.055,9.412a30.292,30.292,0,0,0,6.552,3.666c2.279.845,3.633,2.919,5.437,4.4,4.888,4,10.06,7.66,14.563,12.119,1.134,1.125,2.4,2.156,2.938,3.794.234.742.885,1.3,1.7.788.74-.458.355-1.15.021-1.714a6.662,6.662,0,0,0-1.095-1.589c-4.367-3.923-7.02-9.259-11.1-13.414a.634.634,0,0,1-.1-.694c9.55,9.591,18.665,19.46,21.689,33.4-3.834-1.736-5.537-5.71-8.845-7.991,1.419-.315,2.229.646,3.2,1.171,1.589.863,2.194.2,2.478-1.454-4.278-1.353-6.541-5.633-10.554-7.232-.839,1.124.319,1.585.184,2.17-3.328,1.259-4.543-1.431-6.272-3.229a31.749,31.749,0,0,0-2.872-2.592c-.75-.617-.945.016-1.086.618q4.723,5.377,9.446,10.758c3.5,4.011,6.981,8.043,10.379,11.961.22,1.142-1.12.61-1.195,1.723l4.678,5.38c-1.174.237-1.775-.427-2.444-.871-2.02-1.34-4.027-2.694-6.047-4.027-.594-.394-1.134-.839-1.993-.486-2.134.881-2.753-.763-2.678-2.178.258-5.081-2.024-9.167-4.444-13.346-1.778-3.071-4.442-5.569-5.671-8.972-.939.19-1.2-.632-1.669-1.143a147.9,147.9,0,0,1-13.588-16.771,1.29,1.29,0,0,0-1.714-.7c.56,2.2,2.2,3.789,3.379,5.517,3.507,5.163,7.815,9.708,11.723,14.562a62.584,62.584,0,0,1,10.434,17.451c.3.8.785,1.619.247,2.606-1.795-1.726-3.7-3.3-5.294-5.143-2.617-3.028-5.616-5.707-7.41-9.491-.95-2-3.149-3.417-4.813-5.071-4.133-4.1-7.017-9.317-11.534-13.061A97.178,97.178,0,0,0,162.46,33.588c-6.4-3.029-13.494-4-19.743-7.3A21.955,21.955,0,0,0,137.5,24.4a1.176,1.176,0,0,0-1.572,1.072.917.917,0,0,0,.877,1.194c5.744.619,10.469,4.154,15.956,5.542,11.16,2.822,20.414,9.115,29.121,16.345a19.666,19.666,0,0,1,5.976,7.389c-2.149-1.261-4.886-2.066-6.3-3.9a31.941,31.941,0,0,0-6.2-5.7c-3.373-2.585-6.616-5.434-10.424-7.424-.739-.383-1.43-1.138-3-.5,4.368,4.208,9.414,7.1,13.877,10.707C164.11,46,155.685,37.145,145.044,31.215a3.8,3.8,0,0,0,2.037,3.2c5.285,3.881,10.566,7.768,16.121,11.276.337.215.843.288,1.052.582,3.683,5.234,10.009,6.951,14.584,11.044,6.865,6.139,14.536,11.335,21.192,17.742.451.436,1.08.757,1.2,1.706-3.573-.788-6.087-3.638-9.736-5.014.411,2.435,2.379,2.764,3.229,4.059.2.277.4.55.6.825,2.719.39,4.539,2.537,6.936,3.543,1.329.554,2.825,2.412,3.979.84,1.124-1.532-.719-2.935-1.85-4.012-9.109-8.72-18.99-16.548-28.649-24.638-.631-.532-1.71-.764-1.535-1.95l-.15.073.106-.095A130.636,130.636,0,0,1,188.442,58.59ZM125.362,402.77c.034.2.148.435.088.61-.7,2.111-.5,5.177-2.347,6.074-1.784.863-3.862-1.42-5.821-2.293a48.116,48.116,0,0,1-14.374-9.548c-.209.567-.388,1.046-.806,2.145-7.184-13.99-12.974-28-19.062-41.858,1.076-.621,1.4-.04,1.764.341a36.944,36.944,0,0,0,4.674,4.243c.9.664,2.027,1.325.472,2.583-.519.422-.165,1.285.1,1.841.725,1.518,1.454,2.914,1.238,4.776-.155,1.3.981,1.615,2.256,1.2,2.152-.7,2.553-.347,2.172,1.909-.327,1.956-.56,3.855.745,5.592a1.032,1.032,0,0,1,.138.89c-1.508,2.759.361,4.32,2.165,5.7a83.416,83.416,0,0,0,13.592,8.9c1.187.587,1.9,1.147,1.892,2.685-.02,2.2,1.052,2.654,3,1.457.634-.391,1.133-.938,1.926-.384.776.54.577,1.207.381,1.949a6.078,6.078,0,0,0-.223,1.922c.078,1.373.1,3.17,1.943,3.049,1.538-.1,3.17-.911,2.958-3.076-.9.472-1.8.948-2.863,1.5a5.061,5.061,0,0,1,.3-4.01c1.481.381,2.361,1.116,2.492,2.583C124.535,403.3,124.66,402.685,125.362,402.77ZM263.932,102.645c-.3,1.532-1.419,1.892-2.784,2.185-4.378.943-8.725-.076-13.083.007a49.766,49.766,0,0,1-10.783-1.43c-7.427-1.486-14.218,1.083-20.995,3.535-1.134.411-2.213.988-3.523,1.578-.3-1.939-1.435-1.323-2.669-1.084a23.143,23.143,0,0,0-11.124,5.512c-3.367,2.929-7.9,3.037-12.177,3.42a26.5,26.5,0,0,0-7.516,1.353c3.432,1.179,6.926.781,10.329.238a22.442,22.442,0,0,0,12.349-5.758c2.319-2.2,5.562-2.681,8.686-3.022-16.7,11.235-35.017,15.692-55.091,12.742,1.13,1.221,1.605,1.389,4.5,2.046-7.737-.27-15.558.191-23.484-2.724,3.622-.594,6.816-.045,9.99-.117,13.423-.318,26.091-3.688,38.264-9.126,9.291-4.15,18.345-8.82,27.82-12.562,3.353-1.323,6.707-1.037,10.114-.851.4.023.93.213,1.159.029,2.855-2.254,5.033-.145,7.257,1.158a6.711,6.711,0,0,0,3.369,1.236,30.4,30.4,0,0,1,8.117,1.412c6.86,1.819,13.731,1.525,20.618.2a2.8,2.8,0,0,1,.719.051ZM102.141,220.275c.887-1.525.779-3.553,2.378-5.069.594,1.487-.968,2.035-.678,3.932,5.221-10.18,12.4-18.065,19.126-26.329a16.1,16.1,0,0,1-3.9,8.37c-6.85,7.116-11.919,15.5-17,23.868a2.389,2.389,0,0,0-.415,2.748c6.01-9.736,11.99-19.108,20.108-26.913-1.035,2.719-1.514,5.72-3.369,7.989-6.546,8.022-12.489,16.473-18.239,25.072-1.494,2.236-1.889,3.332-1.75,5.552a166.442,166.442,0,0,1,18.462-26.122c-.668,2.236-1.258,4.474-2.759,6.333A226.827,226.827,0,0,0,94.728,248.5c-1.133,1.959-2.071,4.038-3.042,6.084-.4.833-.927,1.728.091,2.855,5.528-12.255,13.086-22.992,21.251-33.389-.941,3.045-.985,6.278-2.914,9.026a248.086,248.086,0,0,0-19.807,33.348c-.533,1.074-1.379,2.2-.411,4,5.133-11.593,11.659-21.933,18.755-31.957A8.124,8.124,0,0,1,107,244.96a216.83,216.83,0,0,0-21.544,36.574c-.165.357-.327.759-1.039.689-.219-2.818.759-5.478,1.194-8.2a202.21,202.21,0,0,1,6.088-25.7,191.066,191.066,0,0,1,9.575-26.652,13.776,13.776,0,0,1,.9-1.437ZM184.73,468.1c3.8,2.992,8.26,4.59,12.749,6.152,9.939,3.46,20.263,5.427,30.574,7.184,10.7,1.825,21.587,1.922,32.447,1.68,12.243-.27,24.428-1.167,36.381-3.919a93.879,93.879,0,0,0,13.4-3.983c3.716-1.46,7.844-2.239,11.164-4.469,7.335-4.938,16.055-5.508,24.051-8.3.435-.152,1.016-.054,1.19-.847-1.719-.314-3.174,1.255-4.863.691-.075.111-.155.226-.229.337.095-.091.195-.179.294-.27,7.237-4.708,13.753-10.61,22.354-13.079-2.054-.843-3.288,1.126-5.3.887a8.893,8.893,0,0,1,5.033-2.678,44.832,44.832,0,0,0,12.774-5.116c.784-.482.795-.459,1.609-2.047-4.583,2.469-8.956,4.492-13.918,5.2,2.583-2.132,5.192-4.239,7.745-6.411a21.461,21.461,0,0,1,6.387-4.3c1.309-.479,3.033-1.218,1.968-3.359-.079-.169.21-.58.41-.813,2.3-2.718,4.288-5.848,7.038-8,2.513-1.97,6.021-2.368,9.629-3.558-1.234,3.17-3.113,5.147-4.868,7.187-6.546,7.605-12.678,15.646-20.464,22.04-3.5,2.877-7.6,5.113-11.454,7.551-5.8,3.659-11.409,7.777-17.791,10.374-11.374,4.631-22.274,10.637-34.4,13.19-7.577,1.6-15.352,2.233-23,3.531-13.123,2.229-26.337,1.5-39.519,1.251a94.077,94.077,0,0,1-19.454-2.057c-5.258-1.207-10.735-1.349-16.027-2.556-7.591-1.734-14.857-4.482-22.179-7.049-4.952-1.734-9.985-3.3-14.617-5.808-4.812-2.61-9.558-5.329-14.212-8.435,36.091,13.173,73.161,21.278,112.075,22.158-3.328,2.084-29.214,1.315-44.305-.806a171.052,171.052,0,0,1-42.723-11.5Zm7.7-17.43c.78-2.131-1.339-2.094-1.3-3.265.27-.546.814-.374,1.315-.509-1.315-.651-3.149-.266-3.788-2.037,2.408-1.43,8.271-.654,9.624,1.565a19.45,19.45,0,0,0,5.562,5.632c.22.155.3.5.685,1.18-2.979-.216-5.6-.3-8.19-.617-5.7-.7-11.45-1.234-17.066-2.388-5.222-1.076-10.715.256-15.856-2.4-.152-2.752-3.1-2.54-4.823-2.857-6.158-1.137-11.969-3.3-17.892-5.14a30.136,30.136,0,0,1-4.536-2.206c-.216-.108-.577.071-1.079.155a6.292,6.292,0,0,0,2.6,2.661,67.723,67.723,0,0,0,21.4,8.091c3.073.583,5.956,2.246,8.87,3.551a1.676,1.676,0,0,1,1.128,2.3c-.424,1.261.805,1.8,1.784,2.2a49.6,49.6,0,0,0,6.347,2.422c2.1.543,2.843,1.841,3.147,4.185a152.328,152.328,0,0,1-19.273-7.177q3.223-.764,6.455-1.531c-2.3-.914-4.671-1.329-7.11-2.873.53,1.558,1.791,1.366,2.357,2.62-2.759.287-5.383,1.16-7.97-.108-2.3-1.133-4.583-3.2-6.735-3.612-5.17-.985-7.865-4.995-11.636-7.653-3.912-2.755-7.1-6.357-10.836-9.325a3.49,3.49,0,0,1-1.754-3.072c13.8,4.7,27.4,9.565,41.264,13.733-.04-1.363,1.1-.941,2.344-.762,5.671.826,11.253,2.351,17.036,2.418-2.569-1.852-5.732-1.494-8.591-2.273-4.832-1.312-9.733-2.368-14.627-3.467a4.633,4.633,0,0,1-2.428-1.5c-1.683-1.828-3.315-3.713-5.2-5.838,2.148-.331,3.858.486,5.575.776,3.636.614,7.224,1.551,10.823,2.418,1.848.449,2.894,1.99,4.033,3.325a11.238,11.238,0,0,0,3.523,3.062c-.964-1.9-3.018-2.958-3.816-4.981.918-.975,1.823.482,3.093-.29-6.168-.509-7.877-5.565-10.991-9.362,1.521-.732,2.53.644,3.838.068a12.339,12.339,0,0,1-7.97-5.275c-3.194-4.526-4.229-6.9-2.87-8.175-3.363-.55-4.526-2.759-4.654-5.73,1-.975,1.909.327,2.786-.057a.391.391,0,0,0-.159-.59c-.914-.6-2.658.014-2.873-1.366a47.672,47.672,0,0,1-.3-6.7c0-.226.536-.256.847-.057l-.017-.01c-.553-1.019-1.255-1.734-2.543-1.258v7.062c-.287.054-.57.108-.853.159-1.44-2.729-2.877-5.457-4.384-8.3,1.285-.651,2.3.1,3.336.206-4.654-1.194-6.5-4.772-7.963-9.565,6.853,1.885,13.281,3.572,19.969,4.762-.179-1.659-1.272-1.454-2.037-1.757-2.111-.833-4.229-1.629-6.293-2.567-1.379-.621-2.314-.57-2.573,1.16-3.12-.489-5.882-1.673-8.738-2.509a1.608,1.608,0,0,1-1.3-2.172c.384-1.818.715-3.653,1.008-5.491.135-.833.442-1.73-.388-2.658-1.5,1.653-1.582,3.8-2.31,5.973-1.68-1.848-2.155-4.013-3.113-5.889a63.739,63.739,0,0,1-2.87-6.695c-1.126-3,.637-5.663,1.2-8.459.553-2.735,2.256-5.137,2.58-8.563-2.981,3.568-3.814,7.5-5.143,11.8-1.535-2.782-1.707-5.373-2.627-7.737a11.927,11.927,0,0,0,.526,5.474c.351,1.322.408,2.266-.965,3.072a5.041,5.041,0,0,0-1.9,2.142c-.84,1.845-1.97,1.653-3.514,1.005-1.8-.752-.934-2-.722-3.069a28.27,28.27,0,0,1,.985-2.735c.813-2.543,2.836-4.5,1.848-7.878-.641-2.189.981-5.133,1.848-7.649,1.073-3.14,2.408-6.182,3.632-9.268l.051.04c-4.155,3.69-4.809,9.015-6.388,13.878-1.342,4.158-2.391,8.411-3.588,12.62a3.22,3.22,0,0,1-1.329,2.31c-3.723-3.467-1.406-6.789.789-10.276-2.273.1-2.324,2.172-3.889,2.432-2.094-3.656-.678-7.143.6-10.593a20.241,20.241,0,0,0,1.005-2.182,152.3,152.3,0,0,1,10.995-29.608c1.083-2.207,2.587-.217,3.922-1.088-.287-1.914-1.774-2.7-3.231-3.59a102.149,102.149,0,0,0-8.769,19.913,4.94,4.94,0,0,1-2.573,3.243,12.506,12.506,0,0,0-4.209,4.3,8.657,8.657,0,0,1-2.293,2.614c-1.3-1.322-.948-2.786-.614-4.283,1.632-7.292,4.573-14.137,7.315-21.036a98.03,98.03,0,0,1,7.319-15.021,8.26,8.26,0,0,0,.523-1.617c-2.094.337-2.782,1.82-3.5,3.165a139.815,139.815,0,0,0-8.877,20.72c-.9,2.612-3.484,3.638-4.853,6.141-1.737-2.681-.654-5.1-.435-7.48-.273.373-.553.746-.965,1.291-.83-1.244-.479-1.966.489-2.6.58.426.422.927.432,1.389,1.973-3.918,2.968-8.19,4.469-12.28a232.75,232.75,0,0,1,10.523-25.01c.253-.5.6-.978.4-1.593l.061.042c-3.5,3.283-4.995,7.689-6.725,11.965-2.55,6.3-4.685,12.75-6.813,19.2a11.09,11.09,0,0,1-3.221,4.709c-1.744-2.858-1.551-5.322.432-7.821,1.282-1.618,3.116-2.815,4.013-5.189-2.836.728-3.932,3.205-6,4.755a8.471,8.471,0,0,1-.621-6.363,1.568,1.568,0,0,1,2.266-1.1c5.042-16.133,10.3-32.024,19.47-46.355a16.323,16.323,0,0,0-3.956,4.569,128,128,0,0,0-11.578,25.582c-.263.81-.469,1.912-1.642,1.793a3.379,3.379,0,0,1-2.715-1.408c-.509-.856.26-1.516.715-2.15,1.791-2.5,3.639-4.965,5.4-7.49.469-.669,1.366-1.195,1.089-2.375-1.164-.02-1.676.882-2.27,1.551a43.892,43.892,0,0,0-5.545,7.956c-.833,1.479-1.75,1.685-3.137.789-1.467-.947-.769-1.743-.057-2.762,4.911-7.038,9.905-14,16.047-20.055a3.467,3.467,0,0,0,1.538-2.528c-3.18,1.214-4.884,3.8-6.86,5.947-2.02,2.19-3.73,4.662-5.659,7.122-1.494-.609-2.948-1.2-4.658-1.9,4.219-6.336,8.752-12.093,13.349-17.82-5.514,3.456-8.695,8.982-12.8,13.808.277-2.336.121-4.6,1.673-6.687a117.207,117.207,0,0,1,11.275-13.6c1.3-1.286,2.931-2.223,3.953-3.8.432-.648,1.234-1.111.961-2.187-1.349-.717-2.084.451-2.8,1.135a83.853,83.853,0,0,0-12.1,13.894,3.979,3.979,0,0,1-.648.614c-.877-.259-.793-.912-.637-1.415,1.046-3.333,1.221-6.844,2.094-10.2.756-2.917,3.019-4.921,5.042-6.959,3.089-3.112,5.332-6.914,8.435-9.994a.986.986,0,0,0,.28-1.232c-1.218-.715-1.973.3-2.769,1a62.142,62.142,0,0,0-6.789,7.923c-.486.606-.752,1.45-1.835,1.753a11.877,11.877,0,0,1,2.607-7.165c4.2-4.811,7.757-10.172,12.5-14.518a5.557,5.557,0,0,0,.614-.885c-1.228-1-2.013-.038-2.755.529-2.533,1.948-4.25,4.651-6.327,7.027A26.226,26.226,0,0,1,114.471,227a19.219,19.219,0,0,1,6.573-13.213c2.118-1.9,4.277-3.793,5.656-6.461-2.371.371-3.922,1.962-5.481,3.544-.769.785-1.089,2.042-2.381,2.292l.071.05a13.38,13.38,0,0,1,3.224-7.049c.546-.681,1.035-1.4,1.545-2.107l.047.053c-.384.275-.762.549-1.147.822l-.641-.323c1.221-2.622,2.27-5.337,3.7-7.839,1.477-2.585,4.395-4.008,5.878-6.453-.169-1.209-1.288-.225-1.588-1.064.914-1.506,1.865-3.066,2.978-4.893-2.219.852-2.135.91-5.083,5.184-1.3,1.878-1.575,4.454-4.088,5.988.3-2.413,1.346-4.174,2.061-6.06,2.583-6.815,7.639-11.38,13.561-15.179.82-.526,1.676-1.709,2.833-.344.111.125.954-.178,1.285-.474,3.879-3.494,8.486-5.925,12.765-8.835.54-.37,1.312-.7,1.332-1.768-1.74-.7-3.319.045-4.712.847q-4.943,2.848-9.673,6.047c-1.3.885-2.449,1.432-4.02.931a4.387,4.387,0,0,0-4.634,1.41,8.766,8.766,0,0,0-1.885,2.212c-2.529,5.51-7.352,8.878-11.673,12.739-.745.668-1.814,1.138-1.97,2.863,2.6-1.265,4.209-3.588,6.823-4.623-.465,2.981-2.449,4.706-4.118,6.62a.9.9,0,0,1-.631.312c-4.965-.721-6.776,3.307-8.819,6.342a120.344,120.344,0,0,0-12.013,21.608,219.333,219.333,0,0,0-8.435,23.759C89.49,252.178,87.1,260.4,85.487,268.8c-.988,5.15-1.518,10.385-2.243,15.584a3.422,3.422,0,0,1-.58,2.033c-1.464.19-1.153-1.647-2.415-1.966a2.433,2.433,0,0,0,.668,2.973c1.6,1.518,1.683,3.432,1.508,5.381-.226,2.5-.614,4.984-.894,7.477-.111.99-.54,2.092.59,2.825,1.029-.191.725-.96.735-1.547.044-2.955,1.514-5.395,2.823-7.891a1.223,1.223,0,0,1,1.983-.569c.833.536,1.285,1.08.718,2.181a75.553,75.553,0,0,0-4.462,9.707c-.509,1.477-1.123,3,.476,4.9.32-5.814,3.464-10.054,5.551-14.705,3.005.59,3.5,2.013,1.926,4.64-3.653,6.105-7.683,12.023-9.946,18.857-.573,1.731-1.649,3.751,1.339,4.243.28,1.508-.533,2.519-.931,3.645-.637,1.829-1.514,3.661-.179,5.545.479.676-.04,1.224-.142,1.835-.239,1.522-1.157,3.067.7,4.4.793.567-.1,1.656-.165,2.513-.091,1.015-.132,2.027.914,2.55.975.492,1.885.29,2.685-.887-2.685-.432-1.963-2.115-1.315-3.639,1.133-2.684,2.395-5.316,3.578-7.979.58-1.3,1.416-1.412,2.5-.622.954.7,2.725.956,1.592,2.814-1.582,2.6-2.715,5.426-4.523,7.948-.823,1.15-.82,3.285-1.632,4.84-.223.422-.432.847-.594,1.177-1.015.307-.921-.944-1.7-.917-.118.169-.374.364-.371.553a5.668,5.668,0,0,0,2.954,4.948c1.683.89,1.939,1.686,1.153,3.174-.479.911-.219,2.115-1.2,2.948-3.2-2.432-6.024-5.275-5.777-9.518.462-7.835-2.422-15.136-3.1-22.8-1.069-12.124-1.97-24.12-.121-36.31,1.6-10.564,2.873-21.174,5.14-31.624,2.755-12.725,5.251-25.516,10.745-37.481,5.025-10.949,9.872-21.989,15.851-32.464a98.737,98.737,0,0,1,19.136-23.419A92.5,92.5,0,0,1,148.3,150.3c6.384-3.351,12.786-6.574,19.683-8.711,2.427-.753,4.87-1.623,7.569-1.287-5,3.934-11.41,4.877-16.756,8.084s-10.759,6.238-15.737,9.818c-1.025-.464.111-1.337-.685-1.792a54.518,54.518,0,0,0-11.966,9.288c-8.7,8.505-15.484,18.464-21.656,28.855-1.794,3.017-3.187,6.272-4.766,9.42h-.007a1.625,1.625,0,0,0,1.858-1.144c3.322-7.6,8.27-14.18,13-20.917a79.932,79.932,0,0,1,13.015-14.568c2.739-2.365,6.219-4.282,9.437-6.276,4.462-2.76,8.819-5.689,13.217-8.544.61-.25,1.214-.5,2.1-.865-.55,1.315-1.305,1.142-2.1.856.216,1.711-1.43,1.956-2.273,2.826-.681.7-1.5,1.261-2.108,2.009-.911,1.117-.526,1.877.958,2.3,1.3-3.457,4.563-4.7,7.271-6.44,5.916-3.794,12.093-7.155,18.316-10.432,1.315-.693,3.7-.847,2.664-3.525a28.653,28.653,0,0,1,8.457-1.006c-5.667,3.8-12.129,6.3-16.977,11.268,1.879,1.934,2.539,1.86,3.582-.122a5.951,5.951,0,0,1,3.029-2.7,73.235,73.235,0,0,0,11.953-6.259c7.137-4.4,14.5-3.3,21.92-2.232,11.364,1.64,22.748,1.462,34.15.985,1.755-.073,3.509-.209,5.727-.342-.809,5.243-1.578,10.218-2.4,15.528-2.408-2.666-.819-6.766-3.843-8.812-.325,4.579,1.234,8.767,2.233,13.133-3.723-3.382-5.5-8.251-9.189-11.932-.75,1.894.984,2.732.664,4.346-1.939-1.328-2.918-3.861-5.906-3.684,3.967,3.952,6.466,8.773,8.74,13.808-5.466-5.307-10.384-11.259-18.3-13a2.068,2.068,0,0,0-1.759.151c2.09,2.5,5.387,2.412,7.7,4.109a34.961,34.961,0,0,1,6.222,6.267c-6.387-1.713-12.638-3.561-19.2-4.15,2.938,2.332,6.836,2.188,9.96,4.142a157.568,157.568,0,0,0-27.04-2.1c.249,1.342,1.014,1.041,1.6,1.069,2.587.129,5.2.09,7.761.411,1.7.216,3.8-.186,4.747,2.1.266.651,1.254.721,1.979.7,4.008-.108,7.831,1.242,11.779,1.5,5.562.364,9.68,3.865,14.266,6.369a40.564,40.564,0,0,0,10.74,4.324,13.217,13.217,0,0,0,6.636-.527c13.979-3.928,27.192-10.33,41.5-13.114,4.738-.921,9.635-1.009,14.461-1.433.885-.079,1.83.14,2.364-1.493-7.745,0-15.252-.079-22.623,2.3-7.291,2.351-14.683,4.413-22.133,6.636.99-1.828,15.082-7.074,20.354-7.9,7.251-1.133,14.407-3.008,22.134-2.325-.706-2.151-2.42-1.609-3.628-1.792a32.079,32.079,0,0,0-4.528-.049c.694-.836,1.734-.53,1.938-1.814-2.229-.357-4.4.721-6.82.61,1.5-1.411,3.718-.532,5.332-2.195-2.269-.867-4.233-.1-6.078.183a47.048,47.048,0,0,0-12.837,4.336,138.212,138.212,0,0,1-15.223,5.691l-.374.141c.07-.354.25-.186.415-.091a1.247,1.247,0,0,1,.719-1.167c5.7-3.65,10.765-8.353,17.456-10.351a16.376,16.376,0,0,0,4.407-2.315c-3.274-.331-6.1,1.25-9.035,2.223a39.723,39.723,0,0,0-8.86,3.956c-2.694,1.7-5.328,3.5-8.441,5.554,1.873-3.485,4.917-5.373,6.326-8.542-3.353,1.009-5.272,3.845-7.926,6.13-.476-2.195.88-3.44,1.789-4.69,1.2-1.65,1.059-2.88-.58-4.329-3.158,3.163-3.659,7.682-6.267,11.7a14.94,14.94,0,0,1-.614-6.707c.369-3.525,1.14-7.009,1.634-10.524a2.58,2.58,0,0,1,1.879-2.411,21.737,21.737,0,0,1,4.469-1.1c14.171-2.118,28.349-3.821,42.731-2.2,8.362.942,16.762,1.523,25.038,3.108a5.536,5.536,0,0,1,3.122,1.261c-2.083,1.315-4.087,2.561-6.067,3.845a20.64,20.64,0,0,0-2.129,1.6c-.614.52-1.308,1.071-1.113,2.017.234,1.136,1.219,1.107,2.278,1.294.15-2.033,1.635-3.013,3.224-3.731a47.84,47.84,0,0,0,7.011-3.851c1.494-1,2.659-.49,4.117.445-2.489,1.68-4.757,3.182-6.985,4.734-.855.591-2.02,1.319-1.075,2.5.934,1.163,1.664-.078,2.4-.594,1.379-.961,2.778-1.892,4.149-2.871,1.188-.856,2.773-1.467,2.168-3.765,5.228,1.457,10.316,2.44,14.848,5.012,1.1.63,1.224,2.192,1.224,3.5-.005.779-.374,1.614.585,2.275,2.079-.909.919-2.7.975-4.261,2.233-.053,3.923,1.2,5.677,2.006a79.244,79.244,0,0,1,15.2,8.522,100.1,100.1,0,0,1,25.577,28.821c7.015,11.8,11.534,24.543,15.746,37.5,2.948,9.082,5.137,18.368,7.951,27.479,1.145,3.709,1.265,7.595,1.63,11.415.46,4.792,1.838,9.442,1.7,14.335-.43,14.969-.365,29.952-3.623,44.71-.973,4.4-1.093,8.989-2.043,13.426a3.854,3.854,0,0,1-1.109,2.593c-.041-2.538.794-4.888.064-7.67a37.8,37.8,0,0,0-2.138,7.181c-3.243,12.314-6.918,24.479-12.18,36.111-1.278,2.826-3.852,4.26-6.076,6.064a17.412,17.412,0,0,1-4.882,3.062,8.33,8.33,0,0,1,1.478-3.9c4.254-6.556,7.282-13.716,10.146-20.944,4.247-10.711,6.986-21.887,9.72-33.036,2.7-11.016,4.747-22.245,4.068-33.641-.431-7.212.074-14.509-1.51-21.643-.136-.623-.34-1.234-.545-1.975-.285.206-.6.324-.6.447-.075,5.889-5.407,7.983-7.94,11.876-1.344-.357-1.17-1.406-2.279-1.989.145,2.141.744,4.6-2.573,4.9-.291-2.917-1.086-5.68,1.884-7.893a29.922,29.922,0,0,0,4.113-4.451,1.985,1.985,0,0,0,.27-2.924c-2.115,2.341-4.159,4.61-6.632,7.352-.195-2.723-.65-4.814-.4-6.82.22-1.782,2.095-2.767,3.238-4.092,1.964-2.266,4.063-4.407,6.106-6.6.345-.376.59-.773.02-1.883-3.713,2.251-5.751,6.289-9.194,8.713-1.7-4.007-1.329-5.587,1.444-8.613a27.257,27.257,0,0,0,4.224-5.309c.564-1.055.739-1.97-.66-2.772a29.773,29.773,0,0,1-5.713,7.823c-1.744-2.714-1.579-5.8.451-7.743a25.338,25.338,0,0,0,4.8-6.662c.664-1.263.825-2.437-1.115-3.172-.909,4.724-4.3,7.54-7.491,10.468-3.262,2.992-6.625,5.872-9.774,8.65-1.565-.427-.825-2.214-2.145-2.436-.129.091-.354.2-.344.257.669,2.873-.78,4.444-3.034,6.048-7.051,5.011-13.788,10.464-21.324,14.773-.384.222-.664.453-.429,1.35,8.94-4.289,16.166-11.078,24.512-16.145,1.8,3.976,1.455,6.108-1.8,8.33-8.07,5.506-15.8,11.52-24.327,16.34-.306.172-.49.4-.376,1.064,9.711-4.915,18.206-11.607,27.626-17.53a29.247,29.247,0,0,1,1,7.878c0,1.037-1.07,1.341-1.78,1.838-7.821,5.483-15.506,11.172-23.822,15.914a3.222,3.222,0,0,0-1.365,1.365c9.47-4.677,18.041-10.86,26.94-16.54,1.939,4.822,1.524,6-2.684,7.917-1.013-.688-.868-1.786-1.054-2.859.374,2.644-.545,4.269-2.893,5.8-6.857,4.456-13.6,9.089-20.839,12.916-1.889,1-2.934,2.707-4.437,4.006a152.39,152.39,0,0,1-20.775,14.768c-8.14,4.932-16.456,9.573-24.827,14.1a17.818,17.818,0,0,0-5.612,4.013c4.113-1,7.516-3.565,11.629-4.721L320,343.54c2.083.135,3.4-1.255,4.906-2.148,6.482-3.835,12.379-8.527,18.586-12.766,6.851-4.678,14.617-7.636,21.913-11.483,10.024-5.283,20.084-10.513,29.665-16.594,1.079-.685,2.274-1.186,3.417-1.775,1.614,3.362.8,6.131-2.159,8.047-7.545,4.889-14.971,9.977-22.652,14.643-4.188,2.544-8.206,5.477-12.889,7.162v-.1l.005.137c.165-1.617,2.159-2.046,2.578-3.734-5.521,2-9.62,6.034-14.667,8.486-4.982,2.42-9.759,5.268-14.608,7.959-.58.32-1.534.492-1.274,1.491a.759.759,0,0,0,1.294.482c.106.03.205.064.311.1-.045-.044-.09-.111-.14-.115s-.12.047-.18.074c.279,1.123-.659,1.3-1.319,1.717a180.437,180.437,0,0,1-30.919,15.157c-2.659,1.042-5.317,2.067-8.575,3.329,2.593.887,4.118-.371,5.622-.944,11.794-4.513,23.523-9.174,34.341-15.818a40.125,40.125,0,0,0,6.113-4.745c4.952-4.57,10.944-7.071,16.905-9.816a187.688,187.688,0,0,0,28.375-16.3,8.853,8.853,0,0,1,4.163-1.948c-1.795,4.42-.7,9.425-5.917,12.343-6.843,3.826-13.479,8.044-20.066,12.334-2.743,1.784-5.961,2.843-8.769,4.631a2.506,2.506,0,0,1-2.709.189c.929-1.11,2.8-1.288,2.9-3.066a3.538,3.538,0,0,0-3.208.752c-5.038,3.73-11.1,5.622-16.243,9.2-1.589,1.106-2.324,1.939-.894,3.632-12.978,6.05-25.976,11.656-39.664,15.575.1.283.2.57.3.853,2.36-.7,4.732-1.373,7.081-2.115a233.292,233.292,0,0,0,36.4-14.786,43.05,43.05,0,0,0,6.068-4.03,5.608,5.608,0,0,0,2.018-2.567,3.241,3.241,0,0,1,3.558-1.862,5.419,5.419,0,0,0,3.7-.5c4.4-1.676,8.361-4.229,12.549-6.3,1.409,1.8,1.315,3.943-.5,4.961-2.213,1.245-4.237,3.025-6.956,3.15-1.149.051-.95,1.487-1.864,1.686-5.216,1.147-8.371,5.568-12.753,8.061a148.33,148.33,0,0,1-16.032,7.5c-9.03,3.788-18.15,7.346-27.26,10.914-3.312,1.3-6.722,2.354-10.08,3.518-.5.172-1.179.061-1.36,1.093,2.109.209,3.9-.833,5.678-1.457,6.8-2.395,13.627-4.759,20.234-7.632,2.918-1.271,5.931-.934,8.84-1.845,10.194-3.2,19.165-8.513,27.54-15,1.7-1.315,2.474-3.986,5.518-3.713-.186,3.126-.22,6.4-1.539,9.184-1.175,2.459-4.078,3.561-6.421,4.937-7.022,4.121-14.878,6.324-22.4,9.271-8.885,3.484-17.695,7.187-26.791,10.138a16.553,16.553,0,0,1-3.242.978c-3.564.371-5.888,3.464-9.441,4-4.792.718-9.509,1.932-14.272,2.85a48.709,48.709,0,0,0-7.187,2.364c2.049,1.616,3.863.658,5.433.31,6.865-1.528,13.8-2.809,20.553-4.83,1.034-.307,2.049-.516,2.024-1.963-.02-1.089.985-1.157,1.719-1.389,16.747-5.332,33.1-11.75,49.513-17.976a38.776,38.776,0,0,0,8.2-4.2c.456-.314.866-.779,1.7-.476-.569,4-1.254,7.7-5.717,9.656-7.347,3.221-14.878,5.956-22.34,8.877-12.6,4.934-25.456,9.049-38.473,12.7a83.029,83.029,0,0,0-9.426,2.988c-2.612,1.086-5.051,2.917-7.781,4.013a284.169,284.169,0,0,1-42.612,13.271c-3.693.846-7.49,1.244-11.243,1.838-.535.084-1.131,0-1.6.887a31.523,31.523,0,0,0,7.07-.715,213.42,213.42,0,0,0,34.6-8.631c7.216-2.344,14.578-4.283,21.483-7.518.5-.243,1.415-.415,1.469-.728.5-3.035,3.193-2.536,5.067-3.1,16.3-4.86,32.508-9.97,48.375-16.128,6.181-2.4,12.574-4.28,18.454-7.383a36.453,36.453,0,0,0,5.773-4.256c.674-.553.71-1.427-.191-2.115-1.179.293-1.7,1.71-3.418,1.983.83-3.13.47-6.368,3.453-8.418a2.214,2.214,0,0,0,1.259-2.179c-.155-1.093-1.1-.634-1.918-.884q.509-3.708,1.024-7.4a2.151,2.151,0,0,1,1.234-1.7c2-1.005,4.024-1.966,6.482-3.164a92.639,92.639,0,0,1-2.494,11.679c-1.174,4.432-2.319,8.877-3.639,13.268a44.1,44.1,0,0,1-2.734,6.971c-.795,1.592-2.548,2.04-4.5,2.469.489-1.356,1.839-2.664-.19-3.605-3.485,3.848-8.036,5.838-12.679,7.791-7.611,3.2-15.367,6.047-23.162,8.725-14.774,5.072-29.4,10.624-44.6,14.381-.314.078-.629.159-.773,1.083,6.035-.708,11.477-3.059,17.086-4.664,5.757-1.646,11.414-3.659,17.086-5.582s11.359-3.841,16.981-5.919,11.289-3.966,16.941-5.889c5.532-1.885,10.34-5.808,16.576-5.811.276.836-.29,1.629-.61,2.388-2.028,4.823-4.142,9.605-6.226,14.408a3.37,3.37,0,0,1-3.832,2.4c1.809,1.528,1.655,2.553.879,3.885-1.868,3.207-3.5,6.553-5.216,9.852a6.076,6.076,0,0,1-4.344,3.174,16.611,16.611,0,0,0-4.632,1.96c2.233.5,4.108-1.137,6.446-1.16a7.094,7.094,0,0,1-2.893,4.621c-1.514,1.133-3.714.206-5.4.992-2.093.971-2.709-1.686-4.813-1.5,1.714-2.506,3.408-4.725,4.823-7.109,1.543-2.594,5.282-1.589,6.765-4.273-1.027-.978-2.047.523-3.206-.266,1.848-3.626,5.106-6.455,6.48-10.829-4.117,1.4-7.435,3.6-11.518,4.7.5-2.334,1.068-4,3.353-4.8,4.807-1.69,9.725-3.147,14.212-5.636a39.766,39.766,0,0,0,3.458-2.25c1.215-.85,1.229-1.761-.05-2.826-4.913,5.329-11.9,6.175-17.95,8.91-1.154-1.531.769-2.971-.26-4.293-.225.064-.485.084-.5.148-.82,4.728-4.328,6.152-8.391,7.457-15.032,4.826-29.964,9.953-44.965,14.877a109.721,109.721,0,0,1-12.728,3.862c-.25.051-.436.391-.69.631,1.629.722,20.249-4.907,31.593-9.025,10.329-3.747,20.809-7.1,31.4-10.182.12,3.278-.515,4.364-3.548,5.44-10.53,3.733-21.079,7.406-31.62,11.1q-13.874,4.857-27.74,9.713c-.265.091-.46.364-.689.55.1.246.184.486.28.728q15.141-5.145,30.284-10.293c10.139-3.45,20.275-6.911,31-10.57-1.51,3.943-2.009,7.3-6.591,8.4-8.321,2-16.527,4.56-24.673,7.214-8.92,2.9-17.775,6.017-26.8,8.627-.934.27-2.159-.125-2.928,1.015.839,1.217,1.889.492,2.768.253,8.75-2.384,17.332-5.329,25.981-8.03,8.961-2.8,18-5.335,27.007-7.976a3.482,3.482,0,0,1,.889.054c-.6,2.56-2.22,4.513-3.315,6.7-.394.786-1.319.755-2.168.766-1.959.02-3.913.148-6.527.263,1.65,1.285,3.109.411,4.188,1.137.025.988-.794.887-1.335,1.052-12.779,3.885-25.761,7.076-38.385,11.477-3.653,1.278-7.156.438-11-1.578,2.2,3.457,5.223,3.858,8.82,4.091-2.083,1.454-4.047,1.47-5.847,1.771-6.836,1.153-13.678,2.364-20.564,3.106-4.973.533-9.994-.3-15.012-.354-10.274-.115-20.559-.452-30.813-1.083-3.194-.2-6.387-.074-9.566-.327a3.792,3.792,0,0,1-3.137-1.494,15.042,15.042,0,0,0-3.134-3.238c.81,1.258,1.619,2.516,2.349,3.656-.08,1.052-1.559.435-1.359,1.781.98.961,3.429-.364,4.027,2.013-1.118.7-2.233.239-3.308.2C187.978,445.626,190.346,447.7,192.425,450.668ZM132.41,109.31c.88,3.6,3.693,4.018,5.98,5.728-3.1.017-5.214-2.151-8.057-1.929.59,2.442,2.914,2.27,4.334,3.176,2.064,1.323,4.5,1.987,6.89.59.951-.553,1.659-.146,2.513.09,3.484.96,6.894,2.192,10.492-.052,1.319-.823,3.032.29,4.536,1.131a57.338,57.338,0,0,1-6.975,1.159,96.9,96.9,0,0,1-14.738-.042c-2.631-.275-4.223-2.156-6.209-3.345-6.765-4.05-12.563-9.392-18.452-14.588-1.2-1.056-2.469-2.035-3.659-3.011.226-1.25,1.545-.443,1.963-1.3-.148-.995-1.019-.811-1.669-.838-3.723-.15-7.015-.65-10.27-3.288-1.828-1.486-4.631-2.5-6.944-3.875s-3.5-3.554-4.927-5.581c-2.614-3.7-4.752-7.725-7.777-11.139a6.115,6.115,0,0,1-.492-1.49c4.054,1.836,7.639,3.4,11.174,5.076,11.851,5.616,23.7,11.244,36.7,13.808,2.513.5,5.157.194,7.764,1.209A3.1,3.1,0,0,1,131.78,92a80.624,80.624,0,0,1-39.652-7.255c-.762-.345-1.848-1.593-2.452-.27-.56,1.22.921,1.709,1.814,2.1a87.756,87.756,0,0,0,13.632,5.116A73.587,73.587,0,0,0,131.6,93.774c7.241-.829,14.273-2.825,21.45-4.055,9.325-1.6,18.665-3.058,28.119-3.753a73.377,73.377,0,0,1,11.874-.341,10.805,10.805,0,0,1,6.516,2.908,20.688,20.688,0,0,0,6.3,4.251c-2.743,1.166-5.457-1.986-8.5-.042,1.755,1.767,4.024,1.754,6.367,3.059a39.078,39.078,0,0,1-9.665-.725,15.84,15.84,0,0,0-1.884-.456c-.775-.087-1.514.1-1.664,1.02-.155.9.59,1.058,1.209,1.2a34.238,34.238,0,0,1,5.351,1.481c-4.882,1.986-9.375-1.735-14.171-1.639-.03,1.67.995,1.888,1.748,2.188a38.166,38.166,0,0,0,10.8,2.7c2.818.234,3.473-.487,3.243-3.3,1.358-.374,2.718.073,4.072.019,1.325-.054,2.864.237,3.389-1.6.059-.2.329-.508.474-.494,3.1.327,6.247-1.947,9.91.393-2.968.316-5.087,1.521-7.306,2.458-7.286,3.075-14.4,6.554-21.6,9.8-8.289,3.744-16.7,7.45-26.431,9.127a3.371,3.371,0,0,0,1.7-3.277c1.653.161,3.083.353,4.516.425,1.516.078,2.945-.146,3.664-1.764a1.353,1.353,0,0,1,1.02-.937c5.142-.829,9.59-4.021,14.937-4.288,1.964-.1,3.818-1,3.922-3.394,1.574-.794,3.773.63,4.988-2.009-8.326-.74-16.046-3.485-24.217-4.035,5.093,2.66,9.5,6.753,15.762,6.543-2.564,1.476-5.4,1.188-8,1.951a4.786,4.786,0,0,0-3.049,1.734c-.9,1.3-2.569.636-3.877.774a17.022,17.022,0,0,1-4.113-.274c-.884-.126-1.64-.17-2.041.773-.452,1.084.368,1.433,1.126,1.767.3.135.654.184.759.561-4.162.737-7.788-1.627-12.243-1.413,1.717,2.449,4.017,2.492,5.9,3.585-.924,1.05-1.909.688-2.877.416a75.8,75.8,0,0,1-13.544-5.232c-.742-.373-1.764-1.56-2.462-.232-.54,1.024.553,1.681,1.379,2.234,2.357,1.577,5.187,2.209,7.511,3.98C145.064,115.522,138.98,112.556,132.41,109.31Zm-25.7-35.521c5.531,6.2,12.779,9.931,20.084,13.573-.081.258-.162.516-.239.773-2.83-.822-6.263-.91-8.351-2.63-3.926-3.222-8.418-5.6-12.206-8.968a77.244,77.244,0,0,0-11.808-8.425,1.132,1.132,0,0,0-1.025-.066,227.079,227.079,0,0,0,20.323,15.71c-2.138.141-3.46-.779-4.877-1.35-8.1-3.285-15.831-7.346-23.652-11.215a28.269,28.269,0,0,0-6.772-2.556c-4.175-.84-5.4-4.836-9-7.242,3.747-.37,6.752-.884,9.767-.509a47.184,47.184,0,0,0,6.54.285c13.113-.189,26.236-.634,39.345-.369a49.053,49.053,0,0,1,20.634,4.713c3.818,1.865,8.054,2.357,11.993,3.869,6.867,2.637,13.688,5.4,20.709,7.624,1.045.328,2.369.6,2.893,2.254-6.431-.809-11.8-4.653-18.061-5.091.664,1.707,2.071,2.192,3.349,2.773a109.47,109.47,0,0,0,14.937,5.067c1.479.429,2.669.218,2.528-1.833a11.21,11.21,0,0,1,7.356,3.225c-3.813.3-7.061.657-10.314.784-6.807.267-13.5,1.423-20.234,2.294a28.232,28.232,0,0,1-13.167-1.776,86.964,86.964,0,0,1-15.369-7.055,1.974,1.974,0,0,0-1.919-.386c-.617,1.637.695,2.325,1.71,2.931,2.293,1.365,4.678,2.578,7.045,3.811.857.444,1.926.656,1.406,2.162a6.746,6.746,0,0,1-4.158-.655,106.252,106.252,0,0,1-16.131-9.36c-.6-.408-1.234-1.042-1.875-.194-.583.781-.229,1.456.455,2.107,3.039,2.892,6.846,4.575,10.374,6.691.644.384,1.558.461,1.6,1.716C121.945,83.564,114.549,78.309,106.708,73.789ZM294.1,455.052c-2.089,1.612-4.977,1.113-7.5,1.514-7.106,1.133-14.238,2.212-21.4,2.894-11.273,1.073-22.457,3.214-33.836,3.086-1.415-.013-2.825-.206-4.548-.341.789,1.511,2.033,1.305,3.024,1.4,6.006.594,11.982.024,17.945-.617,10.944-1.17,21.884-2.432,32.817-3.7,2.938-.341,5.877-1.427,9,.53a37.41,37.41,0,0,1-7.251,6.921,3.7,3.7,0,0,1-2.134.253c-3.558-.024-7.121-.027-10.684.061a6.628,6.628,0,0,1-2.428-.475c1.844-.867,3.873-.745,5.527-1.906-4.142,0-8.15-.253-12.114.051-9.114.691-18.2,2.229-27.309,2.327-6.982.078-14.008-1.322-20.89-2.88-2.773-.627-5.711-.688-8.295-2.3,18.14-2.951,36.476-4.017,54.685-6.3-7.117,1.744-14.1,4.034-21.718,4.2.39,1.487,1.2,1.447,2.249,1.352,6.881-.614,13.587-2.2,20.319-3.626,3.569-.755,7.131-1.589,10.8-1.467a14.769,14.769,0,0,0,8.276-2.378c3.274-1.986,7.051-2.226,10.6-3.238,2.483-.708,5.047-1.147,7.582-1.663a2.651,2.651,0,0,1,2.7.519C297.7,451.245,296.151,453.47,294.1,455.052ZM146.144,63.109a24.285,24.285,0,0,0-8.459-2.782c-4.884-.609-9.157-2.927-13.5-5.064-6.668-3.283-13.4-6.451-20.121-9.621a5.737,5.737,0,0,0-4.475-.58c4.664,3.71,9.727,5.444,14.873,8a15.251,15.251,0,0,1-6.057-1.6A100.3,100.3,0,0,0,93.426,45.8c-.8-.209-1.852-.889-2.327.312-.543,1.386.786,1.59,1.629,1.881,8.415,2.9,16.846,5.754,25.278,8.627.617.211,1.319.554,1.868.151,2.192-1.606,3.6.42,5.4.728-.2.8-.614,1.024-1,.933a19.875,19.875,0,0,0-7-.2c-5.6.644-10.071-2.539-15.025-4.03-4.722-1.423-9.416-2.938-14.192-4.18a1.561,1.561,0,0,0-2.128.631c7.066,3.179,14.556,4.654,21.8,7.24-2.641,1.22-4.762.779-7.143-.756-1.164-.753-2.759-.835-4.162-1.221a63,63,0,0,0-16.512-2.242c-1.5-.009-1.5.046-3.123,1.539,7.561,1.006,14.9.991,21.909,3.149-9.686.893-19.349.158-29.5.007a18.417,18.417,0,0,1,5-4.166C83.318,48.653,92.5,43.2,101.659,37.726c1.41-.84,2.8-.149,4.2.182C113.692,39.762,120,44.4,126.528,48.793c7.9,5.308,15.845,10.57,24.762,15.637A9.322,9.322,0,0,1,146.144,63.109Zm115.82,61.315c-.169-1.528,1.52-1.724,2.22-2.76-.336-1.5-1.215-1.344-2.324-.838-.916.413-1.56,1.467-3.129,1.165,1.558-2.422,3.714-4.091,5.378-6.154.31-.375.694-.682,1.039-1.029a.97.97,0,0,0,.2-1.311c-.39-.57-.945-.506-1.524-.3-.723.267-1.029,1.291-2.543,1.057,1.444-1.782,2.659-3.407,4.018-4.9a2.669,2.669,0,0,0,.974-2.507,3.919,3.919,0,0,1,1.959-4.321,26.778,26.778,0,0,0,4.229-3.253c1.224-1.14,3.417-1.818,2.313-4.362-.275-.64.8-1.115,1.408-1.476q4.063-2.407,8.171-4.742c.925-.521,1.694-.941.985-2.225-.7-1.263.569-1.423,1.249-1.851,1.1-.693,2.553-1.061,2.623-3.187-3.417.78-5.867,3.227-9.019,4.194-.165-1.524.739-1.888,1.424-2.41,1.534-1.171,3.294-2.112,4.033-4.088.374-1.014,1.314-.851,2.079-.8a66.683,66.683,0,0,1,9.5,1.893c1.553.34,1.219,1.289.75,2.408-1.864,4.438-5.562,7.088-9.371,9.557-4.087,2.647-8.1,5.366-11.313,9.069-5.743,6.624-8.836,14.651-11.885,22.7-1.143,3.013-1.628,6.243-3.292,9.257C261.539,130.249,262.283,127.331,261.963,124.424Zm-1.308,325.182c8.7-2.806,17.41-5.572,26.1-8.381a15.982,15.982,0,0,1,7.112-.749c-8.03,7.68-16.746,13.042-28.01,13.467,1.14-1.474,3.818-.56,4.333-3.093-5.093-.125-9.8,4.253-14.647.61-.76,1.056.47,1.346.131,2.169-1.755.9-3.829.739-5.8.978-10.593,1.3-21.2,2.479-31.8,3.771-1.988.239-3.314-.887-5.332-1.926,2.319-.975,4.362.071,6.3-.661.54-.529-.669-.577-.36-1.224q19.934-3.106,40.215-6.26C258.335,450.331,259.4,450.01,260.655,449.605ZM115.8,418.274c5.619,3.093,11.794,4.85,17.662,7.359,1.4.6,2.236,1.106,2.192,2.887-.057,2.371,1.636,3.12,3.619,1.821-.044-.742-.631-.563-1.076-.637-.853-.152-1.022-.715-.8-1.44.209-.688.759-.7,1.376-.641,2.708.266,3.784,1.369,3.8,4.081,0,.954.583,1.879.061,3.133a25.47,25.47,0,0,1-6.8-1.916c-4.9-1.865-9.656-4.108-14.482-6.179a7.254,7.254,0,0,1-3.066-2.314c-3.872-5.251-8.283-10.1-11.066-16.128-1.106-2.384-2.88-4.459-3.8-6.934.489-.492.85-.209,1.13.047,4.631,4.226,10.283,6.7,15.915,9.174,1.68.739,2.735,1.393,2.179,3.535a2.783,2.783,0,0,0,1.541,3.275c.863.411,1.572.111,1.973-1.039-1.336-.718-2.472-1.649-1.231-3.356.911-.253,1.588.337,2.344.53,2.155.54,3.14,1.717,2.1,4.027a7.331,7.331,0,0,0-.364,4.067,30.709,30.709,0,0,1-8.631-3.292,18.85,18.85,0,0,1-2.044-1.265c-2.432-1.619-5.457-2.695-5.7-6.422C111.739,414.348,112.8,416.618,115.8,418.274Zm159.811,24.62a16.553,16.553,0,0,0-4.313.6c-12.228,3.241-24.766,4.789-37.206,6.917-7.165,1.228-14.342,2.357-21.548,3.336a7.064,7.064,0,0,1-6.058-1.707c-2.442-2.172-5.071-4.152-7.495-7.4l31.943,1.312c-6.9,1.791-13.957,2.435-21.109,3.032,1.075,1.272,1.114,1.288,3.544,1.11,6.786-.5,13.519-1.474,20.244-2.5,11.189-1.71,22.514-2.519,33.628-4.793,3.163-.648,6.3-1.443,9.45-2.172a8.535,8.535,0,0,1,5.718.172C280.1,441.471,278.115,442.918,275.612,442.894Zm106.7-95.361c-.109.745-.7,1.029-1.269,1.346-4.429,2.472-8.846,4.965-13.278,7.427-.68.378-1.42.654-2.378,1.093.015-3.912,1.684-7.17,2.113-10.647.37-3.012,2.009-4.587,4.657-5.848,4.123-1.963,8.036-4.362,12.543-6.856C384.319,339.057,382.95,343.233,382.315,347.533ZM259.3,157.253c1.039,3.639,1.954,6.683,2.759,9.754.256.962-.41,1.489-1.319,1.677-1.9.4-3.784.885-5.7,1.149-1.229.166-2.883.653-3.558-.7a4.268,4.268,0,0,1,.554-4.1c.4-.594.725-1.086.5-1.734a12.129,12.129,0,0,1,.12-7.181c.81-2.959.13-5.953.481-8.915a9.673,9.673,0,0,1,.734-3.774c.19-.339.455-.909.31-1.108-2.219-3.084.769-4.582,1.98-6.6.544-.906,1.789-1.568.909-2.924-.93-.417-1.31.954-2.46.56.49-3.489,3.34-5.345,5.258-7.866.544,1.928.2,3.715.075,5.511a60.011,60.011,0,0,1-2.879,15.477c-.78,2.269-.31,4.392-.385,6.592-.14,4.2-1.32,8.333-.9,12.572.109,1.112-.2,2.462,1.479,3.3C258.22,165.214,257.4,161.311,259.3,157.253Zm.415,309.327a3.48,3.48,0,0,1,2.134.2c3.927,2.89,8.455,1.744,12.733,1.872a77.291,77.291,0,0,0,16.536-1.012c.764.759-.4,1.089.18,1.956,6.442-1.221,12.733-3.767,19.8-4.887-1.534,2.459-3.093,4.04-5.741,4.7-5.7,1.427-11.529,1.764-17.331,2.236a224.228,224.228,0,0,1-29.615.3c-.624-.03-1.313.135-1.844-.455.25-1.066,1.69-.344,2.1-1.491a117.73,117.73,0,0,0-15.552-1.75C248.646,467.693,254.182,467.113,259.714,466.58ZM424.143,296.726c.159-.354.354-.872.209-1.15-1.85-3.607-.48-7.674-1.655-11.368a1.609,1.609,0,0,1,.51-1.965c2.553-1.848,4.492-4.338,6.657-6.52.884.2.784.855.8,1.377.209,6.134.839,12.255.659,18.4-.11,3.776-4.5,9.823-7.99,10.819C423.718,303.072,422.769,299.835,424.143,296.726ZM316.814,455c-7.142,2.283-14.393,2.725-21.718,3.13-.191.01-.4-.182-.59-.273.005-.833.634-.88,1.14-1.089.914-.381,2.458-.354,1.354-2.1-.086-.128.374-.641.63-.931,1.19-1.325,2.369-2.658,3.607-3.936.91-.948,5.508-1.3,6.866-.331a2.16,2.16,0,0,0,2.394.226c1.665-.624,3.433-.948,5.127-1.494a1.6,1.6,0,0,1,2.064.762c2.267-1.973,4.992-1.727,8.076-2.04C323.271,450.631,321.2,453.6,316.814,455Zm70.318-64.9a2.9,2.9,0,0,1-1.66,1.7c-5.077,2.074-9.7,5.012-14.481,7.642-.44.239-.905.371-1.66-.3,1.785-3.514,2.6-7.565,4.693-11.1a4.891,4.891,0,0,1,1.955-1.369q6.6-3.592,13.231-7.126a1.763,1.763,0,0,1,1.781-.169C389.686,383,388.421,386.554,387.132,390.1ZM199.067,460.681c-3.388.233-6.612-1.315-9.881-2.158a134.383,134.383,0,0,1-18.454-6.58c-.2-.081-.335-.3-.49-.452.276-1.137,1.07-.793,1.754-.725,5.548.54,10.925,2.057,16.416,2.934a45.5,45.5,0,0,0,8.7.755c5.607-.169,11.2.364,16.412,4.27C208.323,459.46,203.714,460.361,199.067,460.681ZM94.451,269.927a4.831,4.831,0,0,0-1.143,3.288,20.9,20.9,0,0,1-3.8,10.605,45.387,45.387,0,0,0-2.388,4.224c-.374.713-.627,1.722-1.676,1.2a1.716,1.716,0,0,1-.934-2.42c1.336-2.943,2.465-5.99,3.97-8.836a241.9,241.9,0,0,1,16.91-28,12.76,12.76,0,0,0,.715-1.378c.82,1.361.314,2.108.239,2.83-.6,6.119-1.983,11.982-6.59,16.435-2.179,2.108-2.944,5.116-5.352,7.642C93.969,273.357,94.937,271.721,94.451,269.927ZM353.6,402.763a14.316,14.316,0,0,1,9.555-9.713c2.7-.921,5.2-2.432,8.045-3.427-2.259,5.19-2,11.743-8.986,14.057-3.682,1.224-7.116,3.207-11.029,5.018C351.691,406.247,353,404.635,353.6,402.763Zm-161.66,60.5c.036-.246.07-.5.106-.742,3.319.624,6.656,1.147,9.945,1.889a96.009,96.009,0,0,0,14.358,2.226c6.781.486,12.962,3.413,19.649,4.128,5.536.6,11.039,1.42,16.61,1.8,5.548.378,11.08.927,16.652.975,1.838.013,3.692-.428,5.5.378C246.417,475.963,218.951,471.281,191.94,463.265ZM140.009,408.5a45.146,45.146,0,0,0,10.708,3.835,3.022,3.022,0,0,1,2.6,2.739c.29,1.673.745,3.319,1.13,4.975.179.759.132,1.663,1.4,1.916.725-2.243-.981-4.31-.482-7.086A40.74,40.74,0,0,1,161.9,425.1c-3.548-1.1-6.594-2-9.6-3-2.378-.793-4.688-1.811-7.086-2.54-2.084-.631-2.594-2.607-3.6-4.044a57.154,57.154,0,0,1-3.572-6.87A1.675,1.675,0,0,1,140.009,408.5ZM305.42,432.655a47.93,47.93,0,0,0-6.516.216c1.619,1.369,3.653.142,6.007,1.245-5.138,1.558-9.736,3.069-14.4,4.344-4.7,1.285-9.375-1.346-14.112-.057,2.12-2.024,31.649-10.752,38.3-11.534C312.946,431.913,311.363,432.854,305.42,432.655Zm6.832,29.662a100.423,100.423,0,0,1-23.1,3.949c-1.3.061-2.583,1.143-4.407-.138,2.733-1.707,4.447-4.263,6.886-6.044,1.079-.789,2.528-.334,3.8-.334,2.738.007,5.491-1.164,8.246.229.555.277,1.549-.256,2.319-.482a40.231,40.231,0,0,1,11.674-1.74C316.14,460.185,314.535,461.663,312.252,462.317ZM148.677,422.179a69.759,69.759,0,0,0,10.5,2.9,10.078,10.078,0,0,1,6.695,4.685,51.293,51.293,0,0,0,4.453,5.349c-3.481-.212-6.139-1.406-8.918-1.98-2.206-.455-4.31-1.379-6.5-1.9-2.661-.634-4.708-1.872-5.872-4.486a19.68,19.68,0,0,0-4.243-5.636C146.795,420.962,147.7,421.771,148.677,422.179Zm246.561-82.373c-.175,1.329-1.764,1.541-2.743,2.216a60.719,60.719,0,0,1-7.8,4.526c-.645-1.147.06-2.02.2-2.9.455-2.867,1.079-5.7,1.485-8.573.31-2.2,1.709-3.29,3.517-4.195,2.19-1.1,4.122-2.7,6.732-3.578C396.647,331.731,395.788,335.757,395.237,339.806Zm33.912,15.45c-2.923,9.612-7.436,18.617-11.089,27.929-2.918,7.437-8.316,13.319-10.989,20.735a2.518,2.518,0,0,1-1.064,1.278,36.1,36.1,0,0,1-7.761,2.674c1.945-3.309,2.654-6.772,6.931-6.981a4.081,4.081,0,0,0,2.963-2.354c5.263-10.108,11-19.986,15.3-30.573a215.729,215.729,0,0,0,6.816-20.489c.27-.911.646-1.794,1.191-3.3C432.783,348.777,430.184,351.856,429.149,355.256Zm-33.681-9.538c-.261-4.948,3.178-6.02,6.926-7.578-.814,3.086-.089,6.162-2.757,8.222-2.25,1.734-3.585,2.111-4.833,1.555-3.149,4-7.981,5.221-11.954,8.1-.655-3.932.825-7.126,3.768-8.83,2.564-1.487,5.108-3.012,7.745-4.567C395.067,343.627,394.393,344.551,395.468,345.718ZM133.253,398.854a3.392,3.392,0,0,1-1.187-1.484c-1-2.054-1.541-4.314-3.278-6.482,3.585.155,6.209,1.464,8.927,2.368,1.3.435.975,1.909,1.207,2.975.26,1.174-.03,2.573,1.42,3.5,1.029-1.622-.766-3.379.644-4.691,3.234.2,6.526,4.307,7.821,9.986A79.853,79.853,0,0,1,133.253,398.854Zm231.866,40.91c-3.938,3.393-5.378,8.88-11.534,9.288-2.938.2-5.822,1.315-8.731,2.007-.676.159-1.344.621-2.054.071C347.848,443.012,355.55,440.155,365.12,439.764Zm48.894-79.783c-2.529,7.764-5.1,15.511-8.147,23.1a6.147,6.147,0,0,1-4.382,4.047c-.625-.59-.354-1.18-.05-1.757,2.463-4.7,4.3-9.686,6.362-14.57,1.5-3.575,2.378-7.454,4.167-10.867s1.884-7.2,3.339-10.634a4.245,4.245,0,0,1,3.127-2.941C416.837,351.27,415.427,355.63,414.013,359.981Zm-34.518,8.2a1.664,1.664,0,0,1,.776-.887c3.5-1.777,7.031-3.518,10.624-5.309.615,4.5-1.374,8.509-4.908,10.327-2.7,1.393-5.377,2.82-8.065,4.229-.206-.185-.41-.371-.619-.556C378.026,373.377,378.731,370.767,379.5,368.177Zm9.651,9.457c-4.324,1.976-8.362,4.573-12.524,6.89a1.449,1.449,0,0,1-1.644.209c.714-2.6.419-5.45,3.767-7.045a140.5,140.5,0,0,0,15.273-7.946C393.439,373.613,392.46,376.123,389.147,377.633Zm24-49.764c-.171,1.07-1.211,1.642-2.129,2.215-1.694,1.057-3.333,2.209-4.952,3.295-1.025-.756-.656-1.61-.59-2.354a72.09,72.09,0,0,0,.78-8.217,1.836,1.836,0,0,1,.693-1.733c2.365-1.528,4.483-3.429,7.762-4.989C414.153,320.4,413.728,324.145,413.144,327.87Zm1.109-66.58c1.478,4.417.509,7.93-3.569,10.554a71.8,71.8,0,0,0-5.931,4.777c-1.035-2.8-.89-5.441-1.114-8-.036-.4.574-.958,1-1.283,2.7-2.043,5.437-4.051,8.176-6.048a5.75,5.75,0,0,1,1.129-.49A5.027,5.027,0,0,1,414.253,261.289Zm10.429,63.524c-1.8,1.929-2,4.74-4.312,6.421-.44-4.881,2.773-9.611,8.629-12.6-3.428,15.05-6.906,29.773-13.182,43.671C419.515,349.978,422.843,337.577,424.682,324.813Zm-49.647,52.8c-.746,1.727-3.12,1.831-4.723,2.725a26.92,26.92,0,0,1-6.762,2.88c.88-8.432,6.453-12.027,14.064-14.388C376.718,372.015,376.194,374.952,375.034,377.617Zm-7.562-40.239c6.082-3.764,11.953-7.395,17.9-11.07.958,3.655.084,5.72-2.789,7.387-4.322,2.506-8.6,5.1-13.363,7.434C368.837,339.59,368.8,338.322,367.472,337.378Zm-60.818,106.73c1.54-2.371,2.4-4.442,4.809-4.766,3.842-.516,7.72-.8,11.579-1.177a1.245,1.245,0,0,1,1.314.411c-2.709,6.6-8.52,9.174-19.46,8.475,3.364-2.621,7.876-1.754,10.964-4.408C312.837,441.983,310.118,442.938,306.654,444.108Zm-10.334-3.373c2.784-1.359,6.577-.658,10.643-.927-2.512,3.059-3.672,6.165-7.625,6.732-4.489.641-8.89,1.875-13.332,2.85-.1-.172-.2-.344-.29-.519C289.214,446.084,292.393,442.648,296.321,440.735ZM365.508,384c2.31-.617,4.417-1.99,6.607-3.042.576-.273,1.1-.715,2.009-.142-.57,3.018-.835,6.044-4.442,7.541-3.633,1.5-7.081,3.443-10.616,5.19-.169-.2-.344-.395-.514-.594C360.112,389.417,360.681,385.283,365.508,384Zm56.181-62.571c.48-3.84.874-7.552,1.474-11.227.106-.639,1.024-1.194,1.644-1.694a49.708,49.708,0,0,0,5.717-5.443C431.674,310.689,427.645,318.9,421.689,321.426Zm-29.7,37.59a1.842,1.842,0,0,1-1.005,1.305c-3.442,1.73-6.89,3.46-10.374,5.207-.669-2.681,1.339-7.588,3.487-8.779,2.918-1.626,5.837-3.241,9.3-5.16C392.849,354.494,392.439,356.76,391.985,359.017Zm1.773,18.5c.491-1.056,2.129-1.616,3.3-2.317,1.4-.847,2.859-1.6,4.419-2.462-.241,7.052-5.288,13.983-12.394,16.634C390.741,385.063,392.045,381.2,393.758,377.519Zm-75.8,54.5c3.143-2.347,7.452-2.33,9.869-5.484-3.292-.243-5.8,1.73-9.359,2.793,1.258-2.03,2.018-4.088,3.727-4.6,3.819-1.147,7.862-1.039,12-1.417C330.812,431.616,327.254,433.508,317.954,432.021Zm85.554-99.354c-.265,4.033-3.528,4.661-6.6,6.5.354-4.558.42-8.63,1.6-12.428.755-2.4,3.533-2.967,6.222-4.087C404.258,326.438,403.718,329.54,403.508,332.667Zm2.113-74.95c2.744-1.47,4.574-4.23,7.392-5.668,1.828,3.424,1.358,6.155-1.474,8.335-2.364,1.817-4.782,3.565-7.187,5.329a4.953,4.953,0,0,1-1.084.336C403.023,262.783,401.919,259.7,405.621,257.717ZM137.685,402.378c3.757,1.234,7.477,2.573,11.194,3.916,2.55.914,3.551,2.54,3.393,5.612-3.922-1.066-7.555-2.7-11.295-4.081-2.887-1.062-5.2-2.411-6.556-5.211a1.424,1.424,0,0,1-.125-1.349C135.712,400.915,136.586,402.018,137.685,402.378ZM415.477,276.733a1.723,1.723,0,0,1-.619,1.24c-2.934,2.1-5.553,4.655-8.8,6.329-1.925-2.807-1.5-5.582.934-7.436,2.623-2,5.142-4.133,8.2-6.61C415.316,272.771,415.452,274.751,415.477,276.733Zm-26.166,44.872c-.026-3.058,1.3-5.85,1.208-8.825-.029-.8,1.12-1.072,1.789-1.5,1.835-1.166,3.694-2.3,5.743-3.567C399.74,313.665,396.482,318.772,389.311,321.605ZM328.179,465.7c1.948-4.664,13.842-10.435,21.034-9.868C342.486,460.5,336.53,465.575,328.179,465.7ZM379.141,359.6c.73,4.152-.549,6.894-3.908,8.61-2.265,1.16-4.543,2.28-6.866,3.443C367.762,363.425,374.085,362.224,379.141,359.6ZM409.98,300c1.789-1.178,3.5-2.482,5.317-3.779,1.844,5.514-1.174,10.06-8.219,12.835C405.542,304.379,406.172,302.506,409.98,300ZM355.164,438.887c.34-2.843,3.043-3.413,4.339-5.605-3.1-.209-4.773,1.39-6.031,3.329a9.158,9.158,0,0,1-7.4,4.344,7.917,7.917,0,0,1-.96-.054c2.884-8.243,10.09-8.86,17.715-10.233C360.362,433.909,359.347,437.545,355.164,438.887ZM318.718,466.4c-2.743-.344-5.258,1.342-8.7,1.615,2.178-2.266,4.067-4.071,6.427-4.637,3.843-.924,7.765-1.545,11.593-2.59a2.379,2.379,0,0,1,2.049.223c-.524,1.265-1.97,1.737-2.524,2.769-1.993,3.733-5.717,3.12-8.824,3.946C318.183,467.2,318.972,466.995,318.718,466.4ZM400.91,354.8c-.5-5.44,3.242-10.641,9.239-12.85C410.75,348.089,407.117,353.141,400.91,354.8Zm3.672,35.709c-1.3-1.174,2.76-4.668,9.88-8.482.025,3.76-7.217,15.244-10.1,15.969-.914-3.177,3.4-5.083,2.344-8.4C405.433,389.539,405.378,390.642,404.582,390.51ZM92.573,307.764a133.684,133.684,0,0,0-7.265,12.578c-.4.744-.715,1.9-1.879,1.32-1.029-.507-.641-1.52-.351-2.369,2.192-6.386,5.966-11.92,9.588-18.187C93.834,303.77,93.986,305.7,92.573,307.764Zm288.7,42.652c.759,5.231-3.018,9.5-10.224,11.386C371.535,355.59,374.509,352.339,381.275,350.416Zm-13.538,60.491c2.125-.04,4.192-1,6.422-.911-.825,4.3-1.544,5.17-5.3,5.835-2.585.455-5.093,1.417-8.146,1.427C362.085,413.633,363.654,410.985,367.737,410.908Zm-239.182-22c-1.636-.755-.867-2.162-.432-3.379.445-1.265,1.244-1.5,2.455-1.062,2.354.843,4.722,1.626,7.1,2.4.87.283,1.4.732,1.258,1.744-.179,1.265-.314,2.54-.54,4.391C134.876,391.556,131.662,390.345,128.555,388.908ZM411.53,315.687a33.271,33.271,0,0,0-4.354,2.979c-2.1-4.3,2.145-10.691,7.986-11.878C415.461,310.5,415.457,313.817,411.53,315.687ZM339.187,430.129c1.429-2.533,2.789-4.961,4.179-7.369a2.234,2.234,0,0,1,1.848-.975c2.134-.26,4.258-.533,6.471-.809C350.371,426.287,343.875,430.3,339.187,430.129Zm65.52-21.713c-1.433,3.079-3.113,6.1-5.431,8.158-1.8,1.605-5.158.921-7.937,2.489C393.479,412.921,399.186,408.5,404.707,408.415ZM409.421,291.8a53.216,53.216,0,0,1,5.876-3.764c1.19,2.995.76,4.711-1.483,6.677a33.807,33.807,0,0,1-7.1,4.948C405.548,295.009,405.877,294.205,409.421,291.8Zm3.682-4.44c-2.233,1.419-4.4,2.932-6.631,4.423-1.57-3.839-1.115-5.185,2.093-7.267,2.2-1.424,4.328-2.961,6.552-4.491C416.577,283.919,416.071,285.47,413.1,287.36ZM375.108,426.5c-2.832,6.425-7.981,9.211-14.488,10.556C363.15,430.159,368.837,428.129,375.108,426.5Zm15.927-103.874A66.8,66.8,0,0,0,397,318.951c1.171,3.769.261,6.058-2.942,7.819-2.084,1.149-4.129,2.371-6.267,3.6C387.088,326.89,388.342,323.881,391.035,322.625ZM107.881,99.067c.26,1.477,1.669,2.329,2.769,3.27,5.727,4.878,11.349,9.883,17.652,14.03.182.117.283.352.2.8-10.317-3.46-16.63-11.921-24.452-19.4C106.127,97.35,107.46,96.7,107.881,99.067ZM369.037,419.38c-.78,4.374-3.14,6.779-6.9,7.45-2.6.462-5.192.978-7.791,1.474-.12-.266-.235-.533-.354-.8C357.742,422.668,363.994,422.425,369.037,419.38ZM98.4,314.788c1.619-1.86,2.894-4.014,4.395-6.142,2.084,3.192,1.983,5.677-.017,8.32-1.484,1.967-2.88,4-4.647,6.457C97.2,320.1,96.053,317.5,98.4,314.788ZM148.279,429.12c-3.089-.786-5.885-2.425-9.049-3.012-.634-.118-1.305-.519-.985-1.349.351-.887.9-.229,1.791.1-1.757-2.078-.847-3.868-.088-6.04,5.339,1.406,6.33,6.583,9.889,10.2A9.718,9.718,0,0,1,148.279,429.12Zm-14.431-46.471c-.739-.529-1.386.523-2.553.273a20.225,20.225,0,0,1,.678-10.863c.229-.057.465-.111.7-.169q3,6.7,6.027,13.41c-.206.185-.411.368-.617.553C136.818,384.638,133.847,385.974,133.847,382.649Zm278.311-50.892c.86,4.95-2.333,9.321-8.249,11.3C403.133,337.877,405.866,334.122,412.158,331.756Zm-5.222,22.566c-.039,5.7-2.612,8.8-9.1,10.789C398.352,358.693,401.054,355.549,406.936,354.322ZM112.728,383.175c1.538,1.342-.725,3.275-.26,5.528-3.258-2.024-6.138-3.734-8.924-5.582-1.386-.917-1.325-3.491.034-5,1.491,1.086,4.007.978,3.922,3.99C109.844,380.325,111.588,382.176,112.728,383.175Zm-8.266-57.828c-1.828,1.815-2.563,4.549-4.647,6.731-1.174-3.548-2.128-6.494.749-9.295,1.572-1.528,2.371-3.757,4.506-5.681C105.217,320.211,107.1,322.73,104.461,325.347ZM102,283.973c-.637.867-1.342,1.07-2.206.224-.621-.61-1.325-1.136-1.966-1.68,2.728-5.689,4.8-9.666,10.128-6.662C105.881,278.673,103.949,281.329,102,283.973ZM381.8,405.859c2.1-6.327,5.158-8.9,10.454-8.789C391.43,402.645,387.862,405.636,381.8,405.859ZM97.537,382.466c1.464-.479,2.027.273,2.641.681a105.812,105.812,0,0,0,13.568,8c2.007.934,2.509,2.084.877,4.088A64.835,64.835,0,0,1,97.537,382.466Zm321.572-58.781c-.34,1.279-1.988,1.942-3.832,2.728.46-4.141.68-7.894,1.379-11.558.285-1.485,2.19-1.965,4.018-3.043A37.241,37.241,0,0,1,419.109,323.686Zm-71.261,86.082c-.923,1.616-2.534,1.7-4.557,1.433,2.134-4.04,4.017-7.852,6.146-11.521.73-1.251,2.294-1.6,4.254-1.777A107.2,107.2,0,0,1,347.848,409.768ZM317.9,433.892c3.183.135,6.392-.256,9.75-.428a3.11,3.11,0,0,1-1.92,2.9,104.6,104.6,0,0,1-13.853,1.342C312.957,434.675,314.945,433.768,317.9,433.892ZM90.829,339.732c.924-1.879,1.983-3.694,2.843-5.6.847-1.874,1.875-1.088,3.1-.5,1.433.692,1.69,1.428.769,2.792-1.609,2.39-3.079,4.872-4.577,7.264C89.666,342.673,89.51,342.389,90.829,339.732Zm285.678,76.886c1.3-1.616,3.833-1.15,5.9-1.612-1.116,5.217-4.909,8.8-10.09,9.254C373.78,421.495,374.779,418.766,376.507,416.618Zm-51.452-4.411c-.374-4.877,4.008-9.015,10.949-9.855C332.342,406.085,330.9,411.474,325.055,412.206Zm69.234-60.539c.954-2.094,3.558-2.614,5.666-3.767.1,6.57-2.224,10.185-6.986,10.8C393.374,356.288,393.334,353.752,394.289,351.668ZM349.013,453.906c-3.583,1.217-7.282,2.088-10.94,3.083a3.659,3.659,0,0,1-1.054-.081,5.359,5.359,0,0,1,3.423-3.342c4.852-1.383,9.775-2.516,15.108-3.858C354.2,452.988,351.331,453.113,349.013,453.906ZM116.461,375.8c-.722,1.019-1.636.128-2.374-.229-1.049-.506-2.445-.786-2.2-2.465.307-2.091,1.669-3.673,2.759-5.352.637-.981,1.622,0,2.422.212,1.157.3,1.744,1.113,1.757,2.7A17.305,17.305,0,0,1,116.461,375.8Zm25.116,41.713c-2.4,0-4.013-1.332-5.75-2.091-3.494-1.531-3.47-1.673-2.165-5.366.361-1.022.469-2.229,1.862-3.116C137.5,410.378,139.449,413.785,141.577,417.508Zm237.159-16.823c-4.088,3.7-8.9,5.251-12.993,7.973C367.467,402.105,371.111,399.852,378.737,400.685Zm10.579,16.178c-2.364-.492-2.664,1.265-3.793,2.03a13.315,13.315,0,0,0-1.9,2.192,2.7,2.7,0,0,1-3.049.948c1.66-2.7,2.809-5.791,4.977-7.73,1.7-1.521,4.673-1.629,7.081-2.364.125.219.25.438.37.654C391.824,414.159,390.589,417.127,389.315,416.864ZM106.441,335.023c-1.868,2.207-3.022-.192-4.4-.487-1.292-.277-.9-1.559-.226-2.557,1.389-2.053,2.449-4.335,4.614-6.039C106.532,328.995,109.105,331.88,106.441,335.023Zm292.68-11.646c-.93-4.9.46-7.32,5.652-9.6C405.642,319.628,404.308,321.836,399.121,323.377ZM100.7,288.274c.745-1.29,1.754-.609,2.7-.074,1.126.631,1.191,1.39.476,2.365-1.518,2.076-2.958,4.219-4.553,6.238-1.423,1.808-2.263-.014-3.427-.6C97.143,293.227,99.183,290.905,100.7,288.274Zm262.621,87.582c.424,4.1-3.764,9.892-7.566,10.458A10.805,10.805,0,0,1,363.325,375.856Zm-27.346,77.058c-3.159.331-6.266,1.187-9.69,1.865,1.07-1.825,5.337-4.239,6.686-3.656,1.379.6,1.869-.1,2.634-.84,1.995-1.933,4.553-2.5,7.267-2.789C340.926,449.777,339.552,452.54,335.979,452.914Zm64.232-145.89c.279-2.084,2.718-1.939,3.948-3.18,2.238,4.44.759,8.171-4.014,10.269A55.456,55.456,0,0,1,400.211,307.024ZM358.852,412.432a128.325,128.325,0,0,1-13.159,6.9C347.583,412.834,350.717,411.2,358.852,412.432Zm1.159-36.89a8.889,8.889,0,0,1,7.126-9.6C366.789,371.532,364.959,373.954,360.012,375.542Zm-.85,34.819c-2.244.169-4.487.341-6.732.492-.14.007-.285-.138-.9-.452,4.573-2.226,8.86-4.307,13.592-6.61C364.454,408.436,362.81,410.088,359.162,410.362ZM99.571,346.113c-1.791,2.324-2.927-.29-4.3-.637-1.413-.358-.675-1.491-.165-2.327,1.244-2.051,2.492-4.1,3.9-6.417C101.1,339.975,101.22,343.981,99.571,346.113Zm-3.157-61.829c1.437.12,2.162,1.474,3.615,1.993a85.192,85.192,0,0,1-5.717,9.131A10.359,10.359,0,0,1,96.414,284.284ZM128.835,380.7c.037.519-.219,1.032-.8,1.012a5.673,5.673,0,0,1-3.477-1.481c-.907-.779-.5-1.767-.074-2.664a41.3,41.3,0,0,0,1.973-4.131c.607-1.781,1.7-1.858,3.43-1.292C129.3,375.107,128.636,377.856,128.835,380.7Zm240.741-23.834c.4,4.627-1.589,7.477-6.537,9.14C363.27,359.9,364.6,358.082,369.576,356.865ZM85.851,322.555c2.324-4.7,5.012-9.181,7.862-13.849,1.005,1.215,1.211,2.41.661,3.355-2.475,4.228-5.1,8.37-7.646,12.513C85.541,323.986,85.5,323.261,85.851,322.555Zm7.838-37.236c-.5-2.3-.516-4.284.489-6.085,1.14-2.043,2.489-3.976,3.76-5.944a1.669,1.669,0,0,1,2.661-.577c1.278.883.452,1.632-.081,2.426-1.046,1.543-2.148,3.05-3.093,4.652a2.254,2.254,0,0,1-2.31,1.263C95.9,282.969,94.883,283.985,93.689,285.319Zm301.669,88.294c-.266-4.3,1.838-6.519,8.609-8.944C403.9,368.285,399.811,372.44,395.359,373.613Zm-4.5-4.435a8.165,8.165,0,0,1,5.956-9.693C397.057,364.315,394.828,367.941,390.855,369.178ZM95.089,328.651c-.8,1.012-1.42,1.145-2.384.44-.911-.669-2.614-1-1.754-2.607,1.261-2.367,2.809-4.588,4.526-7.333C97.085,322.928,97.315,325.828,95.089,328.651Zm2.8,19.87c-.54,2.047-1.848,3.518-2.7,5.207-.459.921-1.329.523-1.848.03-.9-.853-2.823-1.106-2.229-2.951a13.082,13.082,0,0,1,2.253-4.263C95.052,346.868,96.327,347.877,97.885,348.521Zm302.26,46.229c.231,1.585-1.383,2.445-1.309,4.071,2.1-1.133,2.363-3.457,3.868-5.228-.195,5.241-3,7.922-9.264,8.688C395.8,399.438,395.2,394.864,400.145,394.75Zm21.084-93.684c1.294,5.193.1,8.293-3.879,10.064C415.987,306.949,417.291,303.566,421.229,301.065ZM106.164,357.522c1.852-.331,2.04-1.46,2.074-2.7.078-2.536,1.774-4.209,3.292-6.307,1.228,2.01,2.054,3.717.556,5.818-1.342,1.892-2.5,3.919-3.926,6.189C107.466,359.323,108.465,357.576,106.164,357.522ZM354.43,388.6c.615-1.329,2.358-.965,3.7-1.44-.579,4.988-3.533,9-7.222,9.6C351.711,393.684,353.23,391.195,354.43,388.6ZM132.093,88.368c-.169-1.366.364-1.8,1.673-1.381a39.956,39.956,0,0,0,4.637,1.369c2.01.381,3.794.061,4.128-2.74,2.256.721,4.364,1.4,6.472,2.075l.03.74C143.422,89.5,137.8,90.426,132.093,88.368Zm-25.052,206.04c-.24.32-.58.915-.766.876-4.233-.88-2.55,2.864-3.548,4.489a3.581,3.581,0,0,1-.331.389c-1,.092-1.538-.634-2.395-1.548a95.852,95.852,0,0,1,5.71-8.138c1.174-1.383,2.1.555,3.393,1.084C108.259,292.727,107.662,293.573,107.041,294.408Zm11.592,43.62c.61,1.986-2.391,10.071-4.381,11.787C111.4,346.477,113.982,343.722,118.633,338.029Zm266.574,73.135c-1.959-1.437-3.673.364-5.582.58.225-3.41,1.655-4.317,7.177-5,1.308-.162.838.806,1.138,1.332,1.02-.152.651-1.659,1.968-1.747-.184,1.916-1.344,3.275-2.108,4.782-1.194-.189-.256-1.211-1.109-1.737C386.213,409.947,385.767,410.486,385.208,411.164Zm12.538-7.373c-.743,4.155-3.4,6.29-8.03,6.459C390.72,405.812,392.46,404.416,397.746,403.792ZM99.379,366.227a.955.955,0,0,1-1.7.435c-.776-.735-2.513-.89-1.858-2.617.283-.745.7-1.44,1.049-2.165,1.6-3.349,1.673-3.366,4.914-.992C101.389,362.936,99.972,364.393,99.379,366.227Zm311-17.6c2.289-3.636.51-8.695,5.688-10.877C416.466,342.69,413.933,347.934,410.374,348.632Zm-308.48-47.048c-1.848,2.6-3.72,5.233-5.7,8.02-1.44-3.067-1.268-3.579,2.9-9.607A4.181,4.181,0,0,1,101.895,301.584Zm302.084-5.9c1.558,4.328.665,6.5-3.484,8.1C399.316,298.334,399.91,297,403.979,295.685Zm-300.995,67.48c.563-1.309,1.339-1.359,2.506-.826a1.48,1.48,0,0,1,.867,2.314c-.867,1.713-1.74,3.423-2.668,5.258-1.12-.523-2.047-.954-3.214-1.5C101.4,366.5,102.252,364.858,102.984,363.165Zm236.444,61.409c-.67,4.664-3.539,7.14-7.482,6.455C333.671,426.4,335.42,424.884,339.428,424.574Zm79.228-97.311c-.615,3.608-.227,7.526-4.8,9.322C413.758,330.557,414.867,328.381,418.656,327.263Zm-311.2,24.273c-1.389.2-1.9-.793-2.8-.921a.838.838,0,0,1-.546-1.336c1.565-2.749,3.184-5.464,4.782-8.192l.651.337C108.839,344.831,108.141,348.241,107.46,351.536Zm313.669-60.072c1.469,3.794.621,6.306-3.238,9.135C417.1,294.8,417.636,293.306,421.129,291.464ZM310.213,434.273c-1.154,3.389-2.14,4.169-5.351,4.287-2.184.074-4.364.081-6.546.1a3.169,3.169,0,0,1-.7-.135c-.034-.155-.064-.307-.1-.462Zm35.4-20.8c-.615,4.3-3.709,7.332-7,6.867C340.293,415.768,341.507,413.818,345.609,413.471ZM89.956,354.265c4.31,1.47,4.462,2.192,1.383,7.251C87.922,359.718,87.585,357.782,89.956,354.265ZM327.413,413.9c-2.308,3.309-3.918,6.88-7.441,8.823C321.117,416.705,323.556,413.832,327.413,413.9ZM219.4,87.628a46.132,46.132,0,0,1,12,8.722C225.782,95.589,223.109,90.925,219.4,87.628ZM124.451,388.611c-.779,1.723-.8,3.757-2.637,4.492-.975.384-2.074-.422-2.6-1.369-1.008-1.8.165-3.194,1.079-4.84C121.672,387.465,122.984,388,124.451,388.611Zm207.755,48.633c-1.169,4.3-5.5,3.757-8.246,5.612C325.629,438.236,328.229,436.564,332.206,437.245ZM403.369,288.3c1.823,3.814,1.025,5.752-2.913,7.069C399,290.8,399.361,289.938,403.369,288.3Zm-298.958,66.33a3.7,3.7,0,0,1-1.332,3.909c-1.245.8-2.256-.661-3.47-1.322a18.4,18.4,0,0,1,3.474-5.919C104.232,352.372,104.2,353.543,104.411,354.625Zm-16.1-66.1c.89-1.386,1.555-2.95,3.015-4.176,1.4,3.087.148,5.437-1.359,7.822C87.814,291.6,87.025,290.517,88.31,288.526ZM128.3,396.308a5.475,5.475,0,0,1-1.106-.277c-.995-.486-1.97-1.029-3.015-1.585.556-1.7.985-3.305,2.226-4.533C129.169,392.358,129.689,394.085,128.3,396.308Zm209.291,45.821c2.444-2.314,3.973-5.41,7.986-6.175C342.96,441.309,341.2,442.671,337.593,442.128ZM108.35,300.268c-.459,1.154-1.45,2.288-2.708,1.723-1.44-.651-.61-1.984-.024-2.893,1.164-1.8,2.462-3.514,3.707-5.262A13.347,13.347,0,0,1,108.35,300.268Zm8.715,84.869c1.646.506,1.929,1.346.57,2.5-.3.256-.695.327-.6.853.165,1.025.165,2.243-1.275,1.784-1.086-.344-2.887-.668-2.054-2.749a30.167,30.167,0,0,0,.89-3.174C115.581,384.665,116.32,384.908,117.065,385.138Zm-.766-5.143c.772-1.76,1.845-.921,2.755-.475,1.69.823,1.71,2.428.1,4.846C115.207,382.848,115.146,382.642,116.3,379.994ZM91.618,346.207c-.293,1.477-1.42,2.82-2.317,4.131-.277.4-.884,0-1.3-.243a1.437,1.437,0,0,1-.7-1.848c.455-1.356.961-2.695,1.565-4.391C90.134,344.666,91.9,344.835,91.618,346.207Zm-2.563-19.925c-.813-1.619,2.334-7.486,6.108-11.128C94.1,319.322,91.278,322.535,89.055,326.282Zm14.013,17.352c.83-1.565,1.821-3.045,2.769-4.55a1.089,1.089,0,0,1,1.477-.435.884.884,0,0,1,.411,1.41c-1.305,2.185-2.664,4.341-4.034,6.57A2.065,2.065,0,0,1,103.068,343.634ZM96.94,314.391c-.749-2.128,2.155-7.125,5.774-10.168C102.468,308.447,98.816,310.647,96.94,314.391Zm31.966,87.856c-.887-.594-.155-1.659.253-2.4.54-.995,1.43-.59,2.108-.209,1.72.965,1.771,2.914,2.779,4.678C131.6,404.584,130.3,403.185,128.906,402.247Zm272.408-21.47c1.134-3.963,1.893-8.077,4.643-11.376C404.982,373.428,403.8,377.37,401.315,380.777ZM374.4,416.8c-.216,3.44-3.315,8.1-6.038,8.4C370.836,422.392,371.26,418.847,374.4,416.8ZM104.127,375.755a2.195,2.195,0,0,1,1.1-2.5c1.18-.489,2.229.516,2.988,1.2,1.4,1.251-.533,2.192-.256,3.572C106.131,377.58,104.633,377.2,104.127,375.755Zm23.049,23.885c-.27,1.15-.931,1.514-2.138.978-2.5-1.11-2.8-1.757-1.474-4.469C124.92,397.333,127.925,396.466,127.176,399.64Zm-4.752-13.4a14.416,14.416,0,0,1-1.467-.971c.587-1.255,1.116-2.4,1.814-3.909,2.165,1.562,2.185,3.744,2.86,5.612-.2.142-.4.28-.6.418C124.158,387.016,123.271,386.665,122.424,386.244ZM331.546,449.4c.941-3.062,3.594-4.735,7.258-4.418C336.823,447.612,334.346,448.671,331.546,449.4ZM112.067,363.951c-1.841-.607-2.617-1.383-1.5-3.187.995-1.616,1.764-3.379,2.627-5.076C113.766,358.649,112.451,361.158,112.067,363.951ZM417.52,343.432c-.165-3.359,1.34-7.8,2.979-8.8C420.914,338.069,419.355,342.683,417.52,343.432ZM227.706,78.668c1.131,3.176,2.1,5.91,3.07,8.645l-.531.308c-1.723-2.411-2.6-5.431-5.266-7.135C226.042,79.559,226.986,79.794,227.706,78.668ZM412.158,350.639a8.059,8.059,0,0,1-3.913,7.814C409.38,355.536,408.736,352.217,412.158,350.639Zm-31.967,74.373a18.552,18.552,0,0,1-6.627,7.214C375.7,429.758,376.557,426.1,380.191,425.012Zm-272.3-57.564c.809,1.855,2.239,3.207,2.007,5.538C105.716,372.082,105.291,370.929,107.891,367.448Zm17.379,3.757a10.985,10.985,0,0,1-2.334,4.54c-1.568-1.659-1.245-3.46-.884-5.467A5.141,5.141,0,0,1,125.27,371.205ZM96.681,354.69c.745-1.605,1.609-3.153,2.486-4.691.273-.486.8-.472,1.282-.206.455.256.85.644.57,1.157-.85,1.555-1.764,3.076-2.7,4.583-.138.229-.5.324-.658.422C96.853,355.749,96.408,355.273,96.681,354.69Zm7.851-17a14.313,14.313,0,0,1-2.418,4.03c-1.12-1.892-1.12-3.787-1.808-5.954A11.067,11.067,0,0,1,104.532,337.688Zm-4.87,32.465c3.568.725,4.02,1.777,1.841,4.293C98.37,372.881,98.37,372.881,99.662,370.153ZM87.153,328.172c-.108,3.127-1.875,5.568-3.5,8.092A12.84,12.84,0,0,1,87.153,328.172Zm7.13-28.922c-.02-.628.115-1.34.938-1.469a2.181,2.181,0,0,1,1.74.677,1.063,1.063,0,0,1,.175,1.665c-.739.993-1.059,2.3-2.513,3.423C94.478,301.792,94.32,300.525,94.283,299.25ZM418.64,285.865c.669-.406,1.974-.07,2.054.673.195,1.834-1.245,2.892-2.883,4.613C417.762,288.788,416.751,287.011,418.64,285.865ZM396.067,387.7c-.43,2.617-3.149,4.2-7.766,4.533C391.176,390.554,393.5,389.191,396.067,387.7ZM100.478,376.463c1.366,1.143.067,2.5-.155,3.912a7.487,7.487,0,0,1-3.656-2.728C98.37,377.32,99.011,375.236,100.478,376.463Zm298.343,16.469c-.15-2.425.424-3,4.238-4.088C402.229,392.2,401.869,392.53,398.821,392.932Zm-40.308,29.2c-.175-2.563,1.249-3.194,7.251-3.322C363.375,420.554,360.8,420.9,358.513,422.135Zm-27.681,21.592c.855-2.631,2.689-3.427,5.636-3.841C334.76,442,333.78,443.96,330.832,443.727ZM284.366,78.717c-1.934,1.383-3.662,2.611-5.636,4.021C279.179,79.514,281.383,77.955,284.366,78.717Zm47.486,378.656a7.773,7.773,0,0,0,3.573-3.143c.01,3.113-3.378,5.147-8.331,5.224C328.973,458.617,330.377,457.885,331.852,457.373Zm-223.3-92.562c3.312.071,3.8,1.4,1.757,5.174C109.635,367.981,109.116,366.45,108.556,364.811Zm261.62,43.4c2.195-1.248,3.948-2.243,5.908-3.356C375.883,407.879,374.688,408.554,370.176,408.21ZM96.691,370.865c-1.191-1.1-3.68-1.369-1.943-4.165C96.472,367.8,98.974,368.14,96.691,370.865Zm312.27-9.194c.339,2.378-1.265,3.8-2.1,6.142C405.632,365.1,406.492,362.942,408.961,361.671Zm-83.407,90.167a5.9,5.9,0,0,1,5.073-5.582C329.128,448.506,327.334,449.933,325.554,451.838ZM236.846,97.094a3.613,3.613,0,0,1,2.129,2.109c-2.358.352-4.4.4-6.3-.58-.39-.2-.07-.876.306-1.277C234.358,97.406,235.8,99.728,236.846,97.094ZM375.194,413.9c.979-1.717.785-4.233,3.367-4.792C377.717,410.918,377.7,413.333,375.194,413.9ZM130.211,371.084a2.205,2.205,0,0,1-2.121-.958,18.256,18.256,0,0,1,2.3-3.926C131.827,368.379,130.454,369.65,130.211,371.084Zm248.076,36.091c.494-2.384.714-4.223,3.617-5.271C381.066,404.23,380.885,406.119,378.287,407.174ZM95.143,357.829a.711.711,0,0,1,1.049-.2c.209.159.455.634.368.769-1.022,1.605-1.282,3.68-3.258,5.575A11.9,11.9,0,0,1,95.143,357.829Zm248.052,74.454c-.974,1.683-2.368,2.148-5.942,1.993A7.5,7.5,0,0,1,343.195,432.284Zm-1.883-83.591a11,11,0,0,1-6.723,4.587C336.374,350.679,338.963,350.271,341.312,348.693Zm-224.726,46.94c.155-.874.2-2.078,1.484-2.094.8-.01,1.72.452,1.669,1.359a2.157,2.157,0,0,1-1.845,1.838C117.132,396.672,116.444,396.426,116.586,395.633Zm-4.344-65.985c.162,2.279-.685,3.847-1.329,5.986C108.741,332.713,110.687,331.477,112.242,329.648Zm-14.826-1.325c.786,1.112.675,2.4,1.019,3.9C95.382,331.268,95.207,330.406,97.416,328.323Zm16.442,36.353c-.391-1.922.351-3.46.874-5.427C116.114,361.8,116.006,362.4,113.857,364.676Zm29.713,29.78c-3,.1-3.528-.681-2.462-3.666A12.779,12.779,0,0,1,143.57,394.456ZM346.648,443.3c-1.483,1.555-3.473,1.555-5.326,1.831C342.781,443.339,344.755,443.467,346.648,443.3ZM119.513,373.9c.735,1.386.088,2.634.179,4.162C117.456,377.117,117.466,376.716,119.513,373.9Zm272.026,29.079c.381-2.307,1.784-4.111,2.948-6.04A11.3,11.3,0,0,1,391.539,402.975Zm-35.211,12.846c-1.1,2.61-2.743,3.207-5.466,3.174C352.616,417.306,354.274,416.8,356.328,415.822Zm-22.8,17.507c-1.154,1.336-2.612,1.093-3.858,1.5C330.268,432.705,331.711,432.921,333.53,433.329Zm1.454,4.519c.92-1.922,1.145-2.01,4.113-1.6A7.848,7.848,0,0,1,334.984,437.848ZM84.644,325.791c1.069,2-.455,2.859-1.046,3.988C83.089,328.29,83.575,327.133,84.644,325.791ZM355.963,420.78c-.639,1.373-.939,3-3.268,3.713C353.811,422.867,354.41,421.461,355.963,420.78ZM83.693,295.025c-1.244-2.063-.378-3.062.546-4.431C85.662,292.516,83.888,293.243,83.693,295.025Zm310.271,97.829c.669.877.091,1.4-.535,1.75-.825.465-1.524.277-1.948-.9A3.63,3.63,0,0,1,393.963,392.854ZM102.178,348.777c-2.061-.516-2.064-.54-.506-2.489A1.75,1.75,0,0,1,102.178,348.777Zm33.308-173.8c.55-1.9.749-2.082,3.292-2.74A8.275,8.275,0,0,1,135.486,174.972ZM398.1,388.858a3.73,3.73,0,0,1,1.514-3.292C399.66,386.783,399.73,388.038,398.1,388.858ZM232.178,92.9c1.67-.559,1.67-.559,2.379,2.032C233.434,94.2,232.549,93.88,232.178,92.9Zm15.667,378.13c.01-.125.021-.25.03-.378q2.444.268,4.888.54c0,.115,0,.229-.005.344Zm71.008-45.888c-.531,1.6-.81,2.553-2.214,3.339A4.213,4.213,0,0,1,318.854,425.14ZM99.885,96.816a6.018,6.018,0,0,1,2.877,2.686A6.61,6.61,0,0,1,99.885,96.816Zm8.256,238.512c.894.487,1.12,1.175.833,2.34C107.271,336.952,107.271,336.952,108.141,335.328Zm217.444,109.31c.476-1.167,1.265-1.417,2.5-1.221A1.872,1.872,0,0,1,325.585,444.638ZM376.9,398.517a2.5,2.5,0,0,1,2.843-1.218A2.647,2.647,0,0,1,376.9,398.517Zm-29.965,33.959c.241-1.089.835-1.406,2.116-1.184C348.612,432.459,348.093,432.955,346.938,432.476ZM397,391.684c.361.823.171,1.363-.854,1.777C395.752,392.406,396.078,391.93,397,391.684ZM264.553,166.479c-.051-.408.274-.577.589-.59.415-.014.844.132.889.617.045.468-.279.7-.728.756A.785.785,0,0,1,264.553,166.479ZM106.235,353.155c-.03.223-.486.6-.644.556-.661-.186-.836-.681-.506-1.477C105.912,352.143,106.34,352.433,106.235,353.155ZM196.693,83.171a3.084,3.084,0,0,1,2.433,1.258A2.187,2.187,0,0,1,196.693,83.171ZM126.421,384.025a.722.722,0,0,1-.759-.718c-.04-.344.125-.617.519-.6.415.024.745.192.793.668C126.923,383.714,126.781,384.015,126.421,384.025Zm256.118,12.964c.35-.772.851-.874,1.76-.519C383.649,397.212,383.214,397.424,382.538,396.989ZM256.587,123.544a.635.635,0,0,1,.58.226c.224.665-.1,1.046-.91,1.238C255.892,124.3,255.886,123.794,256.587,123.544ZM359.6,414.412c.34.728.136,1.126-.739,1.3C358.543,414.709,358.867,414.422,359.6,414.412ZM108.785,208.426c-.384-.618-.132-.9.695-1.031C109.321,207.95,109.223,208.317,108.785,208.426Zm11.5,189.376a.633.633,0,0,1-.388-.476.578.578,0,0,1,.6-.61,1.2,1.2,0,0,1,.462.135C120.8,397.535,120.69,397.879,120.282,397.8Zm216.776,25.764c-.084-.02-.179-.425-.115-.486a.479.479,0,0,1,.771.064A.5.5,0,0,1,337.058,423.565ZM91.278,293.026c0-.345.223-.6.577-.457.138.056.243.376.239.573s-.162.4-.331.769C91.463,293.381,91.278,293.205,91.278,293.026ZM351.3,427.542c.159.921-.16,1.2-1.089,1.123C350.211,427.8,350.687,427.727,351.3,427.542ZM110.242,344.555c1.17.293.627.722.226,1.251A.783.783,0,0,1,110.242,344.555Zm-4.779,15.6c-.152-.017-.4-.263-.391-.391a.6.6,0,0,1,.395-.418c.145-.01.307.233.529.428C105.773,359.947,105.608,360.173,105.463,360.157Zm11.494,4.968a.44.44,0,0,1-.337.668.683.683,0,0,1-.5-.347c-.165-.324.02-.556.445-.708C116.68,364.844,116.879,364.956,116.957,365.124ZM105.571,213.75c-.59-.67-.01-.877.516-1.4C106.387,213.328,106.181,213.651,105.571,213.75ZM280.433,478.816c-.035,0-.075-.175-.1-.27.068-.02.154-.068.214-.047a2.218,2.218,0,0,1,.33.209A1.987,1.987,0,0,1,280.433,478.816Zm-5.187,1.555c.115,0,.235.155.43.3a2.615,2.615,0,0,1-.65.212c-.111.007-.231-.159-.426-.314A2.692,2.692,0,0,1,275.247,480.371ZM212.1,65.212c.061.036.155.061.175.112s-.05.122-.08.186l-.18-.1C212.049,65.343,212.076,65.276,212.1,65.212ZM277.5,480.384l-.068.165-.12-.148ZM144.38,171.564l-.159.052.024-.145ZM215.234,50.923l-.24-.136.2-.048C215.209,50.8,215.218,50.861,215.234,50.923ZM121.493,378.21l.084-.182.084.182ZM278.04,473.787l-.154.067.009-.152Zm0,0" transform="translate(-62.287 -18.938)" fill="#fff"/>
      <path id="Path_2602" data-name="Path 2602" d="M150.736,198.141c2.66-.652,2.089,1.236,1.554,2.348a63.684,63.684,0,0,1-3.633,5.937c2.079,1.694,1.355,3.826.535,5.818a44.256,44.256,0,0,1-10.913,15.3c-7.651,7.218-14.862,14.875-22.523,22.087-4.353,4.1-8.051,8.885-13.364,11.9-.444.252-.793.9-1.473.446-.165-.872.624-1.039,1.07-1.423,3.043-2.631,6.056-5.268,8.954-8.083,9.45-9.176,18.835-18.411,27.826-28.04a46.2,46.2,0,0,0,7.761-11.417c.569-1.17.174-2.175-.31-3.715-5.723,5.78-11.054,11.484-17.25,16.214-6.088,4.644-12.135,9.372-18.835,13.342-.381-.947-.286-1.274,0-1.445A155.619,155.619,0,0,0,128.1,224.156a135.45,135.45,0,0,0,16.42-16.117c1.469-1.688.374-3.1-.83-4.644-9.985,9.657-18.52,20.81-31.243,27.087-.315.154-.625,0-.869-.4.06-.144.08-.459.229-.539,9.915-5.295,17.166-13.658,24.793-21.578,1.564-1.627,3.272-3.092,4.757-4.826,1.7-1.988,1.349-3.54-.241-5.632-3.417,6-8.5,10.215-13.043,15.137-.764-1.111-.065-1.487.4-2,3.693-4.055,7.7-7.819,10.719-12.474a4.189,4.189,0,0,0,.12-5.118c-1.369-2.148-2.573-4.4-4.078-6.99-3.113,4.845-6.177,9.013-10.724,12.368,0-.694-.095-1.014.014-1.111,3.263-2.9,4.718-7.286,8.241-9.984,1.724-1.32,1.819-2.744.29-4.5-2.444-2.806-4.668-5.8-6.967-8.733-.435-.553-1.079-1.033-.839-2.013,1.354-.74,2.054.363,2.7,1.183,4.628,5.928,9.2,11.9,12.52,18.709.274.569.424,1.25,1.335,1.467,1.213-.968.769-3.056,2.408-4.03.889,3.079-3.478,5.988-.075,9.051a9.455,9.455,0,0,0,2.5-4.505,1.813,1.813,0,0,1,.784,2.465,21.934,21.934,0,0,1-1.384,3.1c-1.158,1.955-.874,3.659.855,5.643,1.719-2.275,3.664-4.16,3.913-7.092Zm0,0" transform="translate(189.535 -18.938)" fill="#fff"/>
      <path id="Path_2603" data-name="Path 2603" d="M78.709,192.863c.619-1.961-1.254-3.57-.95-5.659,9.5,7.827,33.947,83.83,30.79,96.033C103.991,251.816,93.447,222.7,80.1,194.5c4.247,11.831,9.321,23.387,11.52,35.913-7.047-18.3-13.028-37.065-23.952-54.189,3.043,1.051,9.094,10.6,11.084,16.692a1.559,1.559,0,0,1,.13-.093Zm0,0" transform="translate(266.675 -18.938)" fill="#fff"/>
      <path id="Path_2604" data-name="Path 2604" d="M87.43,269.934c2.539-2.194,5.907-3.263,8.661-5.789-1.3.032-2.764,2.076-2.814-.771-2.948,1.858-5.711,3.6-8.836,5.559.076-1.932,1.406-2.239,2.19-2.739a169.31,169.31,0,0,0,22.684-17.038c7.511-6.785,13.767-14.572,17.76-24,.285-.664.44-1.591,1.4-1.3,1.349.4,1.013,1.617.68,2.448a48.48,48.48,0,0,1-6.213,10.674,83.8,83.8,0,0,1-17.3,17.117,34.75,34.75,0,0,0-7.781,8.426c5-2.589,29.584-20.118,34.547-30.484,1.335,1.125.63,2.129.014,3.113a45.227,45.227,0,0,1-9.539,10.6A257.761,257.761,0,0,1,92.463,267.84c-1.526.946-3.129,1.76-4.693,2.634C87.656,270.294,87.545,270.113,87.43,269.934Zm0,0" transform="translate(225.561 -18.938)" fill="#fff"/>
      <path id="Path_2605" data-name="Path 2605" d="M292.4,420.439c-12.9.4-25.757,2.067-38.666.553,17.6-.85,35.267-.678,52.467-5.943.035,1.2-.27,1.5-.659,1.605a22.846,22.846,0,0,0-9.06,4.287c-3.673,3.039-8.605,3.2-13.128,3.754-9.625,1.18-19.3,2-28.965,2.779-4.192.337-8.416.236-12.629.3a1.913,1.913,0,0,1-2.158-.971A238.221,238.221,0,0,0,292.4,420.439Zm0,0" transform="translate(-102.642 -18.938)" fill="#fff"/>
      <path id="Path_2606" data-name="Path 2606" d="M178.818,213.721a18.264,18.264,0,0,0,6.7-2.719c.869-.529,1.928-1.863,2.839-.3.875,1.5-.95,1.7-1.639,2.126-4.787,2.937-10.264,4.311-15.366,6.54-.891.387-1.835.66-2.694,1.1-2.628,1.341-2.868,1.229-3.152-1.689-4.172.93-8.2,2.656-12.665,2.831.205-1.651,1.18-1.5,1.919-1.639,8.7-1.663,16.526-5.59,24.382-9.43a32.872,32.872,0,0,0,2.825-1.876c.874-.547,1.818-2.064,2.818-.738.975,1.3-.76,1.872-1.485,2.6-1.294,1.3-3.458,1.462-4.428,3.243-1.029-.214-1.839.507-2.782.632.005,0,.109.115.109.115l-.061-.166A2.1,2.1,0,0,0,178.818,213.721Zm0,0" transform="translate(101.749 -18.938)" fill="#fff"/>
      <path id="Path_2607" data-name="Path 2607" d="M219.958,164.914c-8.146,3.027-16.377,5.766-24.233,9.933-.954-1.308-.265-2.224,1.23-2.858,4.238-1.8,8.49-3.56,12.723-5.375a102.422,102.422,0,0,1,13.633-4.946c.749-.2,1.479-.713,2.5-.239-.95,1.329-2.669,1.4-3.744,2.471.671.709,1.839-.124,2.354.89.13.763-.43,1.1-1.02,1.4-2.378,1.195-4.757,2.4-7.16,3.558-1.155.554-2.37.871-2.489,2.558-.07.915-1.14,1.034-1.954,1.092a1.68,1.68,0,0,1-1.69-1.149,1.736,1.736,0,0,1,.676-2.148c1.528-1.252,3.478-1.678,5.226-2.506A9.612,9.612,0,0,0,219.958,164.914Zm0,0" transform="translate(22.076 -18.938)" fill="#fff"/>
      <path id="Path_2608" data-name="Path 2608" d="M254.083,436.661c21.607.239,43.2-.013,65.144-2.766-1.265,1.865-2.9,1.848-4.3,2.017-6.747.8-13.513,1.39-20.315,1.551-11.323.27-22.648.779-33.977.381-2.213-.078-4.428-.314-6.637-.479C254.028,437.133,254.057,436.9,254.083,436.661Zm0,0" transform="translate(-130.055 -18.938)" fill="#fff"/>
      <path id="Path_2609" data-name="Path 2609" d="M130.418,212.872c1.4,1,.816,2.272.391,3.428a33.632,33.632,0,0,1-7.766,11.62q-9.5,9.877-19.18,19.57c-3.058,3.07-6.282,5.972-9.436,8.956-.769-.808-.2-1.2.18-1.548,9.67-8.873,18.181-18.876,27.391-28.194a32.341,32.341,0,0,0,7.246-11.691C129.509,214.3,129.449,213.383,130.418,212.872Zm0,0" transform="translate(217.829 -18.938)" fill="#fff"/>
      <path id="Path_2610" data-name="Path 2610" d="M117.9,198.079c-1.268.112-1.268-.864-1.589-1.706-3.453-9.2-6.952-18.375-10.48-27.665-1.879.935-.855,2.6-1.113,3.866-2.984-.921-2.34-4.716,1.378-8.695a.813.813,0,0,1,.869.694c.37,6,3.639,11.02,5.568,16.49,1.979,5.628,4.208,11.176,5.307,17.075Zm0,0" transform="translate(222.427 -18.938)" fill="#fff"/>
      <path id="Path_2611" data-name="Path 2611" d="M162.942,250.685c1.089,1.971-.009,2.738-.639,3.55-3.443,4.446-8.026,7.475-12.883,10.131q-6.492,3.545-13.008,7.03c-.385.207-.805.638-1.659-.182C144.137,264.346,155.637,260.581,162.942,250.685Zm0,0" transform="translate(145.016 -18.938)" fill="#fff"/>
      <path id="Path_2612" data-name="Path 2612" d="M345.39,190.724a2.531,2.531,0,0,1,.445-3.2,133.079,133.079,0,0,1,24.651-20.233c.334-.209.708-.427,1.555.4C363.123,175.208,352.955,181.21,345.39,190.724Zm0,0" transform="translate(-273.904 -18.938)" fill="#fff"/>
      <path id="Path_2613" data-name="Path 2613" d="M268.772,217.275c-.48-.4-.635-.9-.195-1.28,7.741-6.659,15.907-12.678,25.322-17.2.524,1.656-.491,1.984-1.155,2.408-3.882,2.466-7.875,4.761-11.668,7.357a97.619,97.619,0,0,0-10.439,7.877A2.231,2.231,0,0,1,268.772,217.275Zm0,0" transform="translate(-119.189 -18.938)" fill="#fff"/>
      <path id="Path_2614" data-name="Path 2614" d="M150.017,258.9c-6.152,5.907-13.717,9.118-20.829,13.061-1.085-1.22-.19-1.83.53-2.219,6.267-3.373,12.543-6.723,18.286-10.967C148.458,258.435,149.023,258.268,150.017,258.9Zm0,0" transform="translate(164.474 -18.938)" fill="#fff"/>
      <path id="Path_2615" data-name="Path 2615" d="M334.539,397.718c-9.2-.384-18.59.337-26.866-4.975Q321.106,395.232,334.539,397.718Zm0,0" transform="translate(-199.038 -18.938)" fill="#fff"/>
      <path id="Path_2616" data-name="Path 2616" d="M170.016,296.506c-5.407,8.369-13.5,13.558-21.914,18.357C155.543,308.909,162.969,302.929,170.016,296.506Zm0,0" transform="translate(125.055 -18.938)" fill="#fff"/>
      <path id="Path_2617" data-name="Path 2617" d="M266.049,220.26c-1.009-.639-1.079-1.3-.275-2.006,5.662-4.93,11.459-9.678,18.131-13.222a5.4,5.4,0,0,1,1.009.23C278.647,210.805,271.816,214.912,266.049,220.26Zm0,0" transform="translate(-106.966 -18.938)" fill="#fff"/>
      <path id="Path_2618" data-name="Path 2618" d="M321.28,381.927c6.816,6.691,15.786,7.541,24.442,9.467C341,394.358,323.128,387.741,321.28,381.927Zm0,0" transform="translate(-223.828 -18.938)" fill="#fff"/>
      <path id="Path_2619" data-name="Path 2619" d="M183.694,167.443c.091.8.161,1.406.24,2.089,3.544.316,7-1.217,10.52-.539-.165,1.41-.93,1.372-1.524,1.407a79.818,79.818,0,0,0-11.9,1.881,3.888,3.888,0,0,1-1.893.087c-1.254-.406-1.755-1.665-.77-2.387C179.842,168.894,181.225,167.3,183.694,167.443Zm0,0" transform="translate(70.873 -18.938)" fill="#fff"/>
      <path id="Path_2620" data-name="Path 2620" d="M304.794,201.2c-6.831,5.183-13.1,11.083-20.253,15.849C290.642,210.932,296.628,204.682,304.794,201.2Zm0,0" transform="translate(-146.161 -18.938)" fill="#fff"/>
      <path id="Path_2621" data-name="Path 2621" d="M416.158,203.976c.762,1.514-.266,2.694-.867,3.851-5.066,9.816-8.722,20.179-11.953,30.708q-1.062,3.468-2.128,6.935c.229-3.645,1.5-7.03,2.536-10.466a180.5,180.5,0,0,1,8.806-24.073c1.1-2.37,2.975-4.341,3.612-6.952A.012.012,0,0,0,416.158,203.976Zm0,0" transform="translate(-374.466 -18.938)" fill="#fff"/>
      <path id="Path_2622" data-name="Path 2622" d="M160.6,302.49c.546,1.908-.585,2.5-1.335,3.266-3.528,3.645-8.26,5.588-12.223,8.632-.46.356-1.024.664-1.469.025a1.044,1.044,0,0,1,.4-1.632A128.166,128.166,0,0,0,160.6,302.49Zm0,0" transform="translate(137.091 -18.938)" fill="#fff"/>
      <path id="Path_2623" data-name="Path 2623" d="M351.173,175.535c.911,1.752-.29,2.309-.971,2.942-2.479,2.308-5.025,4.545-7.578,6.774a6.42,6.42,0,0,0-1.9,2.146c-.391.856-1.042,1.366-1.916.742-.924-.66-.422-1.5.135-2.086a55.088,55.088,0,0,1,4.172-4.027C345.727,179.827,348.425,177.74,351.173,175.535Zm0,0" transform="translate(-246.626 -18.938)" fill="#fff"/>
      <path id="Path_2624" data-name="Path 2624" d="M357.787,173.468c.034,1.493-.89,2.009-1.518,2.6-3.97,3.792-8.55,6.935-12.007,11.278-.4.512-.961.722-1.44.174-.755-.851-.128-1.5.489-2.054,2.9-2.581,5.8-5.179,8.755-7.693C353.767,176.337,355.247,174.577,357.787,173.468Zm0,0" transform="translate(-257.091 -18.938)" fill="#fff"/>
      <path id="Path_2625" data-name="Path 2625" d="M176.355,174.887c-3.514,1.113-6.767,2.159-10.03,3.172-1.469.453-2.949.843-4.428,1.245-.655.176-1.364.243-1.639-.547-.311-.881.251-1.384,1.034-1.591,1.794-.473,3.593-.911,5.4-1.339q3.522-.838,7.055-1.634C174.485,174.025,175.276,173.484,176.355,174.887Zm0,0" transform="translate(106.648 -18.938)" fill="#fff"/>
      <path id="Path_2626" data-name="Path 2626" d="M218.952,377.913c-.73,1.514-2.058,1.97-3.213,2.567-3.693,1.909-7.847,2.425-11.719,3.8-.76.27-1.519.135-1.764-.745-.255-.9.58-1.133,1.154-1.217a51.945,51.945,0,0,0,14.447-4.577C218.078,377.637,218.433,377.822,218.952,377.913Zm0,0" transform="translate(22.012 -18.938)" fill="#fff"/>
      <path id="Path_2627" data-name="Path 2627" d="M166.135,219.01c.415,1.245-.7,1.456-1.4,1.829-3.292,1.746-6.9,2.69-10.409,3.864-.769.258-1.684.286-2.1-.64a.952.952,0,0,1,.859-1.405c4.258-.394,7.875-2.73,11.894-3.836A1.1,1.1,0,0,1,166.135,219.01Zm0,0" transform="translate(124.838 -18.938)" fill="#fff"/>
      <path id="Path_2628" data-name="Path 2628" d="M342.687,179.473c.465,2.021-.829,2.882-1.754,3.876-2.184,2.345-4.828,4.247-6.632,6.959-.364.543-.85,1.092-1.558.442a1.188,1.188,0,0,1-.125-1.739,26,26,0,0,1,2.31-2.453C337.495,184.176,340.1,181.832,342.687,179.473Zm0,0" transform="translate(-231.908 -18.938)" fill="#fff"/>
      <path id="Path_2629" data-name="Path 2629" d="M234.756,318.553a37.156,37.156,0,0,0-9.486,1.475c-.689.213-1.49.666-1.834-.319a1.664,1.664,0,0,1,.994-2.191,12.039,12.039,0,0,1,3.558-.618c1.276-.145,2.524-.547,3.8-.71C233.342,315.988,234.406,316.591,234.756,318.553Zm0,0" transform="translate(-14.905 -18.938)" fill="#fff"/>
      <path id="Path_2630" data-name="Path 2630" d="M315.889,143.221c-3.122.885-6.241,1.813-9.38,2.631a1.754,1.754,0,0,1-2.153-1.162c-.331-.934.559-1.224,1.174-1.549a18.793,18.793,0,0,1,2.834-1.325c.775-.258,1.848-1.091,2.109.719.1.753.954.252,1.469.271C313.216,142.859,314.476,142.318,315.889,143.221Zm0,0" transform="translate(-177.001 -18.938)" fill="#fff"/>
      <path id="Path_2631" data-name="Path 2631" d="M186.187,240.816c-.074,1.12-.619,1.415-1.3,1.5-2.243.287-4.487.646-6.741.788-2.183.138-3.249-1.071-2.948-3.292C178.753,241.155,182.559,240.088,186.187,240.816Zm0,0" transform="translate(81.837 -18.938)" fill="#fff"/>
      <path id="Path_2632" data-name="Path 2632" d="M138.018,180.953a66.37,66.37,0,0,1-13.244,11.16c-.254-.327-.514-.651-.769-.977A119.92,119.92,0,0,1,138.018,180.953Zm0,0" transform="translate(181.15 -18.938)" fill="#fff"/>
      <path id="Path_2633" data-name="Path 2633" d="M259.416,217.62c-1.435-.6-1.63-1.47-.891-2.243a33.488,33.488,0,0,1,10.006-7.4C266.3,212.053,261.575,213.658,259.416,217.62Zm0,0" transform="translate(-83.461 -18.938)" fill="#fff"/>
      <path id="Path_2634" data-name="Path 2634" d="M163.14,242.727c-.36,1.676-1.188,1.851-1.983,1.876a50.133,50.133,0,0,0-7.211.357,1.076,1.076,0,0,1-1.39-.976,1.112,1.112,0,0,1,.871-1.27C156.655,241.729,159.818,242.306,163.14,242.727Zm0,0" transform="translate(127.487 -18.938)" fill="#fff"/>
      <path id="Path_2635" data-name="Path 2635" d="M327.443,194.705c-1.78-.353-2-1.316-1.191-2.458,2.3-3.227,5.558-5.441,8.632-7.9C333.833,188.784,328.921,190.364,327.443,194.705Zm0,0" transform="translate(-217.513 -18.938)" fill="#fff"/>
      <path id="Path_2636" data-name="Path 2636" d="M304.821,198.984c-1.644,4.576-6.836,5.471-7.756,9.82-1.684-.261-2.039-1.272-1.3-2.392C297.874,203.21,300.872,201.009,304.821,198.984Zm0,0" transform="translate(-157.046 -18.938)" fill="#fff"/>
      <path id="Path_2637" data-name="Path 2637" d="M161.206,144.513c-.059,1.4-1.32,1.873-2.2,2.576-1.7,1.349-3.728,2.233-5.287,3.789a1.147,1.147,0,0,1-1.721.129.984.984,0,0,1,.03-1.512c2.65-2.173,5.292-4.365,8.7-5.3C160.822,144.167,160.981,144.358,161.206,144.513Zm0,0" transform="translate(130.306 -18.938)" fill="#fff"/>
      <path id="Path_2638" data-name="Path 2638" d="M315.134,195.071c-1.734,4.226-6.011,5.691-6.756,9.75-1.7-.191-2.109-1.192-1.449-2.356A18.486,18.486,0,0,1,315.134,195.071Zm0,0" transform="translate(-178.589 -18.938)" fill="#fff"/>
      <path id="Path_2639" data-name="Path 2639" d="M323.071,191.874c-.64,2.851-2.469,3.8-3.738,5.163A11.708,11.708,0,0,0,317,199.769c-.325.661-.635,1.759-1.719,1.034-.954-.639-.665-1.619-.09-2.353A29.245,29.245,0,0,1,323.071,191.874Zm0,0" transform="translate(-194.556 -18.938)" fill="#fff"/>
      <path id="Path_2640" data-name="Path 2640" d="M183.383,141.537c-1.489,1.634-3.464,1.952-5.088,2.879q-2.294,1.308-4.587,2.638c-.5.292-1.029.576-1.485-.028-.394-.517-.419-1.262.141-1.488,3.467-1.4,6.411-4.027,10.309-4.4C182.8,141.121,182.938,141.279,183.383,141.537Zm0,0" transform="translate(87.856 -18.938)" fill="#fff"/>
      <path id="Path_2641" data-name="Path 2641" d="M326.063,200.087c-1.375-.664-1.97-1.506-1.445-2.354a25.011,25.011,0,0,1,6.467-7.28C330.57,194.277,326.632,196.134,326.063,200.087Zm0,0" transform="translate(-212.34 -18.938)" fill="#fff"/>
      <path id="Path_2642" data-name="Path 2642" d="M141.291,301.077c-.106,3.172-2.4,3.8-3.607,5.221a17.685,17.685,0,0,1-2.96,2.431.991.991,0,0,1-1.5-.131.791.791,0,0,1,.059-1.106C135.779,305.463,138.3,303.466,141.291,301.077Zm0,0" transform="translate(168.852 -18.938)" fill="#fff"/>
      <path id="Path_2643" data-name="Path 2643" d="M150.865,174.286c-1.464.248-2.024-.012-2.194-.762-.211-.9.329-1.364,1.14-1.516,1.974-.373,3.957-.713,5.931-1.062.6-.105,1.209-.063,1.374.621.151.66-.36,1.072-.914,1.234C154.2,173.391,152.175,173.925,150.865,174.286Zm0,0" transform="translate(137.404 -18.938)" fill="#fff"/>
      <path id="Path_2644" data-name="Path 2644" d="M251.906,433.8c-1.4,1.632-5.5,2.847-6.9,2.182a1.733,1.733,0,0,1-1.059-1.747c.055-1.005.819-1.137,1.574-.992C247.568,433.636,249.752,432.948,251.906,433.8Zm0,0" transform="translate(-52.674 -18.938)" fill="#fff"/>
      <path id="Path_2645" data-name="Path 2645" d="M265.315,399.245c-3.3,1.592-6.625,3.113-10.479,2.2C258.275,400.456,261.538,398.77,265.315,399.245Zm0,0" transform="translate(-76.979 -18.938)" fill="#fff"/>
      <path id="Path_2646" data-name="Path 2646" d="M194.106,183.586a9.338,9.338,0,0,1-6.346,1.563c-1.175-.053-1.25-1.008-.946-2.281C189.2,183.371,191.712,182.392,194.106,183.586Zm0,0" transform="translate(62.405 -18.938)" fill="#fff"/>
      <path id="Path_2647" data-name="Path 2647" d="M251.228,208.983c-.426,2.054-2.039,3.1-1.27,4.971.29.7-.959,1.172-1.809,1a1.373,1.373,0,0,1-1.109-1.992C247.684,211.132,249.134,210.11,251.228,208.983Zm0,0" transform="translate(-54.969 -18.938)" fill="#fff"/>
      <path id="Path_2648" data-name="Path 2648" d="M339.313,216.177c-2.014,1.321-3.813.491-5.482-.145-.84-.319-1.17-1.485-.246-2.714C335.389,214.407,337.363,215.207,339.313,216.177Zm0,0" transform="translate(-229.168 -18.938)" fill="#fff"/>
      <path id="Path_2649" data-name="Path 2649" d="M125.04,167.176c-.47-1.055.589-5.456,1.439-6.01a.935.935,0,0,1,1.12-.018,1.319,1.319,0,0,1,.578,1.242C128.154,163.508,126.228,166.452,125.04,167.176Zm0,0" transform="translate(190.071 -18.938)" fill="#fff"/>
      <path id="Path_2650" data-name="Path 2650" d="M158.8,225.507c-1.39,2.107-3.623,2.881-5.788,3.733a.769.769,0,0,1-.993-.448.845.845,0,0,1,.489-1.18C154.514,226.725,156.418,225.555,158.8,225.507Zm0,0" transform="translate(132.446 -18.938)" fill="#fff"/>
      <path id="Path_2651" data-name="Path 2651" d="M329.528,224.433c-1.709-.527-3.147-.933-4.557-1.422a1.052,1.052,0,0,1-.621-1.2c.06-.462.429-.6.85-.71A3.732,3.732,0,0,1,329.528,224.433Zm0,0" transform="translate(-210.694 -18.938)" fill="#fff"/>
      <path id="Path_2652" data-name="Path 2652" d="M312.683,420.837c1.29.3,2.408.465,3.458.83.845.3,1.489,1.059.49,1.761-1.02.718-2.154-.2-3.233-.361C312.4,422.921,312.369,422.021,312.683,420.837Zm0,0" transform="translate(-186.473 -18.938)" fill="#fff"/>
      <path id="Path_2653" data-name="Path 2653" d="M152.7,164.138c1.27.485,2.353.868,3.408,1.321a.905.905,0,0,1,.565,1.175.981.981,0,0,1-1.145.675C154.048,167,152.375,166.849,152.7,164.138Zm0,0" transform="translate(133.782 -18.938)" fill="#fff"/>
      <path id="Path_2654" data-name="Path 2654" d="M126.559,154.393c2.64-1.055,4.472-.157,5.347,2.368Zm0,0" transform="translate(184.707 -18.938)" fill="#fff"/>
      <path id="Path_2655" data-name="Path 2655" d="M317.014,326.032c1.161,1.524,2.125,2.8,3.184,4.195-1.469.817-2.274-.07-2.948-.892S315.82,327.561,317.014,326.032Zm0,0" transform="translate(-193.408 -18.938)" fill="#fff"/>
      <path id="Path_2656" data-name="Path 2656" d="M316.143,404.449a8.328,8.328,0,0,1,5.913.479A7.075,7.075,0,0,1,316.143,404.449Zm0,0" transform="translate(-195.026 -18.938)" fill="#fff"/>
      <path id="Path_2657" data-name="Path 2657" d="M319.947,401.33c2.245-.25,4.534-.614,7.332.641C324.28,402.837,322.142,401.856,319.947,401.33Zm0,0" transform="translate(-204.052 -18.938)" fill="#fff"/>
      <path id="Path_2658" data-name="Path 2658" d="M326.78,413.4c1.12.644,2.479,1.039,2.184,2.624-.13.715-1.014.722-1.6.368C326.17,415.68,325.751,414.743,326.78,413.4Zm0,0" transform="translate(-212.028 -18.938)" fill="#fff"/>
      <path id="Path_2659" data-name="Path 2659" d="M137.387,278.407c.539,2.585-1.919,2.234-2.7,3.592C134.088,279.768,134.608,279.12,137.387,278.407Zm0,0" transform="translate(171.248 -18.938)" fill="#fff"/>
      <path id="Path_2660" data-name="Path 2660" d="M235.27,210.888c-.95,1.447-1.979,1.5-3.038.458a1.023,1.023,0,0,1,.05-1.67C233.967,208.469,234.331,210.25,235.27,210.888Zm0,0" transform="translate(-23.92 -18.938)" fill="#fff"/>
      <path id="Path_2661" data-name="Path 2661" d="M162.2,281.5c1.636.563,2.485,1.267,2.23,2.711a.769.769,0,0,1-1.129.544C161.987,284.135,161.882,283.059,162.2,281.5Zm0,0" transform="translate(116.647 -18.938)" fill="#fff"/>
      <path id="Path_2662" data-name="Path 2662" d="M362.726,242.986c-1.683-1.063-1.96-2.2-1.255-4.083C363.077,239.968,363.781,240.96,362.726,242.986Zm0,0" transform="translate(-281.162 -18.938)" fill="#fff"/>
      <path id="Path_2663" data-name="Path 2663" d="M215.008,207.593c1.066-.765,1.984-1.053,2.8-.237.508.51.15,1.072-.44,1.337C216.289,209.177,215.529,208.852,215.008,207.593Zm0,0" transform="translate(10.114 -18.938)" fill="#fff"/>
      <path id="Path_2664" data-name="Path 2664" d="M329.8,428.368c1.3.347,2.6.7,3.9,1.042A4.849,4.849,0,0,1,329.8,428.368Zm0,0" transform="translate(-220.327 -18.938)" fill="#fff"/>
      <path id="Path_2665" data-name="Path 2665" d="M355.462,398.632c-.735-.243-1.72,0-2.054-1.035C354.281,397.569,354.838,398.166,355.462,398.632Zm0,0" transform="translate(-265.696 -18.938)" fill="#fff"/>
      <path id="Path_2666" data-name="Path 2666" d="M374.259,338.457c-.034-.128-.074-.26-.064-.229,0-.051,0,.064,0,.179C374.208,338.417,374.259,338.457,374.259,338.457Zm0,0" transform="translate(-305.279 -18.938)" fill="#fff"/>
      <path id="Path_2667" data-name="Path 2667" d="M379.934,283.763c.04-.032.078-.063.115-.1l-.182.051Zm0,0" transform="translate(-316.741 -18.938)" fill="#fff"/>
      <path id="Path_2668" data-name="Path 2668" d="M350.531,399.822c.135-.03.27-.057.4-.088-.128.03-.253.064-.388.1Zm0,0" transform="translate(-258.293 -18.938)" fill="#fff"/>
      <path id="Path_2669" data-name="Path 2669" d="M348.727,400.24l0,.128-.158-.061Zm0,0" transform="translate(-254.128 -18.938)" fill="#fff"/>
      <path id="Path_2670" data-name="Path 2670" d="M381.367,204.1c.135-.225.277-.449.415-.676l-.067-.055c-.132.224-.263.447-.395.673A.583.583,0,0,0,381.367,204.1Zm0,0" transform="translate(-319.928 -18.938)" fill="#fff"/>
      <path id="Path_2671" data-name="Path 2671" d="M380.848,203.43c.182-.145.361-.29.54-.435l-.051-.045q-.273.213-.556.427S380.848,203.43,380.848,203.43Zm0,0" transform="translate(-318.994 -18.938)" fill="#fff"/>
      <path id="Path_2672" data-name="Path 2672" d="M380.156,202.251l-.523.13s.061.058.061.058a.863.863,0,0,0,.411-.158Zm0,0" transform="translate(-316.616 -18.938)" fill="#fff"/>
      <path id="Path_2673" data-name="Path 2673" d="M380.149,203l.681-.555s-.057-.057-.057-.059c-.219.191-.442.379-.675.568C380.1,202.951,380.149,203,380.149,203Zm0,0" transform="translate(-317.756 -18.938)" fill="#fff"/>
      <path id="Path_2674" data-name="Path 2674" d="M380.861,283.717c-.29.166-.58.331-.877.5a.548.548,0,0,1,.057.041c.29-.165.583-.328.884-.491C380.928,283.763,380.861,283.717,380.861,283.717Zm0,0" transform="translate(-317.736 -18.938)" fill="#fff"/>
      <path id="Path_2675" data-name="Path 2675" d="M379.64,202.283a.212.212,0,0,1,.044-.037C379.69,202.251,379.64,202.283,379.64,202.283Zm0,0" transform="translate(-316.15 -18.938)" fill="#fff"/>
      <path id="Path_2676" data-name="Path 2676" d="M366.929,39.393c-4.411-3.711-9.838-5.973-13.77-10.323,2.846.5,5.093,2.184,7.4,3.657,5.649,3.6,11.174,7.407,17.055,10.633.627.341,1.6.541,1,1.5-.482.788-1.255.374-1.936.03-2.243-1.134-4.546-1.934-7.137-1.346a1.846,1.846,0,0,1-1.137-.265c-6.469-3.326-12.944-6.625-19.352-10.059-.924-.5-2.239-1.038-2.324-3.183C353.948,32.7,359.944,37.153,366.929,39.393Zm0,0" transform="translate(-282.357 -18.938)" fill="#fff"/>
      <path id="Path_2677" data-name="Path 2677" d="M364.089,33.773c6.749,1.393,12.071,5.762,18.694,8.457C380.382,43.5,365.91,36.717,364.089,33.773Zm0,0" transform="translate(-303.699 -18.938)" fill="#fff"/>
      <path id="Path_2678" data-name="Path 2678" d="M332.781,75.187c1.288-1.345,2.567-.451,3.757.025,5.032,2.013,9.993,4.192,15.322,5.382,1.524.341,2.809.483,3.8-.8a1.547,1.547,0,0,1,1.238,1.937c-.2.963-1.059,1.2-1.863,1.279a15.749,15.749,0,0,1-5.521-.66A82.69,82.69,0,0,1,335.355,77.3C334.38,76.845,333.22,76.476,332.781,75.187Zm0,0" transform="translate(-246.554 -18.938)" fill="#fff"/>
      <path id="Path_2679" data-name="Path 2679" d="M343.932,74.1c7.5,2.67,13.571,8.443,21.966,8.283.3,1.457-.314,2.087-1.872,2.162-2.873.141-5.393-.937-7.882-2.126-3.642-1.743-7.47-3.151-10.624-5.786A3.085,3.085,0,0,1,343.932,74.1Zm0,0" transform="translate(-266.73 -18.938)" fill="#fff"/>
      <path id="Path_2680" data-name="Path 2680" d="M407.859,62.365A59.731,59.731,0,0,1,425.144,76.07C419.279,71.617,412.79,67.959,407.859,62.365Zm0,0" transform="translate(-389.829 -18.938)" fill="#fff"/>
      <path id="Path_2681" data-name="Path 2681" d="M321.1,468.1c-.12,0-.245,0-.365,0,.184-.341.21.034.31.064Zm0,0" transform="translate(-198.653 -18.938)" fill="#fff"/>
      <path id="Path_2682" data-name="Path 2682" d="M402.416,220.275l.9-.449c-.169.823-.6.3-.867.391C402.449,220.226,402.416,220.275,402.416,220.275Zm0,0" transform="translate(-362.562 -18.938)" fill="#fff"/>
      <path id="Path_2683" data-name="Path 2683" d="M397.65,58.986c-10.229-4.8-20.684-9.192-29.71-16.165C378.743,46.558,388.119,52.914,397.65,58.986Zm0,0" transform="translate(-322.417 -18.938)" fill="#fff"/>
      <path id="Path_2684" data-name="Path 2684" d="M307.131,455.126c.016.064.07.148.045.186s-.125.047-.184.071c-.02-.061-.075-.152-.055-.175C306.981,455.16,307.067,455.153,307.131,455.126Zm0,0" transform="translate(-170.941 -18.938)" fill="#fff"/>
      <path id="Path_2685" data-name="Path 2685" d="M371.567,417.063c.27.118.536.233.381.621-.381-.1-.3-.418-.32-.678Zm0,0" transform="translate(-300.388 -18.938)" fill="#fff"/>
      <path id="Path_2686" data-name="Path 2686" d="M370.231,418.827c.013.02.03.044.044.067Zm0,0" transform="translate(-297.332 -18.938)" fill="#fff"/>
      <path id="Path_2687" data-name="Path 2687" d="M370.376,418.894l-.145-.03a.67.67,0,0,0,.1-.03A.473.473,0,0,1,370.376,418.894Zm0,0" transform="translate(-297.433 -18.938)" fill="#fff"/>
      <path id="Path_2688" data-name="Path 2688" d="M375.762,409.569c.246.479.486.958.931,1.831a1.76,1.76,0,0,1-.907-1.879C375.789,409.512,375.762,409.569,375.762,409.569Zm0,0" transform="translate(-309.281 -18.938)" fill="#fff"/>
      <path id="Path_2689" data-name="Path 2689" d="M392.335,379.957c-.091-.438-.175-.88-.263-1.319.088,0,.179-.007.27-.013v1.352C392.335,379.988,392.335,379.957,392.335,379.957Zm0,0" transform="translate(-341.24 -18.938)" fill="#fff"/>
    </g>
  </g>
</svg>
